<svg xmlns="http://www.w3.org/2000/svg" version="1.1" id="Layer_1" x="0" y="0" width="500" height="434.604" viewBox="0 0 500 434.604" xml:space="preserve">
  <style type="text/css" id="style2">
    .st1{fill:#fff}.st3,.st4{fill:none;stroke:#fff;stroke-width:.8}.st4{stroke-width:.6}.st5{stroke-width:.8}.st5,.st6,.st7{fill:none;stroke:#fff;stroke-linecap:round}.st7{stroke-width:.5}.st8{fill:#d42328}.st9{fill:#dbab27}.st10{stroke:#010101}.st10,.st11,.st12,.st13{fill:none;stroke-miterlimit:10}.st11{stroke:#d42328}.st12{stroke:#febf10}.st13{stroke:#ed2224}.st14,.st15{fill:none;stroke:#dbab27}.st14{stroke-miterlimit:10}.st15{stroke-width:5.1181}.st17{fill:#dcdcdc}.st18{fill:#010101}.st19{fill:#bbb}.st20{fill:#e5e3df}.st21{fill:#b5b5b5}.st23{fill:#303030}.st24{fill:#4e4e4e}.st25{fill:#505050}.st26{fill:#e8e8e8}.st27{fill:#ededed}.st28{fill:#f9f9f9}.st29{fill:#d1d1d1}.st30{fill:#77af6a}.st31{fill:#628a55}.st32{fill:#e9e8e8}.st33{fill:#ededee}.st34{fill:#f9f9fa}.st36{fill:#c2bfbf}.st37{fill:#e5e5e5}
  </style>
  <path id="PCBborder" d="M499.525 16.732l-.27-.54-.27-.54-.27-.54-.27-.539-.269-.54-.27-.54-.27-.54-.27-.539-.269-.54-.27-.54-.27-.54-.269-.539-.27-.54-.27-.54-.27-.54-.269-.539-.27-.54-.27-.54-.539-.54-.54-.539-.538-.54-.54-.27-.54-.27-.539-.27-.54-.27-.539-.269-.539-.27-.54-.27-.539-.27-.54-.27-.539-.27h-1.888l-.54-.27-.539-.269-.539-.27-.54-.27-.539-.27-.54-.27-.539-.27-.54-.27-.538-.27-.54-.269H19.978l-.54.27-.539.27-.539.27h-.54l-.539.27-.54.27-.539.27-.54.27-.539.269-.539.27-.54.27-.539.54-.54.27v.809l-.539.27-.54.27-.539.27-.539.27-.54.27-.539-.27-.54.54-.539.539-.27.54-.27.54-.269.54-.809.269-.27.54-.27.54-.269.54-.27.539-.27.54-.27.54-.269.54-.27.539v1.08l-.27.54-.269.539-.27.54-.27.54-.27.54-.269.539-.27.54-.27.54v396.439l.27.539.27.54.27.54.27.54.27.539.269.54.27.54.27.54.27.539.269.54.27.54.27.54.539.269.27.54.27.54.269.54.27.539.539.27-.27.54.54.54.54.539.538.54.54.27.54.27.27.809.538.27.54.27.54.27.539.27.27.27.539.27.54.269h.808l.54.27.54.27.539.27.54.27.539.27.539.27 1.079.539.54.27.539.27.54.27h4.584v-.54H336.35l.27-.27.269-.27.27-.27.27-.27.269-.27.27-.27.27-.27.269-.27.27-.269.27-.27.27-.27V283.364l.269-.27.27-.27.27-.27.269-.27.27-.269.27-.27.27-.27.269-.27.27-.27.27-.27 1.618.54.27-.27.269-.27.27-.27.27-.269.27-.27h5.123l.27.27.269.27.27.27.27.27.27.27.269.27.27.27.27.269.269.27.27.27.27.27.27.27.269.27.27.27.27.269.269.27v144.921l.27.269.27.27.27.27.269.27.27.27.27.27.269.269.27.27.27.27.27.27.269.27h124.338l.539-.27.54-.27.539-.27.54-.27.539-.27.54-.27.539-.27.539-.27.54-.27.539-.27.54-.269.539-.27.54-.27.539-.27.539-.27.54-.27.539-.27.54-.269.539-.27.54-.54.538-.54.54-.539.27-.54.27-.54.269-.54.27-.539.27-.54.27-.54.269-.54.27-.539.27-.54.269-.54.27-.54.27-.539.27-.54.269-.54.27-.54.27-.539.269-.54.27-.54.809-1.619.27-.54.27-.539V17.27zM241.95 12.954a7.254 7.254 0 017.283 7.286 7.254 7.254 0 01-7.283 7.287c-4.045 0-7.282-3.509-7.282-7.287s3.237-7.286 7.282-7.286zm-38.838 0a7.254 7.254 0 017.282 7.286 7.254 7.254 0 01-7.282 7.287 7.254 7.254 0 01-7.282-7.287 7.254 7.254 0 017.282-7.286zm-19.42 0a7.254 7.254 0 017.283 7.286 7.254 7.254 0 01-7.282 7.287 7.254 7.254 0 01-7.282-7.287 7.254 7.254 0 017.282-7.286zm0 19.43a7.254 7.254 0 017.283 7.287 7.254 7.254 0 01-7.282 7.286 7.254 7.254 0 01-7.282-7.286 7.254 7.254 0 017.282-7.287zm-38.838-19.43a7.254 7.254 0 017.283 7.286 7.254 7.254 0 01-7.283 7.287c-4.045 0-7.282-3.509-7.282-7.287s3.237-7.286 7.282-7.286zm0 19.43a7.254 7.254 0 017.283 7.287 7.254 7.254 0 01-7.283 7.286c-4.045 0-7.282-3.508-7.282-7.286a7.254 7.254 0 017.282-7.287zm-4.045 48.037c3.506 0 6.473 2.969 6.473 6.477 0 3.509-2.967 6.477-6.473 6.477s-6.473-2.968-6.473-6.477c0-3.778 2.967-6.477 6.473-6.477zM29.958 19.161c5.933 0 10.788 4.857 10.788 10.795 0 5.937-4.855 10.794-10.788 10.794-5.934 0-10.789-4.857-10.789-10.794 0-6.207 4.855-10.795 10.789-10.795zM14.584 58.83c4.046 0 7.552 3.51 7.552 7.557 0 4.048-3.237 7.287-7.552 7.287-4.046 0-7.552-3.509-7.552-7.557s3.506-7.286 7.552-7.286zm0 19.431c4.046 0 7.552 3.509 7.552 7.557s-3.237 7.556-7.552 7.556c-4.046 0-7.552-3.508-7.552-7.556s3.506-7.557 7.552-7.557zm0 19.431c4.046 0 7.552 3.508 7.552 7.557 0 4.048-3.237 7.556-7.552 7.556-4.046 0-7.552-3.508-7.552-7.556 0-4.049 3.506-7.557 7.552-7.557zm0 19.161c4.046 0 7.552 3.508 7.552 7.556 0 4.318-3.237 7.827-7.552 7.827-4.046 0-7.552-3.509-7.552-7.557 0-4.318 3.506-7.826 7.552-7.826zm0 39.131c4.046 0 7.552 3.509 7.552 7.557s-3.237 7.286-7.552 7.286c-4.046 0-7.552-3.508-7.552-7.556s3.506-7.287 7.552-7.287zm0 19.43c4.046 0 7.552 3.51 7.552 7.557 0 4.048-3.237 7.557-7.552 7.557-4.046 0-7.552-3.509-7.552-7.557s3.506-7.556 7.552-7.556zm0 19.432c4.046 0 7.552 3.508 7.552 7.556s-3.237 7.556-7.552 7.556c-4.046 0-7.552-3.508-7.552-7.556s3.506-7.556 7.552-7.556zm0 19.16c4.046 0 7.552 3.509 7.552 7.557s-3.237 7.826-7.552 7.826c-4.046 0-7.552-3.508-7.552-7.556s3.506-7.827 7.552-7.827zm0 19.7c4.046 0 7.552 3.51 7.552 7.557 0 4.048-3.506 7.557-7.552 7.557-4.046 0-7.552-3.509-7.552-7.557 0-4.318 3.506-7.556 7.552-7.556zm0 19.432c4.046 0 7.552 3.508 7.552 7.556s-3.237 7.286-7.552 7.286c-4.046 0-7.552-3.508-7.552-7.556s3.506-7.286 7.552-7.286zm0 19.43c4.046 0 7.552 3.509 7.552 7.557s-3.506 7.556-7.552 7.556c-4.046 0-7.552-3.508-7.552-7.556s3.506-7.557 7.552-7.557zm0 34.544c-4.046 0-7.552-3.509-7.552-7.557S10.538 292 14.584 292c4.046 0 7.552 3.508 7.552 7.556s-3.237 7.557-7.552 7.557zM29.958 415.6c-5.934 0-10.789-4.858-10.789-10.795s4.855-10.795 10.789-10.795c5.933 0 10.788 4.858 10.788 10.795S35.891 415.6 29.958 415.6zm4.045-108.488c-4.045 0-7.552-3.509-7.552-7.557S29.958 292 34.003 292c4.046 0 7.552 3.508 7.552 7.556s-3.236 7.557-7.552 7.557zm0-19.431c-4.045 0-7.552-3.508-7.552-7.556s3.507-7.557 7.552-7.557c4.046 0 7.552 3.509 7.552 7.557s-3.236 7.556-7.552 7.556zm0-19.7c-4.045 0-7.552-3.509-7.552-7.557s3.507-7.556 7.552-7.556c4.046 0 7.552 3.508 7.552 7.556s-3.236 7.556-7.552 7.556zm0-19.161c-4.045 0-7.552-3.509-7.552-7.557s3.507-7.556 7.552-7.556c4.046 0 7.552 3.508 7.552 7.556s-3.236 7.557-7.552 7.557zm0-19.431c-4.045 0-7.552-3.508-7.552-7.556s3.507-7.557 7.552-7.557c4.046 0 7.552 3.509 7.552 7.557s-3.236 7.556-7.552 7.556zm0-19.43c-4.045 0-7.552-3.509-7.552-7.557s3.507-7.556 7.552-7.556c4.046 0 7.552 3.508 7.552 7.556s-3.236 7.556-7.552 7.556zm0-19.431c-4.045 0-7.552-3.509-7.552-7.557s3.507-7.556 7.552-7.556c4.046 0 7.552 3.508 7.552 7.556s-3.236 7.557-7.552 7.557zm0-19.7c-4.045 0-7.552-3.51-7.552-7.557 0-4.048 3.507-7.557 7.552-7.557 4.046 0 7.552 3.509 7.552 7.557s-3.236 7.556-7.552 7.556zm0-38.592c-4.045 0-7.552-3.509-7.552-7.557s3.507-7.556 7.552-7.556c4.046 0 7.552 3.508 7.552 7.556s-3.236 7.557-7.552 7.557zm0-19.431c-4.045 0-7.552-3.508-7.552-7.556 0-4.049 3.507-7.557 7.552-7.557 4.046 0 7.552 3.508 7.552 7.557 0 4.048-3.236 7.556-7.552 7.556zm0-19.43c-4.045 0-7.552-3.51-7.552-7.557 0-4.048 3.507-7.557 7.552-7.557 4.046 0 7.552 3.509 7.552 7.557s-3.236 7.556-7.552 7.556zm0-19.701c-4.045 0-7.552-3.509-7.552-7.557s3.507-7.556 7.552-7.556c4.046 0 7.552 3.508 7.552 7.556s-3.236 7.557-7.552 7.557zm19.42 233.438c-4.046 0-7.553-3.509-7.553-7.557S49.377 292 53.422 292c4.046 0 7.552 3.508 7.552 7.556s-3.236 7.557-7.552 7.557zm0-19.431c-4.046 0-7.553-3.508-7.553-7.556s3.507-7.557 7.552-7.557c4.046 0 7.552 3.509 7.552 7.557s-3.236 7.556-7.552 7.556zm0-19.7c-4.046 0-7.553-3.509-7.553-7.557s3.507-7.556 7.552-7.556c4.046 0 7.552 3.508 7.552 7.556s-3.236 7.556-7.552 7.556zm0-19.161c-4.046 0-7.553-3.509-7.553-7.557s3.507-7.556 7.552-7.556c4.046 0 7.552 3.508 7.552 7.556s-3.236 7.557-7.552 7.557zm0-19.431c-4.046 0-7.553-3.508-7.553-7.556s3.507-7.557 7.552-7.557c4.046 0 7.552 3.509 7.552 7.557s-3.236 7.556-7.552 7.556zm0-19.43c-4.046 0-7.553-3.509-7.553-7.557s3.507-7.556 7.552-7.556c4.046 0 7.552 3.508 7.552 7.556s-3.236 7.556-7.552 7.556zm0-19.431c-4.046 0-7.553-3.509-7.553-7.557s3.507-7.556 7.552-7.556c4.046 0 7.552 3.508 7.552 7.556s-3.236 7.557-7.552 7.557zm0-19.7c-4.046 0-7.553-3.51-7.553-7.557 0-4.048 3.507-7.557 7.552-7.557 4.046 0 7.552 3.509 7.552 7.557s-3.236 7.556-7.552 7.556zm0-38.592c-4.046 0-7.553-3.509-7.553-7.557s3.507-7.556 7.552-7.556c4.046 0 7.552 3.508 7.552 7.556s-3.236 7.557-7.552 7.557zm0-19.431c-4.046 0-7.553-3.508-7.553-7.556 0-4.049 3.507-7.557 7.552-7.557 4.046 0 7.552 3.508 7.552 7.557 0 4.048-3.236 7.556-7.552 7.556zm0-19.43c-4.046 0-7.553-3.51-7.553-7.557 0-4.048 3.507-7.557 7.552-7.557 4.046 0 7.552 3.509 7.552 7.557s-3.236 7.556-7.552 7.556zm0-19.701c-4.046 0-7.553-3.509-7.553-7.557s3.507-7.556 7.552-7.556c4.046 0 7.552 3.508 7.552 7.556s-3.236 7.557-7.552 7.557zm13.755-26.987a7.254 7.254 0 01-7.283-7.287 7.254 7.254 0 017.283-7.286A7.254 7.254 0 0174.46 39.4a7.254 7.254 0 01-7.282 7.287zm0-19.161a7.254 7.254 0 01-7.283-7.287 7.254 7.254 0 017.283-7.286 7.254 7.254 0 017.282 7.286 7.254 7.254 0 01-7.282 7.287zm19.419 19.16a7.254 7.254 0 01-7.282-7.286 7.254 7.254 0 017.282-7.286 7.254 7.254 0 017.282 7.286 7.254 7.254 0 01-7.282 7.287zm0-19.16a7.254 7.254 0 01-7.282-7.287 7.254 7.254 0 017.282-7.286 7.254 7.254 0 017.282 7.286 7.254 7.254 0 01-7.282 7.287zm19.42 19.16a7.254 7.254 0 01-7.283-7.286 7.254 7.254 0 017.282-7.286 7.254 7.254 0 017.282 7.286 7.254 7.254 0 01-7.282 7.287zm0-19.16a7.254 7.254 0 01-7.283-7.287 7.254 7.254 0 017.282-7.286 7.254 7.254 0 017.282 7.286 7.254 7.254 0 01-7.282 7.287zm15.373 104.71c-3.507 0-6.473-2.969-6.473-6.477 0-3.509 2.966-6.477 6.473-6.477 3.506 0 6.473 2.968 6.473 6.477 0 3.508-2.967 6.477-6.473 6.477zm0-38.862c-3.507 0-6.473-2.968-6.473-6.477 0-3.508 2.966-6.477 6.473-6.477 3.506 0 6.473 2.969 6.473 6.477 0 3.509-2.967 6.477-6.473 6.477zm4.045-46.687a7.254 7.254 0 01-7.282-7.287 7.254 7.254 0 017.282-7.286 7.254 7.254 0 017.282 7.286 7.254 7.254 0 01-7.282 7.287zm0-19.161a7.254 7.254 0 01-7.282-7.287 7.254 7.254 0 017.282-7.286 7.254 7.254 0 017.282 7.286 7.254 7.254 0 01-7.282 7.287zm8.9 98.233c0-3.509 2.968-6.477 6.474-6.477 3.506 0 6.473 2.968 6.473 6.477 0 3.508-2.967 6.477-6.473 6.477s-6.473-2.969-6.473-6.477zm17.802 253.678c-5.125 0-9.17-4.048-9.17-9.176 0-5.127 4.045-9.175 9.17-9.175 5.124 0 9.17 4.048 9.17 9.175 0 5.128-4.046 9.176-9.17 9.176zm8.091-247.201c-3.506 0-6.473-2.969-6.473-6.477 0-3.509 2.967-6.477 6.473-6.477s6.473 2.968 6.473 6.477c0 3.508-2.967 6.477-6.473 6.477zm0-38.862c-3.506 0-6.473-2.968-6.473-6.477 0-3.508 2.967-6.477 6.473-6.477s6.473 2.969 6.473 6.477c0 3.509-2.967 6.477-6.473 6.477zm4.046-46.687a7.254 7.254 0 01-7.283-7.287 7.254 7.254 0 017.283-7.286 7.254 7.254 0 017.282 7.286 7.254 7.254 0 01-7.282 7.287zm0-19.161a7.254 7.254 0 01-7.283-7.287 7.254 7.254 0 017.283-7.286 7.254 7.254 0 017.282 7.286 7.254 7.254 0 01-7.282 7.287zm16.991 351.911c-5.124 0-9.17-4.048-9.17-9.176 0-5.127 4.046-9.175 9.17-9.175 5.125 0 9.17 4.048 9.17 9.175 0 5.128-4.045 9.176-9.17 9.176zm6.204-91.216c-4.585 0-8.361-3.778-8.361-8.366 0-4.588 3.776-8.366 8.36-8.366 4.586 0 8.362 3.778 8.362 8.366 0 4.588-3.776 8.366-8.361 8.366zm8.36-248.551a7.254 7.254 0 017.283-7.287 7.254 7.254 0 017.282 7.287 7.254 7.254 0 01-7.282 7.286c-4.046-.27-7.282-3.508-7.282-7.286zm2.698 240.455c0-4.588 3.776-8.366 8.361-8.366 4.585 0 8.361 3.778 8.361 8.366 0 4.587-3.776 8.366-8.361 8.366-4.585 0-8.361-3.779-8.361-8.366zm18.61 99.312c-5.124 0-9.17-4.048-9.17-9.176 0-5.127 4.046-9.175 9.17-9.175 5.125 0 9.17 4.048 9.17 9.175 0 5.128-4.045 9.176-9.17 9.176zm5.394-332.75a7.254 7.254 0 01-7.282-7.287 7.254 7.254 0 017.282-7.286 7.254 7.254 0 017.282 7.286 7.254 7.254 0 01-7.282 7.287zm0-19.161a7.254 7.254 0 01-7.282-7.287 7.254 7.254 0 017.282-7.286 7.254 7.254 0 017.282 7.286 7.254 7.254 0 01-7.282 7.287zm12.137 12.144a7.254 7.254 0 017.282-7.287 7.254 7.254 0 017.283 7.287 7.254 7.254 0 01-7.283 7.286c-4.045 0-7.282-3.508-7.282-7.286zm11.598 339.767c-5.125 0-9.17-4.048-9.17-9.176 0-5.127 4.045-9.175 9.17-9.175 5.124 0 9.17 4.048 9.17 9.175 0 5.128-4.046 9.176-9.17 9.176zm15.104-332.75a7.254 7.254 0 01-7.283-7.287 7.254 7.254 0 017.283-7.286 7.254 7.254 0 017.282 7.286 7.254 7.254 0 01-7.282 7.287zm0-19.161a7.254 7.254 0 01-7.283-7.287 7.254 7.254 0 017.283-7.286 7.254 7.254 0 017.282 7.286 7.254 7.254 0 01-7.282 7.287zm19.419 19.16a7.254 7.254 0 01-7.282-7.286 7.254 7.254 0 017.282-7.286 7.254 7.254 0 017.282 7.286 7.254 7.254 0 01-7.282 7.287zm0-19.16a7.254 7.254 0 01-7.282-7.287 7.254 7.254 0 017.282-7.286 7.254 7.254 0 017.282 7.286 7.254 7.254 0 01-7.282 7.287zm19.42 19.16a7.254 7.254 0 01-7.283-7.286 7.254 7.254 0 017.282-7.286 7.254 7.254 0 017.282 7.286 7.254 7.254 0 01-7.282 7.287zm0-19.16a7.254 7.254 0 01-7.283-7.287 7.254 7.254 0 017.282-7.286 7.254 7.254 0 017.282 7.286 7.254 7.254 0 01-7.282 7.287zm19.418 19.16a7.254 7.254 0 01-7.282-7.286 7.254 7.254 0 017.282-7.286 7.254 7.254 0 017.282 7.286 7.254 7.254 0 01-7.282 7.287zm0-19.16a7.254 7.254 0 01-7.282-7.287 7.254 7.254 0 017.282-7.286 7.254 7.254 0 017.282 7.286 7.254 7.254 0 01-7.282 7.287zm19.42 19.16a7.254 7.254 0 01-7.283-7.286 7.254 7.254 0 017.282-7.286 7.254 7.254 0 017.283 7.286 7.254 7.254 0 01-7.283 7.287zm0-19.16a7.254 7.254 0 01-7.283-7.287 7.254 7.254 0 017.282-7.286 7.254 7.254 0 017.283 7.286 7.254 7.254 0 01-7.283 7.287zm19.419 19.16a7.254 7.254 0 01-7.283-7.286 7.254 7.254 0 017.283-7.286 7.254 7.254 0 017.282 7.286 7.254 7.254 0 01-7.282 7.287zm0-19.16a7.254 7.254 0 01-7.283-7.287 7.254 7.254 0 017.283-7.286 7.254 7.254 0 017.282 7.286 7.254 7.254 0 01-7.282 7.287zm19.419 19.16a7.254 7.254 0 01-7.282-7.286 7.254 7.254 0 017.282-7.286 7.254 7.254 0 017.282 7.286 7.254 7.254 0 01-7.282 7.287zm0-19.16a7.254 7.254 0 01-7.282-7.287 7.254 7.254 0 017.282-7.286 7.254 7.254 0 017.282 7.286 7.254 7.254 0 01-7.282 7.287zm19.42 19.16a7.254 7.254 0 01-7.283-7.286 7.254 7.254 0 017.282-7.286 7.254 7.254 0 017.282 7.286 7.254 7.254 0 01-7.282 7.287zm0-19.16a7.254 7.254 0 01-7.283-7.287 7.254 7.254 0 017.282-7.286 7.254 7.254 0 017.282 7.286 7.254 7.254 0 01-7.282 7.287zm19.418 19.16a7.254 7.254 0 01-7.282-7.286 7.254 7.254 0 017.282-7.286 7.254 7.254 0 017.282 7.286 7.254 7.254 0 01-7.282 7.287zm0-19.16a7.254 7.254 0 01-7.282-7.287 7.254 7.254 0 017.282-7.286 7.254 7.254 0 017.282 7.286 7.254 7.254 0 01-7.282 7.287zm19.42 19.16a7.254 7.254 0 01-7.283-7.286 7.254 7.254 0 017.282-7.286 7.254 7.254 0 017.283 7.286 7.254 7.254 0 01-7.283 7.287zm0-19.16a7.254 7.254 0 01-7.283-7.287 7.254 7.254 0 017.282-7.286 7.254 7.254 0 017.283 7.286 7.254 7.254 0 01-7.283 7.287zm37.22 388.074c-5.934 0-10.789-4.858-10.789-10.795s4.855-10.795 10.789-10.795c5.933 0 10.788 4.858 10.788 10.795s-4.855 10.795-10.788 10.795zm0-374.85c-5.934 0-10.789-4.858-10.789-10.795 0-5.938 4.855-10.795 10.789-10.795 5.933 0 10.788 4.857 10.788 10.795 0 5.937-4.855 10.794-10.788 10.794z" fill="#203063" stroke-width="2.698"/>
  <g id="gge272_3" transform="matrix(2.69711 0 0 2.6987 .02 0)">
    <path class="st1" d="M103.7 81.7h.7c.7 0 1.1.2 1.1.8 0 .6-.4.8-1.1.8h-.7zm2.3 3.8l-1.1-1.9c.6-.1 1-.5 1-1.2 0-.9-.6-1.2-1.5-1.2h-1.3v4.2h.5v-1.8h.8l1.1 1.8zm1.9.1c.8 0 1.4-.6 1.4-1.6s-.7-1.6-1.4-1.6c-.8 0-1.4.6-1.4 1.6s.6 1.6 1.4 1.6zm0-.4c-.6 0-1-.5-1-1.2s.4-1.2 1-1.2 1 .5 1 1.2c-.1.7-.5 1.2-1 1.2zm3.6.4c.7 0 1.4-.6 1.4-1.7 0-1-.4-1.6-1.2-1.6-.4 0-.7.2-1 .4v-1.9h-.5v4.6h.4l.1-.3c.2.3.5.5.8.5zm-.1-.4c-.2 0-.5-.1-.8-.3v-1.7c.3-.3.6-.4.9-.4.6 0 .9.5.9 1.2s-.4 1.2-1 1.2zm3.5.4c.8 0 1.4-.6 1.4-1.6s-.7-1.6-1.4-1.6c-.8 0-1.4.6-1.4 1.6s.6 1.6 1.4 1.6zm0-.4c-.6 0-.9-.5-.9-1.2s.4-1.2.9-1.2c.6 0 1 .5 1 1.2-.1.7-.5 1.2-1 1.2zm3.6.3h.5v-2h2v2h.5v-4.2h-.5v1.8h-2v-1.8h-.5zm4.6-1.7l.2-.7c.2-.5.3-.9.4-1.4.1.5.3 1 .4 1.4l.2.7zm1.9 1.7h.5l-1.4-4.2h-.5l-1.4 4.2h.5l.4-1.3h1.6zm1.7 0h.5v-3.8h1.3v-.4h-3.1v.4h1.3v3.8zm3.8 0h.4v-2.4c0-.4 0-.9-.1-1.2l.3 1 .8 2.3h.3l.8-2.3.3-1c0 .4-.1.9-.1 1.2v2.4h.4v-4.2h-.6l-.8 2.3-.3.9-.3-.9-.8-2.3h-.6v4.2zm4.6 0h.4v-2.4c0-.4 0-.9-.1-1.2l.3 1 .8 2.3h.3l.8-2.3.3-1c0 .4-.1.9-.1 1.2v2.4h.4v-4.2h-.6l-.8 2.3-.3.9-.3-.9-.8-2.3h-.6v4.2zm4.6 0h2.3v-.4h-.9v-3.8h-.4c-.2.1-.5.2-.8.3v.3h.7v3.2h-.9z" id="path5" fill="#fff"/>
  </g>
  <g id="gge276_3" transform="matrix(2.69711 0 0 2.6987 .02 0)">
    <path class="st3" d="M22.7 19.2l.2.3.5.5H20" id="path11" fill="none" stroke="#fff" stroke-width=".8"/>
  </g>
  <g id="gge277_3" transform="matrix(2.69711 0 0 2.6987 .02 0)">
    <path class="st3" d="M22.6 55.2l.2.3.5.5h-3.4" id="path14" fill="none" stroke="#fff" stroke-width=".8"/>
  </g>
  <g id="gge278_3" transform="matrix(2.69711 0 0 2.6987 .02 0)">
    <path class="st3" d="M23.2 52l-2.3-1.6v2.5m2.3-.9h-3.4" id="path17" fill="none" stroke="#fff" stroke-width=".8"/>
  </g>
  <g id="gge279_3" transform="matrix(2.69711 0 0 2.6987 .02 0)">
    <path class="st3" d="M23.2 116l-.2-.5-.3-.2h-.3l-.3.2-.2.3-.2.7-.2.5-.3.3-.3.2h-.5l-.3-.2-.2-.2-.2-.5v-.7l.2-.5.2-.2.3-.2h.5l.3.2.3.3.2.5.2.7.2.3.3.2h.3l.3-.2.2-.5v-.5" id="path20" fill="none" stroke="#fff" stroke-width=".8"/>
  </g>
  <g id="gge595_3" transform="matrix(2.69711 0 0 2.6987 .02 0)">
    <path class="st4" d="M107.2 129.3v2.6m-1.4-1.2h2.6m1.1-1.8v3.1m0-3.1h1.3l.4.1.1.2.2.3v.3l-.2.3-.1.2-.4.1m-1.3 0h1.3l.4.2.1.1.2.3v.4l-.2.3-.1.2-.4.1h-1.3m4.2-3.1l-1.2 3.1m1.2-3.1l1.2 3.1m-2-1h1.5m2.5-2.1v3.1m-1.1-3.1h2.1" id="path35" fill="none" stroke="#fff" stroke-width=".6"/>
  </g>
  <g id="gge691_3" transform="matrix(2.69711 0 0 2.6987 .02 0)">
    <path class="st4" d="M54.5 128.9v3.1m0-3.1h1.3l.4.1.2.1.1.3v.4l-.1.3-.2.1-.4.2h-1.3m3.1-1.5l.7 3.1m.7-3.1l-.7 3.1m.7-3.1l.7 3.1m.8-3.1l-.7 3.1m1.7-3.1v3.1m0-3.1h1.3l.4.1.1.1.2.3v.3l-.2.3-.1.2-.4.1h-1.3m1 .1l1 1.6m4.6-2.7v2.6m-1.3-1.2h2.6" id="path71" fill="none" stroke="#fff" stroke-width=".6"/>
  </g>
  <g id="gge700_3" transform="matrix(2.69711 0 0 2.6987 .02 0)">
    <path class="st4" d="M79 128.9v3.1m0-3.1h1.9m-1.9 1.5h1.2M79 132h1.9m3.1-2.7l-.3-.3-.4-.1h-.6l-.4.1-.3.3v.3l.1.3.2.1.3.2.9.3.3.1.2.1.1.3v.4l-.3.3-.4.1h-.6l-.4-.1-.3-.3m5-1.8l-.1-.3-.3-.3-.3-.1h-.6l-.3.1-.3.3-.1.3-.2.4v.7l.2.4.1.3.3.3.3.1h.6l.3-.1.3-.3.1-.3m4.6-1.8v2.6m-1.3-1.2H93" id="path74" fill="none" stroke="#fff" stroke-width=".6"/>
  </g>
  <g id="gge711_3" transform="matrix(2.69711 0 0 2.6987 .02 0)">
    <path class="st4" d="M110.6 117.7l-.2-.3-.3-.3-.3-.1h-.6l-.3.1-.3.3-.2.3-.1.4v.7l.1.4.2.3.3.3.3.1h.6l.3-.1.3-.3.2-.3m.9-2.2v3.1m2.1-3.1v3.1m-2.1-1.6h2.1m1-1.5v3.1m0-3.1h1.3l.4.1.1.1.2.3v.3l-.2.3-.1.2-.4.1h-1.3m1 .1l1 1.6m3.2-2.4l-.1-.3-.3-.3-.3-.1h-.6l-.3.1-.3.3-.1.3-.1.4v.7l.1.4.1.3.3.3.3.1h.6l.3-.1.3-.3.1-.3v-.4m-.7.1h.7" id="path77" fill="none" stroke="#fff" stroke-width=".6"/>
  </g>
  <g id="gge730_3" transform="matrix(2.69711 0 0 2.6987 .02 0)">
    <path class="st4" d="M7.8 121.7H4.7m3.1 0v1.3l-.1.4-.1.2-.3.1h-.6l-.3-.1-.1-.2-.2-.4v-1.3m1.7 3.9l-.1-.3-.3-.3-.3-.1-.4-.2H6l-.4.2-.3.1-.3.3-.3.3v.6l.1.3.3.3.3.1.4.2h.7l.4-.2.3-.1.3-.3.1-.3v-.6m.2 2.4l-3.1.7m3.1.8l-3.1-.7m3.1.7l-3.1.7m3.1.8l-3.1-.7m3.1 1.6H4.7m3.1 0v1.9m-1.5-1.9v1.2m-1.6-1.2v1.9m3.1 1H4.7m3.1 0v1.3l-.1.4-.1.2-.3.1H7l-.3-.1-.2-.2-.1-.4v-1.3m-.1 1.1l-1.6 1" id="path86" fill="none" stroke="#fff" stroke-width=".6"/>
  </g>
  <g id="gge744_3" transform="matrix(2.69711 0 0 2.6987 .02 0)">
    <path class="st4" d="M144.4 105.1v3.1m0-3.1h1.3l.4.2.2.1.1.3v.3l-.1.3-.2.1-.4.2h-1.3m1 0l1 1.6m1-3.1v3.1m0-3.1h1.9m-1.9 1.5h1.2m-1.2 1.6h1.9m3-2.6l-.3-.3-.4-.2h-.6l-.4.2-.3.3v.3l.2.3.1.2.3.1.9.3.3.2.1.1.2.3v.4l-.3.3-.4.2h-.6l-.4-.2-.3-.3m2.9-2.7v3.1m0-3.1h1.9m-1.9 1.5h1.2m-1.2 1.6h1.9m2-3.1v3.1m-1-3.1h2.1" id="path89" fill="none" stroke="#fff" stroke-width=".6"/>
  </g>
  <g id="gge763_3" transform="matrix(2.69711 0 0 2.6987 .02 0)">
    <path class="st4" d="M28.8 148.3v2.2l.2.4.3.3.4.1h.3l.4-.1.3-.3.2-.4v-2.2m3 .4l-.3-.3-.4-.1h-.6l-.4.1-.3.3v.3l.1.3.2.1.3.2.9.3.3.1.2.1.1.3v.4l-.3.3-.4.1h-.6l-.4-.1-.3-.3m2.9-2.5v3.1m0-3.1h1.3l.4.1.2.1.1.3v.3l-.1.3-.2.2-.4.1m-1.3.1h1.3l.4.2.2.1.1.3v.4l-.1.3-.2.2-.4.1h-1.3" id="path92" fill="none" stroke="#fff" stroke-width=".6"/>
  </g>
  <g id="gge781_3" transform="matrix(2.69711 0 0 2.6987 .02 0)">
    <path class="st4" d="M28.4 121.1v2.2l.1.4.3.3.4.1h.3l.4-.1.3-.3.1-.4v-2.2m3.2.4l-.3-.3-.4-.1h-.6l-.4.1-.3.3v.3l.2.3.1.1.3.2.9.3.3.1.1.1.2.3v.4l-.3.3-.4.1h-.6l-.4-.1-.3-.3m2.9-2.5v3.1m0-3.1h1.3l.4.1.2.1.1.3v.3l-.1.3-.2.2-.4.1m-1.3.1h1.3l.4.2.2.1.1.3v.4l-.1.3-.2.2-.4.1h-1.3" id="path95" fill="none" stroke="#fff" stroke-width=".6"/>
  </g>
  <g id="gge787_3" transform="matrix(2.69711 0 0 2.6987 .02 0)">
    <path class="st4" d="M29.3 81.6l.3-.3.1-.4v-.6l-.1-.4-.3-.3H29l-.3.1-.1.2-.2.3-.3.9-.1.3-.1.2h-.8l-.3-.3-.1-.4v-.6l.1-.4.3-.3m2.6 3h-3.1m3.1 0v1.9m-1.4-1.9v1.2m-1.7-1.2v1.9m3.1 1h-3.1m3.1 0v1.3l-.1.4-.1.1-.3.2h-.3l-.3-.2-.2-.1-.1-.4v-1.3m0 1l-1.6 1m3 1l-3.1 1.2m3.1 1.2l-3.1-1.2m3.1 3l-.1-.3-.3-.3-.3-.2-.4-.1h-.7l-.4.1-.3.2-.3.3-.1.3v.6l.1.3.3.3.3.2.4.1h.7l.4-.1.3-.2.3-.3.1-.3v-.6" id="path98" fill="none" stroke="#fff" stroke-width=".6"/>
  </g>
  <g id="gge846_3" transform="matrix(2.69711 0 0 2.6987 .02 0)">
    <path class="st4" d="M43.6 52.2v2.1m0-1.5l.4-.4.3-.1h.4l.3.1.1.4v1.5m1.1-1.3H48v-.3l-.1-.3-.1-.2-.3-.1h-.4l-.3.1-.5.4-.1.4v.3l.1.4.3.3.3.1h.4l.3-.1.3-.3m1.7-1.5l-.3.1-.3.3-.2.4v.3l.2.4.3.3.3.1h.4l.3-.1.3-.3.1-.4v-.7l-.3-.3-.3-.1h-.5m2.2 0v3.1m0-2.7l.3-.3.3-.1h.4l.3.1.3.3.2.4v.3l-.2.4-.3.3-.3.1h-.4l-.3-.1-.3-.3m2.7-2.6v0h.3l-.1-.1-.2.1m.2 1.1v2.1m1.1-2.1l1.6 2.1m0-2.1l-1.6 2.1m2.6-1.3h1.8v-.3l-.1-.3-.2-.2-.3-.1h-.4l-.3.1-.4.4-.1.4v.3l.1.4.3.3.3.1h.4l.3-.1.3-.3m1-2.6v3.1" id="path101" fill="none" stroke="#fff" stroke-width=".6"/>
  </g>
  <g id="gge878_3" transform="matrix(2.69711 0 0 2.6987 .02 0)">
    <path class="st4" d="M146.5 78.5v3.1m0 0h1.8m1-3.1v3.1m0-3.1h1.9m-1.9 1.4h1.2m-1.2 1.7h1.9m.9-3.1v3.1m0-3.1h1l.4.2.3.3.2.3.1.4v.7l-.1.4-.2.3-.3.3-.4.2h-1" id="path110" fill="none" stroke="#fff" stroke-width=".6"/>
  </g>
  <g id="gge885_3" transform="matrix(2.69711 0 0 2.6987 .02 0)">
    <path class="st4" d="M65.2 109.9H67v-.3l-.1-.3-.1-.2-.3-.1h-.4l-.3.1-.3.3-.3.5v.3l.1.4.3.3.3.1h.4l.3-.1.3-.3m1-.9h2.7m2.5-.2l-.2-.3-.4-.1h-.4l-.4.1-.1.3.1.3.3.1.7.2.3.1.2.3v.2l-.2.3-.4.1h-.4l-.4-.1-.1-.3m2.9-2.7v2.5l.1.4.3.1h.3m-1.2-2h1m1.9 0l-.3.1-.3.3-.2.4v.3l.2.4.3.3.3.1h.4l.3-.1.3-.3.1-.4v-.3l-.1-.4-.3-.3-.3-.1H77m2.1 0v3.1m0-2.6l.3-.3.3-.1h.4l.3.1.3.3.2.4v.3l-.2.4-.3.3-.3.1h-.4l-.3-.1-.3-.3" id="path113" fill="none" stroke="#fff" stroke-width=".6"/>
  </g>
  <g id="gge944_3" transform="matrix(2.69711 0 0 2.6987 .02 0)">
    <path class="st4" d="M169.3 25.6l-.3.3-.2.4v.6l.2.4.3.3h.3l.3-.1.2-.2.1-.3.3-.9.2-.3.1-.2.3-.1h.4l.3.3.2.4v.6l-.2.4-.3.3m-2.6-2.8h3.1m-3.1 0v-1.3l.2-.4.1-.1.3-.2h.4l.3.2.2.1.1.4v1.3m-1.6-3.1h3.1" id="path116" fill="none" stroke="#fff" stroke-width=".6"/>
  </g>
  <g id="gge953_3" transform="matrix(2.69711 0 0 2.6987 .02 0)">
    <path class="st4" d="M25.2 121.7h-3.1m3.1 0v1.3l-.1.4-.1.2-.3.1h-.4l-.3-.1-.1-.2-.2-.4v-1.3m1.5 3l-.1.2.1.1.2-.1-.2-.2m-1.1.1H22m1.4 1.2v2.6m1.8 1.9l-.1-.3-.3-.3-.3-.1-.4-.2h-.7l-.4.2-.3.1-.3.3-.1.3v.6l.1.3.3.3.3.1.4.2h.7l.4-.2.3-.1.3-.3.1-.3v-.6m0 2.4h-3.1m3.1 0l-3.1 2.1m3.1 0h-3.1" id="path119" fill="none" stroke="#fff" stroke-width=".6"/>
  </g>
  <g id="gge977_3" transform="matrix(2.69711 0 0 2.6987 .02 0)">
    <path class="st4" d="M168.8 117.1h3.1m-2.3-1.1h-.2l-.3-.2-.1-.1-.1-.3v-.6l.1-.3.1-.1.3-.2h.3l.3.2.4.3 1.5 1.5v-2.1m-2.3-3.2l-.3.1-.3.3-.1.3v.6l.1.3.3.3.3.1.4.2h.7l.4-.2.3-.1.3-.3.1-.3v-.6l-.1-.3-.3-.3-.3-.1" id="path125" fill="none" stroke="#fff" stroke-width=".6"/>
  </g>
  <g id="gge992_3" transform="matrix(2.69711 0 0 2.6987 .02 0)">
    <path class="st4" d="M170 72.3l-.3.2-.3.3-.1.3v.5l.1.3.3.3.3.2.4.1h.7l.4-.1.3-.2.3-.3.1-.3V73l-.1-.3-.3-.3-.3-.2h-.4m0 .8v-.7m-1.9-1h3.1m-3.1 0V70l.1-.4.1-.2.3-.1h.4l.3.1.3.2.2.4v1.3m-1.2-5.1l-.3.3-.1.4v.7l.1.4.3.3h.3l.3-.2.1-.1.2-.3.3-.9.1-.3.1-.1.3-.2h.4l.3.3.1.4v.7l-.1.4-.3.3" id="path128" fill="none" stroke="#fff" stroke-width=".6"/>
  </g>
  <g id="gge1004_3" transform="matrix(2.69711 0 0 2.6987 .02 0)">
    <path class="st4" d="M146.6 125.7l-.2-.3-.3-.3-.3-.1h-.6l-.3.1-.3.3-.2.3-.1.4v.7l.1.4.2.3.3.3.3.1h.6l.3-.1.3-.3.2-.3v-.4m-.8 0h.7m1-1.9v3.1m0-3.1h1.3l.4.1.2.1.1.3v.3l-.1.3-.2.2-.4.1h-1.3m1.1.1l1 1.6m1.9-3.1l-.3.1-.3.3-.1.3-.2.4v.7l.2.4.1.3.3.3.3.1h.6l.3-.1.3-.3.1-.3.1-.4v-.7l-.1-.4-.1-.3-.3-.3-.3-.1h-.6m2.4 0l1.2 3.1m1.2-3.1l-1.2 3.1m2.1-3.1v3.1m0-3.1h1.9m-1.9 1.5h1.2m-1.2 1.6h1.9" id="path131" fill="none" stroke="#fff" stroke-width=".6"/>
  </g>
  <g id="gge1012_3" transform="matrix(2.69711 0 0 2.6987 .02 0)">
    <path class="st4" d="M42.5 36.4v3.1m0-3.1h1.3l.4.1.2.1.1.3v.4l-.1.3-.2.1-.4.2h-1.3m3-1.5l.2.1.1-.1-.1-.2-.2.2m.2 1v2.1m1.1-1.4h2.6m2.6-.2l-.1-.3-.4-.1h-.4l-.6.1-.2.3.2.3.3.1.7.2.3.1.1.3v.2l-.1.3-.4.1H51l-.4-.1-.2-.3m2.6-.8h1.8V38l-.2-.3-.1-.1-.3-.1h-.5l-.3.1-.3.3-.1.4v.3l.2.4.3.3.3.1h.4l.3-.1.3-.3m.9-1.6v2.1m0-1.2l.1-.4.3-.3.3-.1h.4m1.1-1.1v0h.2l-.1-.2-.1.2m.1 1v2.1m2.9-2.1v2.1m0-1.6l-.3-.3-.3-.1h-.4l-.3.1-.3.3-.2.4v.3l.2.4.3.3.3.1h.4l.3-.1.3-.3m1-2.6v3.1" id="path134" fill="none" stroke="#fff" stroke-width=".6"/>
  </g>
  <g id="gge1056_3" transform="matrix(2.69711 0 0 2.6987 .02 0)">
    <path class="st4" d="M52.6 60.4v3.1m0-.1h1.8m2.7-3h-1.5l-.1 1.3.1-.1.4-.2h.4l.4.2.3.3.2.4v.3l-.2.4-.3.3-.4.2H56l-.4-.2-.1-.1-.2-.3" id="path146" fill="none" stroke="#fff" stroke-width=".6"/>
  </g>
  <g id="gge1076_3" transform="matrix(2.69711 0 0 2.6987 .02 0)">
    <path class="st4" d="M48.9 114.3h-3.1m3.1 0v1.3l-.1.4-.1.2-.3.1h-.3l-.3-.1-.2-.2-.1-.4v-1.3m0 1l-1.6 1m2.3 1.2h.2l.3.1.1.2.1.3v.6l-.1.3-.1.2-.3.1h-.3l-.3-.1-.4-.3-1.5-1.5v2.1m3 1.7l-.1-.4-.4-.3-.7-.1h-.4l-.7.1-.4.3-.1.4v.3l.1.4.4.3.7.2h.4l.7-.2.4-.3.1-.4v-.3" id="path149" fill="none" stroke="#fff" stroke-width=".6"/>
  </g>
  <path id="gge596_3" class="st5" fill="none" stroke="#fff" stroke-width="2.158" stroke-linecap="round" d="M319.088 429.904h-34.254"/>
  <path id="gge597_3" class="st5" transform="matrix(2.69711 0 0 2.6987 .02 0)" fill="none" stroke="#fff" stroke-width=".8" stroke-linecap="round" d="M100.6 149.4v-11.3h2.4v7.1h4"/>
  <path id="gge598_3" class="st5" transform="matrix(2.69711 0 0 2.6987 .02 0)" fill="none" stroke="#fff" stroke-width=".8" stroke-linecap="round" d="M116.9 145.2h4v-7.1h2.4v11.3"/>
  <path id="gge694_3" class="st6" fill="none" stroke="#fff" stroke-width="2.698" stroke-linecap="round" d="M134.605 430.444h63.922"/>
  <path id="gge703_3" class="st6" fill="none" stroke="#fff" stroke-width="2.698" stroke-linecap="round" d="M199.606 430.444h63.921"/>
  <path id="gge714_3" class="st6" transform="matrix(2.69711 0 0 2.6987 .02 0)" fill="none" stroke="#fff" stroke-linecap="round" d="M113.6 122.8v2.8h0l1.4-1.4h0l-1.4-1.4"/>
  <path id="gge731_3" class="st6" fill="none" stroke="#fff" stroke-width="2.698" stroke-linecap="round" d="M1.368 360.277H8.92"/>
  <path id="gge732_3" class="st6" fill="none" stroke="#fff" stroke-width="2.698" stroke-linecap="round" d="M1.368 337.338v22.939"/>
  <path id="gge733_3" class="st6" fill="none" stroke="#fff" stroke-width="2.698" stroke-linecap="round" d="M8.92 337.338H1.368"/>
  <path id="gge734_3" class="st6" fill="none" stroke="#fff" stroke-width="2.698" stroke-linecap="round" d="M8.92 377.819v-58.022"/>
  <path id="gge745_3" class="st6" transform="matrix(2.69711 0 0 2.6987 .02 0)" fill="none" stroke="#fff" stroke-linecap="round" d="M154.4 113v4.3h-7.2V113h7.2"/>
  <path id="gge746_3" class="st6" fill="none" stroke="#fff" stroke-width="2.698" stroke-linecap="round" d="M383.818 324.924v-28.336"/>
  <path id="gge747_3" class="st6" fill="none" stroke="#fff" stroke-width="2.698" stroke-linecap="round" d="M383.818 296.588h45.851"/>
  <path id="gge748_3" class="st6" fill="none" stroke="#fff" stroke-width="2.698" stroke-linecap="round" d="M429.669 324.924h-45.851"/>
  <path id="gge749_3" class="st6" fill="none" stroke="#fff" stroke-width="2.698" stroke-linecap="round" d="M429.669 296.588v28.336"/>
  <path id="gge767_3" class="st6" fill="none" stroke="#fff" stroke-width="2.698" stroke-linecap="round" d="M118.962 429.904H57.738"/>
  <path id="gge768_3" class="st6" fill="none" stroke="#fff" stroke-width="2.698" stroke-linecap="round" d="M114.377 424.506H62.593"/>
  <path id="gge769_3" class="st6" transform="matrix(2.69711 0 0 2.6987 .02 0)" fill="none" stroke="#fff" stroke-linecap="round" d="M44 159.3v-.3l-1.6-1.7"/>
  <path id="gge770_3" class="st6" transform="matrix(2.69711 0 0 2.6987 .02 0)" fill="none" stroke="#fff" stroke-linecap="round" d="M21.5 159.3v-.3l1.7-1.7"/>
  <path id="gge784_3" class="st6" transform="matrix(2.69711 0 0 2.6987 .02 0)" fill="none" stroke="#fff" stroke-linecap="round" d="M33.4 129.6v-2.9h0l-1.4 1.4h0l1.4 1.5"/>
  <path id="gge881_3" class="st6" transform="matrix(1.87272 0 0 1.25237 123.395 127.342)" fill="none" stroke="#fff" stroke-linecap="round" d="M151.1 87.4v-2.8h0l-1.4 1.4h0l1.4 1.4"/>
  <path id="gge899_3" class="st6" fill="none" stroke="#fff" stroke-width="2.698" stroke-linecap="round" d="M185.581 323.575l2.967 7.556"/>
  <path id="gge900_3" class="st6" fill="none" stroke="#fff" stroke-width="2.698" stroke-linecap="round" d="M188.548 331.131h-6.204"/>
  <path id="gge901_3" class="st6" fill="none" stroke="#fff" stroke-width="2.698" stroke-linecap="round" d="M182.344 331.131l3.237-7.556"/>
  <path id="gge902_3" class="st6" fill="none" stroke="#fff" stroke-width="2.698" stroke-linecap="round" d="M179.377 337.608v-20.51"/>
  <path id="gge903_3" class="st6" fill="none" stroke="#fff" stroke-width="2.698" stroke-linecap="round" d="M179.377 317.098h12.407"/>
  <path id="gge904_3" class="st6" fill="none" stroke="#fff" stroke-width="2.698" stroke-linecap="round" d="M191.784 317.098v20.51"/>
  <path id="gge905_3" class="st6" fill="none" stroke="#fff" stroke-width="2.698" stroke-linecap="round" d="M191.784 337.608h-12.407"/>
  <path id="gge906_3" class="st6" fill="none" stroke="#fff" stroke-width="2.698" stroke-linecap="round" d="M181.535 322.495h7.822"/>
  <path id="gge912_3" class="st6" fill="none" stroke="#fff" stroke-width="2.698" stroke-linecap="round" d="M164.004 323.575l3.236 7.556"/>
  <path id="gge913_3" class="st6" fill="none" stroke="#fff" stroke-width="2.698" stroke-linecap="round" d="M167.24 331.131h-6.203"/>
  <path id="gge914_3" class="st6" fill="none" stroke="#fff" stroke-width="2.698" stroke-linecap="round" d="M161.037 331.131l2.967-7.556"/>
  <path id="gge915_3" class="st6" fill="none" stroke="#fff" stroke-width="2.698" stroke-linecap="round" d="M157.801 337.608v-20.51"/>
  <path id="gge916_3" class="st6" fill="none" stroke="#fff" stroke-width="2.698" stroke-linecap="round" d="M157.801 317.098h12.406"/>
  <path id="gge917_3" class="st6" fill="none" stroke="#fff" stroke-width="2.698" stroke-linecap="round" d="M170.207 317.098v20.51"/>
  <path id="gge918_3" class="st6" fill="none" stroke="#fff" stroke-width="2.698" stroke-linecap="round" d="M170.207 337.608h-12.406"/>
  <path id="gge919_3" class="st6" fill="none" stroke="#fff" stroke-width="2.698" stroke-linecap="round" d="M160.228 322.495h7.822"/>
  <path id="gge925_3" class="st6" fill="none" stroke="#fff" stroke-width="2.698" stroke-linecap="round" d="M206.888 323.575l2.967 7.556"/>
  <path id="gge926_3" class="st6" fill="none" stroke="#fff" stroke-width="2.698" stroke-linecap="round" d="M209.855 331.131h-6.204"/>
  <path id="gge927_3" class="st6" fill="none" stroke="#fff" stroke-width="2.698" stroke-linecap="round" d="M203.651 331.131l3.237-7.556"/>
  <path id="gge928_3" class="st6" fill="none" stroke="#fff" stroke-width="2.698" stroke-linecap="round" d="M200.685 337.608v-20.51"/>
  <path id="gge929_3" class="st6" fill="none" stroke="#fff" stroke-width="2.698" stroke-linecap="round" d="M200.685 317.098h12.406"/>
  <path id="gge930_3" class="st6" fill="none" stroke="#fff" stroke-width="2.698" stroke-linecap="round" d="M213.091 317.098v20.51"/>
  <path id="gge931_3" class="st6" fill="none" stroke="#fff" stroke-width="2.698" stroke-linecap="round" d="M213.091 337.608h-12.406"/>
  <path id="gge932_3" class="st6" fill="none" stroke="#fff" stroke-width="2.698" stroke-linecap="round" d="M202.842 322.495h7.822"/>
  <path id="gge956_3" class="st6" transform="matrix(2.69711 0 0 2.6987 .02 0)" fill="none" stroke="#fff" stroke-linecap="round" d="M19.1 128.2h-2.9 0l1.4 1.5h0l1.5-1.5"/>
  <path id="gge980_3" class="st6" fill="none" stroke="#fff" stroke-width="2.698" stroke-linecap="round" d="M470.126 313.59v51.005"/>
  <path id="gge1078_3" class="st7" fill="none" stroke="#fff" stroke-width="1.349" stroke-linecap="round" d="M115.456 304.954h23.465"/>
  <path id="gge1079_3" class="st7" fill="none" stroke="#fff" stroke-width="1.349" stroke-linecap="round" d="M115.456 338.148h23.465"/>
  <path id="gge1080_3" class="st7" fill="none" stroke="#fff" stroke-width="1.349" stroke-linecap="round" d="M115.456 345.704v-48.577"/>
  <path id="gge1081_3" class="st7" fill="none" stroke="#fff" stroke-width="1.349" stroke-linecap="round" d="M115.456 297.127h23.465"/>
  <path id="gge1082_3" class="st7" fill="none" stroke="#fff" stroke-width="1.349" stroke-linecap="round" d="M138.921 297.127v48.577"/>
  <path id="gge1083_3" class="st7" fill="none" stroke="#fff" stroke-width="1.349" stroke-linecap="round" d="M138.921 345.704h-23.465"/>
  <path id="gge271" class="st1" d="M339.316 85.819c-3.776 1.08-6.203 5.127-5.124 8.636 1.079 3.508 4.045 5.397 7.552 5.127 3.506-.27 5.933-2.698 6.203-6.207.54-4.857-3.776-8.906-8.63-7.556M317.47 96.344c-4.586 1.619-6.743 5.127-6.743 10.525 0 4.318 2.157 9.715 5.394 13.223.81 1.08 1.618 1.89 1.618 1.89l-1.618 1.619c-2.427 2.159-5.664 6.746-7.012 9.445-3.776 7.826-2.428 15.653 3.236 18.082 1.618.54 5.664.54 8.091 0 2.698-.81 8.361-3.779 12.407-6.477 8.091-5.398 9.44-5.398 17.262-.27 10.249 6.747 16.991 8.636 21.576 6.207 3.507-1.89 5.395-6.207 4.586-11.065-1.08-5.397-3.507-9.985-8.092-14.843l-2.967-2.968.81-.81c1.348-1.08 3.236-3.778 4.315-6.207 3.776-7.826 2.427-15.383-3.506-18.351-1.349-.54-2.158-.81-5.395-.81-4.585 0-6.203.54-10.249 3.508-4.315 3.239-5.933 4.049-9.44 4.049-3.775 0-5.663-.81-9.44-3.779-2.427-1.619-4.045-2.698-5.663-3.238-2.967-.54-7.013-.54-9.17.27m10.249 11.874c2.157 1.35 2.427 1.62 1.078 4.048-.539 1.08-1.618 2.699-2.697 3.778l-1.618 1.62-1.079-1.08c-1.618-1.35-2.427-3.508-2.697-5.667 0-3.509 2.967-4.858 7.013-2.699m32.365-.54c1.618.54 1.888 1.62 1.888 3.509 0 1.619-1.349 4.587-2.697 5.937l-.81.81-1.078-1.08c-1.349-1.08-3.237-4.048-4.046-5.937-.27-1.08-.27-1.08 1.079-2.16 1.079-.809 2.967-1.618 4.046-1.618.27 0 .809.27 1.618.54m-13.216 14.033c2.158.54 5.664 1.889 5.664 2.159 0 .27-1.079.81-2.427 1.619-6.743 3.778-11.328 3.508-17.262-.27-2.158-1.35-2.158-1.62-1.618-1.89.809-.539 3.776-1.348 6.473-1.888 2.158-.54 6.743-.27 9.17.27m-19.42 9.175c2.428 2.969 2.428 4.858-.808 7.557-2.967 2.428-5.664 3.508-7.552 2.698-1.349-.54-2.158-1.889-2.158-3.508 0-1.35 2.967-5.667 5.125-8.096l1.618-1.62 1.079.81c.809.27 1.888 1.35 2.697 2.16m33.444-1.08c1.888 2.159 4.585 6.207 5.125 7.286 0 .54 0 1.35-.27 2.16-.81 1.888-2.697 2.698-5.125 2.158-3.236-.81-7.821-4.588-7.821-6.207 0-1.35 1.079-2.699 3.506-5.127 1.349-1.35 2.427-2.16 2.697-2.16s.81.81 1.888 1.89m-65 35.623v7.016h1.079c1.078 0 1.078 0 1.078-2.429 0-2.158.27-2.428.81-2.698.539 0 1.078.54 2.427 2.429 1.618 2.428 1.618 2.698 3.236 2.698h1.619l-1.619-2.429c-1.348-1.889-1.618-2.428-1.078-2.698 1.078-.27 2.427-2.16 2.697-3.509.27-1.889-.81-3.778-2.428-4.587-.809-.54-2.157-.54-4.585-.54h-3.236v6.747m16.722-6.477c-2.967.81-4.855 3.238-4.855 6.747 0 4.048 2.697 6.746 6.743 6.746 2.427 0 3.776-.81 5.394-2.698.81-1.35 1.079-1.62 1.079-4.048 0-2.43 0-2.7-1.079-4.049-1.888-2.698-4.585-3.508-7.282-2.698m9.98 6.477v7.016h3.775c3.776 0 3.776 0 4.855-1.08.809-.809 1.079-1.349 1.079-2.698 0-.81-.27-1.889-.54-2.429-.54-.54-.54-1.08-.27-1.619 1.08-2.159 0-4.588-1.887-5.397-.81-.27-2.428-.54-4.046-.54h-2.967v6.747m15.643-6.477c-3.506 1.35-5.394 4.588-4.585 8.096.81 3.238 3.237 5.127 6.743 5.127 1.888 0 2.427-.27 3.776-1.08 2.697-1.888 3.776-5.396 2.158-8.635-1.349-2.968-5.125-4.588-8.092-3.508m9.71-.27c-.27.27-.27.81-.27 1.35 0 1.079 0 1.079 1.888 1.079h1.888v11.334h2.697v-11.334h4.316v-2.16h-5.125c-2.697-.539-5.124-.539-5.394-.27m12.137 6.748v7.016h2.158v-14.033h-2.158v7.017m8.63-6.477c-4.854 1.889-6.203 7.556-2.696 11.334.539.54 1.348 1.08 1.888 1.35 1.888 1.08 6.742.54 6.742-.81 0-.27-.27-.81-.54-1.08-.539-.54-.539-.54-1.887-.27-1.888.54-3.237.27-4.585-1.349-2.967-3.508.54-8.635 4.855-7.016 1.078.27 1.078.27 1.618-.27.809-1.08.54-1.62-.27-1.89a8.311 8.311 0 00-5.124 0m10.518-.27c-1.888.81-3.236 3.24-2.427 5.398.54 1.89 2.158 2.699 4.855 2.699 1.618 0 2.427.27 2.697.54 1.348 1.35.27 2.698-2.427 2.698-1.619 0-2.158 0-2.698-.81-.539-.539-.809-.809-1.888-.809-1.348 0-1.348 0-.809 1.62.81 1.889 1.888 2.428 5.125 2.428 3.506 0 4.315-.27 4.855-1.889.809-1.35.809-2.699 0-4.048-.81-1.35-1.619-1.889-4.316-1.889-1.888 0-2.427-.27-3.236-.81-.81-.81-.81-1.619 0-2.428 1.348-1.08 5.124-.54 5.124.81 0 .27.54.27 1.349.27 1.348 0 1.618-.27.54-2.16-.27-.81-1.08-1.35-1.889-1.889-.54 0-3.776 0-4.855.27m-76.058 2.968c1.618 1.62.27 3.239-2.967 3.239h-2.158v-3.778h2.158c1.618 0 2.158 0 2.967.54m13.216 0c2.967 1.889 2.967 6.476-.27 8.096-3.237 1.619-6.743-1.62-5.934-4.858.81-3.239 3.776-4.858 6.204-3.239m12.946.54c.54 1.35-.81 2.43-2.967 2.43h-1.618v-3.24h2.157c1.888-.27 2.158-.27 2.428.81m14.025.27c1.079 1.08 1.079 1.62 1.079 2.969 0 1.349-.27 1.889-1.08 2.968-2.427 2.43-5.933 1.89-7.281-1.35-.54-1.348-.54-1.618 0-2.968 1.348-3.238 4.854-4.048 7.282-1.619m-13.755 4.858c.27.27.539.81.539 1.08 0 1.349-.81 1.618-2.967 1.618h-2.158v-3.238h2.158c1.079 0 2.158.27 2.428.54m-22.656 11.874s-.27 2.699-.27 5.397v5.128h2.158v-3.238c0-1.89.27-3.239.27-3.239s.809.54 1.618 1.35 1.348 1.349 1.618 1.349 1.079-.81 1.888-1.62l1.618-1.619v3.509c0 3.508 0 3.508.81 3.508h.809v-5.397c0-4.048 0-5.398-.54-5.398-.27 0-1.348 1.08-2.697 2.16l-2.158 2.158-2.157-2.159c-1.888-2.159-2.428-2.429-2.967-1.889m16.722 0c-.27.27-1.079 2.699-2.427 5.397l-2.158 5.128h1.079c1.079 0 1.348-.27 1.618-1.08.27-1.079.54-1.079 2.427-1.079 1.888 0 2.158 0 2.428 1.08.27.81.54 1.079 1.348 1.079.54 0 1.08 0 1.08-.27s-1.08-2.699-2.159-5.397c-1.888-4.588-2.697-5.937-3.236-4.858m7.822 0c-1.888 1.08-2.158 3.778-.81 5.128.81.81 1.349.81 3.237.81 1.618 0 2.158 0 2.427.539.54 1.08-.54 1.89-2.157 1.89-1.349 0-1.888 0-2.158-.54s-.81-.81-1.349-.81c-1.078 0-1.078 1.35 0 2.429.81.81 1.349.81 3.237.81 2.158 0 2.427 0 3.506-1.08 1.079-1.08 1.349-2.16.54-3.779-.54-1.349-1.08-1.349-3.507-1.349-2.157 0-3.236-.54-2.697-1.889.27-.54.54-.81 2.158-.81 1.349 0 1.888.27 1.888.54s.54.54 1.348.54c.81 0 1.08 0 .81-.54 0-.27-.27-.81-.27-.81 0-.27-.54-.54-1.079-1.079-1.079-.54-3.776-.54-5.124 0m8.09.81c0 1.08 0 1.08 1.62 1.08h1.617v8.635h1.619v-8.636h1.618c1.618 0 1.618 0 1.618-1.08v-1.079h-8.091v1.08m10.249-.81c-.27.27-.27 2.699-.27 5.397v5.128h7.013v-.81c0-.81 0-.81-2.428-.81h-2.427v-2.968h2.158c1.888 0 2.157-.27 2.157-1.08 0-1.079 0-1.079-2.157-1.079-2.158 0-2.158 0-2.158-.81 0-.809 0-.809 2.427-1.079 2.428 0 2.428-.27 2.428-1.08 0-.809 0-.809-3.237-1.079-1.618 0-3.236 0-3.506.27m8.63 5.128v5.397h.81c.809 0 .809 0 .809-1.89 0-1.618 0-1.888.81-1.888.538 0 1.078.81 1.887 1.889 1.079 1.62 1.618 1.889 2.427 1.889.54 0 1.08 0 1.08-.27s-.54-1.08-1.08-1.889l-1.078-1.62 1.078-1.079c.81-.81 1.08-1.349 1.08-2.698 0-1.35-.27-1.89-.81-2.43-.809-.809-1.348-.809-4.046-1.079h-2.966v5.668m10.788-4.858c-1.888 1.08-2.427 3.508-.809 4.858.81.81 1.349 1.08 2.967 1.08 1.348 0 2.157.269 2.427.539.81 1.08 0 1.889-1.888 1.889-1.348 0-1.888 0-2.157-.54-.54-.81-2.428-1.08-2.428-.27 0 .27.54 1.08 1.079 1.62 1.079 1.079 1.349 1.079 3.506 1.079 2.967 0 4.316-.81 4.316-3.238 0-2.16-1.08-2.969-3.776-2.969-2.158 0-2.967-.54-2.697-1.62.27-.809 3.775-1.079 4.045-.27.27.81 1.888.81 1.888 0 0-1.079-.54-1.618-1.348-2.158-1.349-.81-3.776-.81-5.125 0m-5.124 1.889c1.078 1.08 0 2.429-2.428 2.429h-1.618v-2.699h1.618c1.079 0 2.158 0 2.428.27m-39.109 3.508c.27.81.27 1.08-.809 1.08-1.078 0-1.348-.54-.54-1.89.54-1.079 1.08-.809 1.35.81" fill="#fff" stroke-width="2.698"/>
  <path id="GND_LIPO" transform="matrix(2.69711 0 0 2.6987 .02 0)" d="M113.5 146.8v-13.1h2.8v13.1z"/>
  <path id="LIPO+" class="st8" transform="matrix(2.69711 0 0 2.6987 .02 0)" fill="#d42328" d="M107.8 146.8v-13.1h2.8v13.1z"/>
  <path class="st9" id="polygon322" transform="matrix(2.69711 0 0 2.6987 .02 0)" fill="#dbab27" d="M37.1 146.3h-1.2v-5.6h1.2z"/>
  <path class="st9" id="polygon324" transform="matrix(2.69711 0 0 2.6987 .02 0)" fill="#dbab27" d="M35.3 146.3H34v-5.6h1.3z"/>
  <path class="st9" id="polygon326" transform="matrix(2.69711 0 0 2.6987 .02 0)" fill="#dbab27" d="M33.5 146.3h-1.3v-5.6h1.3z"/>
  <path class="st9" id="polygon328" transform="matrix(2.69711 0 0 2.6987 .02 0)" fill="#dbab27" d="M31.6 146.3h-1.3v-5.6h1.3z"/>
  <path class="st9" id="polygon330" transform="matrix(2.69711 0 0 2.6987 .02 0)" fill="#dbab27" d="M29.8 146.3h-1.3v-5.6h1.3z"/>
  <path id="A5" class="st9" transform="matrix(2.69711 0 0 2.6987 .02 58)" fill="#dbab27" d="M161.2 130.5v7.7h-2.8v-7.7z"/>
  <path id="A4" class="st9" transform="matrix(2.69711 0 0 2.6987 .02 58)" fill="#dbab27" d="M155.5 130.5v7.7h-2.8v-7.7z"/>
  <path id="5V_GROVE" class="st8" transform="matrix(2.69711 0 0 2.6987 .02 58)" fill="#d42328" d="M149.9 130.5v7.7h-2.8v-7.7z"/>
  <path id="GND_GROVE" transform="matrix(2.69711 0 0 2.6987 .02 58)" d="M144.2 130.5v7.7h-2.8v-7.7z"/>
  <path id="MOSI" class="st9" transform="matrix(2.69711 0 0 2.6987 28.02 0)" fill="#dbab27" d="M174.6 42.4h-5.7v-2h5.7z"/>
  <path id="MISO" class="st9" transform="matrix(2.69711 0 0 2.6987 28.02 0)" fill="#dbab27" d="M174.6 46h-5.7v-2h5.7z"/>
  <path id="GND_SPI" transform="matrix(2.69711 0 0 2.6987 28.02 0)" d="M174.6 31.7h-5.7v-2h5.7z"/>
  <path id="NC" class="st9" transform="matrix(2.69711 0 0 2.6987 28.02 0)" fill="#dbab27" d="M174.6 35.2h-5.7v-2h5.7z"/>
  <path id="D12" class="st9" transform="matrix(2.69711 0 0 2.6987 28.02 0)" fill="#dbab27" d="M174.6 38.9h-5.7v-2h5.7z"/>
  <path id="SCK" class="st9" transform="matrix(2.69711 0 0 2.6987 28.02 0)" fill="#dbab27" d="M174.6 49.5h-5.7v-2h5.7z"/>
  <path id="5V_SPI" class="st8" transform="matrix(2.69711 0 0 2.6987 28.02 0)" fill="#d42328" d="M168.9 51.1h5.7v2h-5.7z"/>
  <path id="5V_I2C" class="st8" transform="matrix(2.69711 0 0 2.6987 28.02 0)" fill="#d42328" d="M168.9 130h5.7v2h-5.7z"/>
  <path id="GND_I2C" transform="matrix(2.69711 0 0 2.6987 28.02 0)" d="M174.6 121.2h-5.7v-1.9h5.7z"/>
  <path id="SDA" class="st9" transform="matrix(2.69711 0 0 2.6987 28.02 0)" fill="#dbab27" d="M174.6 124.8h-5.7v-2h5.7z"/>
  <path id="SCL" class="st9" transform="matrix(2.69711 0 0 2.6987 28.02 0)" fill="#dbab27" d="M174.6 128.4h-5.7v-2h5.7z"/>
  <path id="RX" class="st9" transform="matrix(2.69711 0 0 2.6987 28.02 0)" fill="#dbab27" d="M174.6 88.8h-5.7v-1.9h5.7z"/>
  <path id="TX" class="st9" transform="matrix(2.69711 0 0 2.6987 28.02 0)" fill="#dbab27" d="M174.6 92.4h-5.7v-2h5.7z"/>
  <path id="GND_GPS" transform="matrix(2.69711 0 0 2.6987 28.02 0)" d="M174.6 78.1h-5.7v-2h5.7z"/>
  <path id="D10" class="st9" transform="matrix(2.69711 0 0 2.6987 28.02 0)" fill="#dbab27" d="M174.6 81.6h-5.7v-1.9h5.7z"/>
  <path id="D11" class="st9" transform="matrix(2.69711 0 0 2.6987 28.02 0)" fill="#dbab27" d="M174.6 85.3h-5.7v-2h5.7z"/>
  <path id="5V_GPS" class="st8" transform="matrix(2.69711 0 0 2.6987 28.02 0)" fill="#d42328" d="M174.6 95.9h-5.7v-2h5.7z"/>
  <ellipse id="GND_RCC4" class="st10" cx="14.854" cy="124.41" rx="6.743" ry="6.747" fill="none" stroke="#010101" stroke-width="2.698" stroke-miterlimit="10"/>
  <ellipse id="5V_RCC4" class="st11" cx="34.273" cy="124.41" rx="6.743" ry="6.747" fill="none" stroke="#d42328" stroke-width="2.698" stroke-miterlimit="10"/>
  <ellipse id="A3" class="st12" cx="53.692" cy="124.41" rx="6.743" ry="6.747" fill="none" stroke="#febf10" stroke-width="2.698" stroke-miterlimit="10"/>
  <ellipse id="GND_RCC3" class="st10" cx="14.854" cy="104.98" rx="6.743" ry="6.747" fill="none" stroke="#010101" stroke-width="2.698" stroke-miterlimit="10"/>
  <ellipse id="5V_RCC3" class="st11" cx="34.273" cy="104.98" rx="6.743" ry="6.747" fill="none" stroke="#d42328" stroke-width="2.698" stroke-miterlimit="10"/>
  <ellipse id="A2" class="st12" cx="53.692" cy="104.98" rx="6.743" ry="6.747" fill="none" stroke="#febf10" stroke-width="2.698" stroke-miterlimit="10"/>
  <ellipse id="GND_RCC2" class="st10" cx="14.854" cy="85.549" rx="6.743" ry="6.747" fill="none" stroke="#010101" stroke-width="2.698" stroke-miterlimit="10"/>
  <ellipse id="5V_RCC2" class="st11" cx="34.273" cy="85.549" rx="6.743" ry="6.747" fill="none" stroke="#d42328" stroke-width="2.698" stroke-miterlimit="10"/>
  <ellipse id="A1" class="st12" cx="53.692" cy="85.549" rx="6.743" ry="6.747" fill="none" stroke="#febf10" stroke-width="2.698" stroke-miterlimit="10"/>
  <ellipse id="GND_RCC1" class="st10" cx="14.854" cy="66.118" rx="6.743" ry="6.747" fill="none" stroke="#010101" stroke-width="2.698" stroke-miterlimit="10"/>
  <ellipse id="5V_RCC1" class="st11" cx="34.273" cy="66.118" rx="6.743" ry="6.747" fill="none" stroke="#d42328" stroke-width="2.698" stroke-miterlimit="10"/>
  <ellipse id="A0" class="st12" cx="53.692" cy="66.118" rx="6.743" ry="6.747" fill="none" stroke="#febf10" stroke-width="2.698" stroke-miterlimit="10"/>
  <ellipse id="GND_S1" class="st10" cx="14.854" cy="163.272" rx="6.743" ry="6.747" fill="none" stroke="#010101" stroke-width="2.698" stroke-miterlimit="10"/>
  <ellipse id="5V_S1" class="st11" cx="34.273" cy="163.272" rx="6.743" ry="6.747" fill="none" stroke="#d42328" stroke-width="2.698" stroke-miterlimit="10"/>
  <ellipse id="D0" class="st12" cx="53.692" cy="163.272" rx="6.743" ry="6.747" fill="none" stroke="#febf10" stroke-width="2.698" stroke-miterlimit="10"/>
  <ellipse id="GND_S2" class="st10" cx="14.854" cy="182.702" rx="6.743" ry="6.747" fill="none" stroke="#010101" stroke-width="2.698" stroke-miterlimit="10"/>
  <ellipse id="5V_S2" class="st11" cx="34.273" cy="182.702" rx="6.743" ry="6.747" fill="none" stroke="#d42328" stroke-width="2.698" stroke-miterlimit="10"/>
  <ellipse id="D1" class="st12" cx="53.692" cy="182.702" rx="6.743" ry="6.747" fill="none" stroke="#febf10" stroke-width="2.698" stroke-miterlimit="10"/>
  <ellipse id="GND_S3" class="st10" cx="14.854" cy="202.133" rx="6.743" ry="6.747" fill="none" stroke="#010101" stroke-width="2.698" stroke-miterlimit="10"/>
  <ellipse id="5V_S3" class="st11" cx="34.273" cy="202.133" rx="6.743" ry="6.747" fill="none" stroke="#d42328" stroke-width="2.698" stroke-miterlimit="10"/>
  <ellipse id="D2" class="st12" cx="53.692" cy="202.133" rx="6.743" ry="6.747" fill="none" stroke="#febf10" stroke-width="2.698" stroke-miterlimit="10"/>
  <ellipse id="GND_S4" class="st10" cx="14.854" cy="221.564" rx="6.743" ry="6.747" fill="none" stroke="#010101" stroke-width="2.698" stroke-miterlimit="10"/>
  <ellipse id="5V_S4" class="st11" cx="34.273" cy="221.564" rx="6.743" ry="6.747" fill="none" stroke="#d42328" stroke-width="2.698" stroke-miterlimit="10"/>
  <ellipse id="D3" class="st12" cx="53.692" cy="221.564" rx="6.743" ry="6.747" fill="none" stroke="#febf10" stroke-width="2.698" stroke-miterlimit="10"/>
  <ellipse id="GND_S5" class="st10" cx="14.854" cy="240.994" rx="6.743" ry="6.747" fill="none" stroke="#010101" stroke-width="2.698" stroke-miterlimit="10"/>
  <ellipse id="5V_S5" class="st11" cx="34.273" cy="240.994" rx="6.743" ry="6.747" fill="none" stroke="#d42328" stroke-width="2.698" stroke-miterlimit="10"/>
  <ellipse id="D4" class="st12" cx="53.692" cy="240.994" rx="6.743" ry="6.747" fill="none" stroke="#febf10" stroke-width="2.698" stroke-miterlimit="10"/>
  <ellipse id="GND_S6" class="st10" cx="14.854" cy="260.425" rx="6.743" ry="6.747" fill="none" stroke="#010101" stroke-width="2.698" stroke-miterlimit="10"/>
  <ellipse id="5V_S6" class="st11" cx="34.273" cy="260.425" rx="6.743" ry="6.747" fill="none" stroke="#d42328" stroke-width="2.698" stroke-miterlimit="10"/>
  <ellipse id="D5" class="st12" cx="53.692" cy="260.425" rx="6.743" ry="6.747" fill="none" stroke="#febf10" stroke-width="2.698" stroke-miterlimit="10"/>
  <ellipse id="GND_S7" class="st10" cx="14.854" cy="279.856" rx="6.743" ry="6.747" fill="none" stroke="#010101" stroke-width="2.698" stroke-miterlimit="10"/>
  <ellipse id="5V_S7" class="st11" cx="34.273" cy="279.856" rx="6.743" ry="6.747" fill="none" stroke="#d42328" stroke-width="2.698" stroke-miterlimit="10"/>
  <ellipse id="D6" class="st12" cx="53.692" cy="279.856" rx="6.743" ry="6.747" fill="none" stroke="#febf10" stroke-width="2.698" stroke-miterlimit="10"/>
  <ellipse id="GND_S8" class="st10" cx="14.854" cy="299.286" rx="6.743" ry="6.747" fill="none" stroke="#010101" stroke-width="2.698" stroke-miterlimit="10"/>
  <ellipse id="5V_S8" class="st11" cx="34.273" cy="299.286" rx="6.743" ry="6.747" fill="none" stroke="#d42328" stroke-width="2.698" stroke-miterlimit="10"/>
  <ellipse id="D7" class="st12" cx="53.692" cy="299.286" rx="6.743" ry="6.747" fill="none" stroke="#febf10" stroke-width="2.698" stroke-miterlimit="10"/>
  <ellipse id="ESTOPPIN1" class="st13" cx="207.158" cy="279.856" rx="7.552" ry="7.556" fill="none" stroke="#ed2224" stroke-width="2.698" stroke-miterlimit="10"/>
  <ellipse id="ESTOPPIN0" class="st13" cx="187.739" cy="279.856" rx="7.552" ry="7.556" fill="none" stroke="#ed2224" stroke-width="2.698" stroke-miterlimit="10"/>
  <circle id="NEOPIXEL" class="st12" cx="140.844" cy="125.327" fill="none" stroke="#febf10" stroke-width="2.997" stroke-miterlimit="10" r="6.593"/>
  <circle id="GND_NEO" class="st10" cx="160.264" cy="125.457" fill="none" stroke="#010101" stroke-width="2.997" stroke-miterlimit="10" r="6.593"/>
  <circle id="D9" class="st12" cx="121.425" cy="86.335" fill="none" stroke="#febf10" stroke-width="2.997" stroke-miterlimit="10" r="6.593"/>
  <circle id="D8" class="st12" cx="140.844" cy="86.596" fill="none" stroke="#febf10" stroke-width="2.997" stroke-miterlimit="10" r="6.593"/>
  <circle id="GND_PISERIAL" class="st10" cx="160.264" cy="86.466" fill="none" stroke="#010101" stroke-width="2.997" stroke-miterlimit="10" r="6.593"/>
  <circle id="5V_NEO" class="st11" cx="121.425" cy="125.457" fill="none" stroke="#d42328" stroke-width="2.997" stroke-miterlimit="10" r="6.593"/>
  <ellipse class="st14" cx="67.178" cy="39.401" rx="6.473" ry="6.477" id="ellipse397" fill="none" stroke="#dbab27" stroke-width="2.698" stroke-miterlimit="10"/>
  <ellipse class="st14" cx="67.178" cy="19.97" rx="6.473" ry="6.477" id="ellipse399" fill="none" stroke="#dbab27" stroke-width="2.698" stroke-miterlimit="10"/>
  <ellipse class="st14" cx="86.597" cy="39.401" rx="6.473" ry="6.477" id="ellipse401" fill="none" stroke="#dbab27" stroke-width="2.698" stroke-miterlimit="10"/>
  <ellipse class="st14" cx="86.597" cy="19.97" rx="6.473" ry="6.477" id="ellipse403" fill="none" stroke="#dbab27" stroke-width="2.698" stroke-miterlimit="10"/>
  <ellipse class="st14" cx="106.016" cy="39.401" rx="6.473" ry="6.477" id="ellipse405" fill="none" stroke="#dbab27" stroke-width="2.698" stroke-miterlimit="10"/>
  <ellipse class="st14" cx="106.016" cy="19.97" rx="6.473" ry="6.477" id="ellipse407" fill="none" stroke="#dbab27" stroke-width="2.698" stroke-miterlimit="10"/>
  <ellipse class="st14" cx="125.435" cy="39.401" rx="6.473" ry="6.477" id="ellipse409" fill="none" stroke="#dbab27" stroke-width="2.698" stroke-miterlimit="10"/>
  <ellipse class="st14" cx="125.435" cy="19.97" rx="6.473" ry="6.477" id="ellipse411" fill="none" stroke="#dbab27" stroke-width="2.698" stroke-miterlimit="10"/>
  <ellipse class="st14" cx="144.854" cy="39.401" rx="6.473" ry="6.477" id="ellipse413" fill="none" stroke="#dbab27" stroke-width="2.698" stroke-miterlimit="10"/>
  <ellipse class="st14" cx="144.854" cy="19.97" rx="6.473" ry="6.477" id="ellipse415" fill="none" stroke="#dbab27" stroke-width="2.698" stroke-miterlimit="10"/>
  <ellipse class="st14" cx="164.274" cy="39.401" rx="6.473" ry="6.477" id="ellipse417" fill="none" stroke="#dbab27" stroke-width="2.698" stroke-miterlimit="10"/>
  <ellipse class="st14" cx="164.274" cy="19.97" rx="6.473" ry="6.477" id="ellipse419" fill="none" stroke="#dbab27" stroke-width="2.698" stroke-miterlimit="10"/>
  <ellipse class="st14" cx="183.693" cy="39.401" rx="6.473" ry="6.477" id="ellipse421" fill="none" stroke="#dbab27" stroke-width="2.698" stroke-miterlimit="10"/>
  <ellipse class="st14" cx="183.693" cy="19.97" rx="6.473" ry="6.477" id="ellipse423" fill="none" stroke="#dbab27" stroke-width="2.698" stroke-miterlimit="10"/>
  <ellipse class="st14" cx="203.112" cy="39.401" rx="6.473" ry="6.477" id="ellipse425" fill="none" stroke="#dbab27" stroke-width="2.698" stroke-miterlimit="10"/>
  <ellipse class="st14" cx="203.112" cy="19.97" rx="6.473" ry="6.477" id="ellipse427" fill="none" stroke="#dbab27" stroke-width="2.698" stroke-miterlimit="10"/>
  <ellipse class="st14" cx="222.531" cy="39.401" rx="6.473" ry="6.477" id="ellipse429" fill="none" stroke="#dbab27" stroke-width="2.698" stroke-miterlimit="10"/>
  <ellipse class="st14" cx="222.531" cy="19.97" rx="6.473" ry="6.477" id="ellipse431" fill="none" stroke="#dbab27" stroke-width="2.698" stroke-miterlimit="10"/>
  <ellipse class="st14" cx="241.95" cy="39.401" rx="6.473" ry="6.477" id="ellipse433" fill="none" stroke="#dbab27" stroke-width="2.698" stroke-miterlimit="10"/>
  <ellipse class="st14" cx="241.95" cy="19.97" rx="6.473" ry="6.477" id="ellipse435" fill="none" stroke="#dbab27" stroke-width="2.698" stroke-miterlimit="10"/>
  <ellipse class="st14" cx="261.37" cy="39.401" rx="6.473" ry="6.477" id="ellipse437" fill="none" stroke="#dbab27" stroke-width="2.698" stroke-miterlimit="10"/>
  <ellipse class="st14" cx="261.37" cy="19.97" rx="6.473" ry="6.477" id="ellipse439" fill="none" stroke="#dbab27" stroke-width="2.698" stroke-miterlimit="10"/>
  <ellipse class="st14" cx="280.789" cy="39.401" rx="6.473" ry="6.477" id="ellipse441" fill="none" stroke="#dbab27" stroke-width="2.698" stroke-miterlimit="10"/>
  <ellipse class="st14" cx="280.789" cy="19.97" rx="6.473" ry="6.477" id="ellipse443" fill="none" stroke="#dbab27" stroke-width="2.698" stroke-miterlimit="10"/>
  <ellipse class="st14" cx="300.208" cy="39.401" rx="6.473" ry="6.477" id="ellipse445" fill="none" stroke="#dbab27" stroke-width="2.698" stroke-miterlimit="10"/>
  <ellipse class="st14" cx="300.208" cy="19.97" rx="6.473" ry="6.477" id="ellipse447" fill="none" stroke="#dbab27" stroke-width="2.698" stroke-miterlimit="10"/>
  <ellipse class="st14" cx="319.627" cy="39.401" rx="6.473" ry="6.477" id="ellipse449" fill="none" stroke="#dbab27" stroke-width="2.698" stroke-miterlimit="10"/>
  <ellipse class="st14" cx="319.627" cy="19.97" rx="6.473" ry="6.477" id="ellipse451" fill="none" stroke="#dbab27" stroke-width="2.698" stroke-miterlimit="10"/>
  <ellipse class="st14" cx="339.046" cy="39.401" rx="6.473" ry="6.477" id="ellipse453" fill="none" stroke="#dbab27" stroke-width="2.698" stroke-miterlimit="10"/>
  <ellipse class="st14" cx="339.046" cy="19.97" rx="6.473" ry="6.477" id="ellipse455" fill="none" stroke="#dbab27" stroke-width="2.698" stroke-miterlimit="10"/>
  <ellipse class="st14" cx="358.466" cy="39.401" rx="6.473" ry="6.477" id="ellipse457" fill="none" stroke="#dbab27" stroke-width="2.698" stroke-miterlimit="10"/>
  <ellipse class="st14" cx="358.466" cy="19.97" rx="6.473" ry="6.477" id="ellipse459" fill="none" stroke="#dbab27" stroke-width="2.698" stroke-miterlimit="10"/>
  <ellipse class="st14" cx="377.885" cy="39.401" rx="6.473" ry="6.477" id="ellipse461" fill="none" stroke="#dbab27" stroke-width="2.698" stroke-miterlimit="10"/>
  <ellipse class="st14" cx="377.885" cy="19.97" rx="6.473" ry="6.477" id="ellipse463" fill="none" stroke="#dbab27" stroke-width="2.698" stroke-miterlimit="10"/>
  <ellipse class="st14" cx="397.304" cy="39.401" rx="6.473" ry="6.477" id="ellipse465" fill="none" stroke="#dbab27" stroke-width="2.698" stroke-miterlimit="10"/>
  <ellipse class="st14" cx="397.304" cy="19.97" rx="6.473" ry="6.477" id="ellipse467" fill="none" stroke="#dbab27" stroke-width="2.698" stroke-miterlimit="10"/>
  <ellipse class="st14" cx="416.723" cy="39.401" rx="6.473" ry="6.477" id="ellipse469" fill="none" stroke="#dbab27" stroke-width="2.698" stroke-miterlimit="10"/>
  <ellipse class="st14" cx="416.723" cy="19.97" rx="6.473" ry="6.477" id="ellipse471" fill="none" stroke="#dbab27" stroke-width="2.698" stroke-miterlimit="10"/>
  <ellipse class="st14" cx="436.142" cy="39.401" rx="6.473" ry="6.477" id="ellipse473" fill="none" stroke="#dbab27" stroke-width="2.698" stroke-miterlimit="10"/>
  <ellipse class="st14" cx="436.142" cy="19.97" rx="6.473" ry="6.477" id="ellipse475" fill="none" stroke="#dbab27" stroke-width="2.698" stroke-miterlimit="10"/>
  <path class="st9" id="polygon477" transform="matrix(2.69711 0 0 2.6987 .02 0)" fill="#dbab27" d="M124 159.9h-4.6v-9.6h4.6z"/>
  <path class="st9" id="polygon479" transform="matrix(2.69711 0 0 2.6987 .02 0)" fill="#dbab27" d="M104.7 159.9h-4.5v-9.6h4.5z"/>
  <path class="st9" id="polygon513" transform="matrix(2.69711 0 0 2.6987 .02 0)" fill="#dbab27" d="M113.2 122.2v4h-3.7v-4z"/>
  <path class="st9" id="polygon515" transform="matrix(2.69711 0 0 2.6987 .02 0)" fill="#dbab27" d="M119.1 122.2v4h-3.7v-4z"/>
  <path class="st9" id="polygon521" transform="matrix(2.69711 0 0 2.6987 .02 0)" fill="#dbab27" d="M8.2 124.5V122h4v2.5z"/>
  <path class="st9" id="polygon523" transform="matrix(2.69711 0 0 2.6987 .02 0)" fill="#dbab27" d="M12.2 133.9v2.6h-4v-2.6z"/>
  <path class="st9" id="polygon525" transform="matrix(2.69711 0 0 2.6987 .02 0)" fill="#dbab27" d="M5.1 136.8v4.1H2.3v-4.1z"/>
  <path class="st9" id="polygon527" transform="matrix(2.69711 0 0 2.6987 .02 0)" fill="#dbab27" d="M5.1 117.5v4.1H2.3v-4.1z"/>
  <path class="st9" id="polygon529" transform="matrix(2.69711 0 0 2.6987 .02 0)" fill="#dbab27" d="M165.3 118h-4.9v-5.7h4.9z"/>
  <path class="st9" id="polygon531" transform="matrix(2.69711 0 0 2.6987 .02 0)" fill="#dbab27" d="M141.4 118h-4.8v-5.7h4.8z"/>
  <path class="st9" id="polygon535" transform="matrix(2.69711 0 0 2.6987 .02 0)" fill="#dbab27" d="M36.8 151.5h3.4v4.5h-3.4z"/>
  <path class="st9" id="polygon537" transform="matrix(2.69711 0 0 2.6987 .02 0)" fill="#dbab27" d="M25.5 151.5h3.4v4.5h-3.4z"/>
  <path class="st9" id="polygon539" transform="matrix(2.69711 0 0 2.6987 .02 0)" fill="#dbab27" d="M34 130.1v-3.9h3.7v3.9z"/>
  <path class="st9" id="polygon541" transform="matrix(2.69711 0 0 2.6987 .02 0)" fill="#dbab27" d="M28 130.1v-3.9h3.7v3.9z"/>
  <path class="st9" id="polygon555" transform="matrix(1.66054 0 0 1.536 157.63 102.68)" fill="#dbab27" d="M155.4 88h-3.7v-4h3.7z"/>
  <path class="st9" id="polygon557" transform="matrix(1.70667 0 0 1.536 148.414 102.68)" fill="#dbab27" d="M145.8 84h3.6v4h-3.6z"/>
  <path class="st9" id="polygon559" transform="matrix(2.69711 0 0 2.6987 .02 0)" fill="#dbab27" d="M67.1 124.6h3.5v2.6h-3.5z"/>
  <path class="st9" id="polygon561" transform="matrix(2.69711 0 0 2.6987 .02 0)" fill="#dbab27" d="M67.1 115.4h3.5v2.6h-3.5z"/>
  <path class="st9" id="polygon563" transform="matrix(2.69711 0 0 2.6987 .02 0)" fill="#dbab27" d="M59.2 124.6h3.5v2.6h-3.5z"/>
  <path class="st9" id="polygon565" transform="matrix(2.69711 0 0 2.6987 .02 0)" fill="#dbab27" d="M59.2 115.4h3.5v2.6h-3.5z"/>
  <path class="st9" id="polygon567" transform="matrix(2.69711 0 0 2.6987 .02 0)" fill="#dbab27" d="M75.1 124.6h3.4v2.6h-3.4z"/>
  <path class="st9" id="polygon569" transform="matrix(2.69711 0 0 2.6987 .02 0)" fill="#dbab27" d="M75.1 115.4h3.4v2.6h-3.4z"/>
  <path class="st9" id="polygon577" transform="matrix(2.69711 0 0 2.6987 .02 0)" fill="#dbab27" d="M19.7 133.7h-3.9V130h3.9z"/>
  <path class="st9" id="polygon593" transform="matrix(2.69711 0 0 2.6987 .02 0)" fill="#dbab27" d="M168.8 159.9h-4.3v-8.5h4.3z"/>
  <path class="st9" id="polygon595" transform="matrix(2.69711 0 0 2.6987 .02 0)" fill="#dbab27" d="M138.1 159.9h-4.3v-8.5h4.3z"/>
  <path class="st9" id="polygon609" transform="matrix(2.69711 0 0 2.6987 .02 0)" fill="#dbab27" d="M101.2 99.4v6.7h-9.9v-6.7z"/>
  <path class="st9" id="polygon611" transform="matrix(2.69711 0 0 2.6987 .02 0)" fill="#dbab27" d="M101.2 116.4v6.7h-9.9v-6.7z"/>
  <path class="st9" id="polygon613" transform="matrix(2.69711 0 0 2.6987 .02 0)" fill="#dbab27" d="M36.9 66.3h9.9v14.2h-9.9z"/>
  <path class="st9" id="polygon615" transform="matrix(2.69711 0 0 2.6987 .02 0)" fill="#dbab27" d="M65.7 66.3h9.9v14.2h-9.9z"/>
  <path class="st9" id="polygon625" transform="matrix(2.69711 0 0 2.6987 .02 0)" fill="#dbab27" d="M50.2 128.1v-17.9H53v17.9z"/>
  <path class="st9" id="polygon627" transform="matrix(2.69711 0 0 2.6987 .02 0)" fill="#dbab27" d="M41.5 128.1v-17.9h2.9v17.9z"/>
  <path id="gge4558_1" class="st9" d="M368.175 318.987h9.71l-2.428-6.477h-4.585z" fill="#dbab27" stroke-width="2.698"/>
  <ellipse class="st9" cx="199.336" cy="396.44" rx="3.237" ry="3.238" id="ellipse668" fill="#dbab27" stroke-width="2.698"/>
  <ellipse class="st9" cx="191.514" cy="396.44" rx="3.237" ry="3.238" id="ellipse670" fill="#dbab27" stroke-width="2.698"/>
  <ellipse class="st9" cx="195.56" cy="389.423" rx="3.237" ry="3.238" id="ellipse672" fill="#dbab27" stroke-width="2.698"/>
  <ellipse class="st9" cx="133.796" cy="389.423" rx="3.237" ry="3.238" id="ellipse678" fill="#dbab27" stroke-width="2.698"/>
  <ellipse class="st9" cx="133.796" cy="397.249" rx="3.237" ry="3.238" id="ellipse682" fill="#dbab27" stroke-width="2.698"/>
  <ellipse class="st9" cx="140.539" cy="393.471" rx="3.237" ry="3.238" id="ellipse684" fill="#dbab27" stroke-width="2.698"/>
  <path class="st15" id="line686" fill="none" stroke="#dbab27" stroke-width="13.808" d="M116.265 411.553v6.746"/>
  <path class="st15" id="line688" fill="none" stroke="#dbab27" stroke-width="13.808" d="M61.244 411.553v6.746"/>
  <ellipse class="st9" cx="63.402" cy="393.471" rx="5.664" ry="5.667" id="ellipse690" fill="#dbab27" stroke-width="2.698"/>
  <ellipse class="st9" cx="113.838" cy="393.471" rx="5.664" ry="5.667" id="ellipse692" fill="#dbab27" stroke-width="2.698"/>
  <ellipse id="GND_PWR" cx="152.137" cy="370.262" rx="8.361" ry="8.366" stroke-width="2.698"/>
  <ellipse id="PWR+" class="st8" cx="181.265" cy="370.262" rx="8.361" ry="8.366" fill="#d42328" stroke-width="2.698"/>
  <ellipse id="GND_ESC" cx="217.407" cy="370.262" rx="8.361" ry="8.366" stroke-width="2.698"/>
  <ellipse id="ESC+" class="st8" cx="246.536" cy="370.262" rx="8.361" ry="8.366" fill="#d42328" stroke-width="2.698"/>
  <path id="path5922" class="st17" d="M410.755 237.856h-8.796c-.361 0-.602-.3-.602-.75v-4.645c0-.45.24-.75.602-.75h8.796c.361 0 .602.3.602.75v4.645c0 .3-.241.75-.602.75z" fill="#dcdcdc" stroke-width="1.344"/>
  <path id="path5922_1_" class="st17" d="M318.279 340.577h-19.69c-.808 0-1.348-.54-1.348-1.35v-8.366c0-.81.54-1.349 1.349-1.349h19.689c.809 0 1.348.54 1.348 1.35v8.365c0 .81-.54 1.35-1.348 1.35z" fill="#dcdcdc" stroke-width="2.698"/>
  <path id="path5922_2_" class="st17" d="M98.194 351.372H78.506c-.81 0-1.349-.54-1.349-1.35v-8.366c0-.81.54-1.35 1.349-1.35h19.688c.81 0 1.349.54 1.349 1.35v8.366c0 .81-.54 1.35-1.349 1.35z" fill="#dcdcdc" stroke-width="2.698"/>
  <path id="path5922_3_" class="st17" d="M53.153 337.608v19.7c0 .81-.54 1.35-1.349 1.35h-8.36c-.81 0-1.35-.54-1.35-1.35v-19.7c0-.81.54-1.35 1.35-1.35h8.36c.81-.27 1.349.54 1.349 1.35z" fill="#dcdcdc" stroke-width="2.698"/>
  <path id="POWERBTN" class="st18" d="M1.368 361.627v-26.448c0-.54.54-1.35 1.349-1.35h4.315c.54 0 1.349.54 1.349 1.35v26.448c0 .54-.54 1.349-1.349 1.349H2.717c-.81-.27-1.349-.81-1.349-1.35z" fill="#010101" stroke-width="2.698"/>
  <g transform="matrix(2.69711 0 0 2.6987 55.276 40.323)" id="g730">
    <g id="g728">
      <g id="g726">
        <g id="g724">
          <g id="Power">
            <path id="rect5896_6_" class="st17" fill="#dcdcdc" d="M-11.5 108.2h2.7v.8h-2.7z"/>
            <path id="rect5896_5_" class="st17" fill="#dcdcdc" d="M-11.5 119.4h2.7v.8h-2.7z"/>
            <path id="rect5896_4_" class="st17" fill="#dcdcdc" d="M-18 104.3h2.7V124H-18z"/>
            <path id="rect5898_4_" class="st19" fill="#bbb" d="M-17.7 105.2h7.4v18h-7.4z"/>
            <path id="rect5981_5_" class="st20" fill="#e5e3df" d="M-10.7 105.2h.4v18h-.4z"/>
            <path id="rect5981_4_" class="st20" fill="#e5e3df" d="M-17.7 105.2h.4v18h-.4z"/>
          </g>
        </g>
      </g>
    </g>
  </g>
  <g transform="matrix(2.69711 0 0 2.6987 55.276 40.323)" id="g745">
    <g id="g743">
      <g id="g741">
        <g id="g739">
          <g id="reset">
            <path id="rect5981_2_" class="st20" fill="#e5e3df" d="M121.5 95.1h18v.7h-18z"/>
            <path id="rect5896_3_" class="st17" fill="#dcdcdc" d="M117.9 98.7h24.8v2.7h-24.8z"/>
            <path id="rect5898_3_" class="st19" fill="#bbb" d="M121.4 95.1h18v10.1h-18z"/>
            <path id="rect5979" class="st20" fill="#e5e3df" d="M121.4 95.1h.7v10.1h-.7z"/>
            <path id="rect5981" class="st20" fill="#e5e3df" d="M138.7 95.1h.7v10.1h-.7z"/>
            <path id="rect5981_1_" class="st20" fill="#e5e3df" d="M121.4 104.5h18v.7h-18z"/>
          </g>
        </g>
      </g>
    </g>
  </g>
  <g transform="matrix(2.69711 0 0 2.6987 -4.7 45.535)" id="g768">
    <g id="g766">
      <g id="g764">
        <g id="g762">
          <g id="g355">
            <path id="rect6007" class="st21" fill="#b5b5b5" d="M23.2 134.1h22.7v4H23.2z"/>
            <path id="rect6009" class="st17" fill="#dcdcdc" d="M34.1 127h.6v3.4h-.6z"/>
            <path id="rect6011" class="st17" fill="#dcdcdc" d="M36 127.1h.6v3.4H36z"/>
            <path id="rect6013" class="st17" fill="#dcdcdc" d="M38.1 127h.6v3.4h-.6z"/>
            <path id="rect6015" class="st17" fill="#dcdcdc" d="M32.5 127.1h.6v3.4h-.6z"/>
            <path id="rect6017" class="st17" fill="#dcdcdc" d="M30.5 127.1h.6v3.4h-.6z"/>
            <path id="rect6019" class="st21" fill="#b5b5b5" d="M27.4 128.4h14.2v.7H27.4z"/>
            <path id="rect6021" class="st18" fill="#010101" d="M27.4 128.7h14.2v3H27.4z"/>
            <path id="polygon6023" class="st17" fill="#dcdcdc" d="M38 131.3h-1.5v-2.6h-3.9v2.6h-1.4v-.7h-2.3v-2.2h-5.1V142h21.5v-13.6h-5.1v2.2H38z"/>
            <path id="polygon6025" class="st18" fill="#010101" d="M28.7 134.9l.3 4.3h-2l.3-4.3z"/>
            <path id="polygon6027" class="st18" fill="#010101" d="M41.8 134.9l.3 4.3h-2l.3-4.3z"/>
            <path id="polygon6029" fill="#f1f0f0" d="M44.8 142l-.6 1.7H24.9l-.5-1.7z"/>
            <path id="polygon6031" class="st21" fill="#b5b5b5" d="M24.4 142l-.6 1.7h-.6l.6-1.7z"/>
            <path id="polygon6033" class="st21" fill="#b5b5b5" d="M45.3 142l.6 1.7h-.6l-.5-1.7z"/>
          </g>
        </g>
      </g>
    </g>
  </g>
  <g transform="matrix(2.69711 0 0 2.6987 55.276 40.323)" id="g804">
    <g id="g802">
      <g id="g800">
        <g id="g798">
          <g id="Diode_x5F_1">
            <g id="g795">
              <g id="g793">
                <g id="g791">
                  <g id="g5904">
                    <g transform="rotate(180 5.103 2.338)" id="g788">
                      <g id="g786">
                        <g id="g784">
                          <g id="g782">
                            <g id="g780">
                              <g id="g778">
                                <g id="g776">
                                  <g id="g774">
                                    <g id="g5902">
                                      <path id="rect5896" class="st17" fill="#dcdcdc" d="M-47.2-106.9h2.4v10.2h-2.4z"/>
                                      <path id="rect5898" class="st23" fill="#303030" d="M-48.3-105.7h4.7v7.7h-4.7z"/>
                                      <path id="rect5900" class="st24" fill="#4e4e4e" d="M-48.3-100.1h4.7v1.4h-4.7z"/>
                                    </g>
                                  </g>
                                </g>
                              </g>
                            </g>
                          </g>
                        </g>
                      </g>
                    </g>
                  </g>
                </g>
              </g>
            </g>
          </g>
        </g>
      </g>
    </g>
  </g>
  <g transform="matrix(2.69711 0 0 2.6987 55.276 40.323)" id="g840">
    <g id="g838">
      <g id="g836">
        <g id="g834">
          <g id="Diode_x5F_2">
            <g id="g831">
              <g id="g829">
                <g id="g827">
                  <g id="g5904_1_">
                    <g transform="rotate(180 5.103 2.338)" id="g824">
                      <g id="g822">
                        <g id="g820">
                          <g id="g818">
                            <g id="g816">
                              <g id="g814">
                                <g id="g812">
                                  <g id="g810">
                                    <g id="g5902_1_">
                                      <path id="rect5896_1_" class="st17" fill="#dcdcdc" d="M-39.2-106.9h2.4v10.2h-2.4z"/>
                                      <path id="rect5898_1_" class="st23" fill="#303030" d="M-40.3-105.7h4.7v7.7h-4.7z"/>
                                      <path id="rect5900_1_" class="st24" fill="#4e4e4e" d="M-40.3-100.1h4.7v1.4h-4.7z"/>
                                    </g>
                                  </g>
                                </g>
                              </g>
                            </g>
                          </g>
                        </g>
                      </g>
                    </g>
                  </g>
                </g>
              </g>
            </g>
          </g>
        </g>
      </g>
    </g>
  </g>
  <g transform="matrix(2.69711 0 0 2.6987 55.276 40.323)" id="g876">
    <g id="g874">
      <g id="g872">
        <g id="g870">
          <g id="Diode_x5F_3">
            <g id="g867">
              <g id="g865">
                <g id="g863">
                  <g id="g5904_2_">
                    <g transform="rotate(180 5.103 2.338)" id="g860">
                      <g id="g858">
                        <g id="g856">
                          <g id="g854">
                            <g id="g852">
                              <g id="g850">
                                <g id="g848">
                                  <g id="g846">
                                    <g id="g5902_2_">
                                      <path id="rect5896_2_" class="st17" fill="#dcdcdc" d="M-31.2-106.9h2.4v10.2h-2.4z"/>
                                      <path id="rect5898_2_" class="st23" fill="#303030" d="M-32.3-105.7h4.7v7.7h-4.7z"/>
                                      <path id="rect5900_2_" class="st24" fill="#4e4e4e" d="M-32.3-100.1h4.7v1.4h-4.7z"/>
                                    </g>
                                  </g>
                                </g>
                              </g>
                            </g>
                          </g>
                        </g>
                      </g>
                    </g>
                  </g>
                </g>
              </g>
            </g>
          </g>
        </g>
      </g>
    </g>
  </g>
  <g transform="matrix(2.69711 0 0 2.6987 55.276 40.323)" id="g887">
    <g id="g885">
      <g id="g883">
        <g id="g881">
          <g id="g342">
            <path id="rect5896_7_" class="st17" fill="#dcdcdc" d="M19 53.8h33.7v8.5H19z"/>
            <path id="rect5898_5_" class="st25" d="M52.1 47.3v22.3c0 1.3-1 2.3-2.3 2.3H22c-1.3 0-2.3-1-2.3-2.3V47.3c0-1.3 1-2.3 2.3-2.3h27.8c1.2 0 2.3 1 2.3 2.3z" fill="#505050"/>
          </g>
        </g>
      </g>
    </g>
  </g>
  <g transform="matrix(2.69711 0 0 2.6987 55.276 40.323)" id="g898">
    <g id="g896">
      <g id="g894">
        <g id="g892">
          <g id="g343">
            <path id="rect5896_8_" class="st17" fill="#dcdcdc" d="M73 85h5.7v22.6H73z"/>
            <path id="rect5898_6_" class="st25" d="M83.1 107.2h-15c-.9 0-1.5-.7-1.5-1.5V87c0-.9.7-1.5 1.5-1.5h15c.9 0 1.5.7 1.5 1.5v18.6c0 .9-.6 1.6-1.5 1.6z" fill="#505050"/>
          </g>
        </g>
      </g>
    </g>
  </g>
  <g transform="matrix(2.69711 0 0 2.6987 55.276 40.323)" id="g910">
    <g id="g908">
      <g id="g906">
        <g id="g904">
          <g id="g352">
            <path id="rect5898_7_" class="st23" fill="#303030" d="M20.5 94.1h12v19.7h-12z"/>
            <path id="rect5896_9_" class="st17" fill="#dcdcdc" d="M20.4 94.1h2.2v19.7h-2.2z"/>
            <path id="rect5896_10_" class="st17" fill="#dcdcdc" d="M30.3 94.1h2.2v19.7h-2.2z"/>
          </g>
        </g>
      </g>
    </g>
  </g>
  <g transform="matrix(2.69711 0 0 2.6987 55.276 40.323)" id="g943">
    <g id="g941">
      <g id="g939">
        <g id="g937">
          <g id="_x32_P_Batt">
            <path class="st26" id="rect912" fill="#e8e8e8" d="M80.5 123.2h2.1v10.3h-2.1z"/>
            <path class="st26" id="rect914" fill="#e8e8e8" d="M100.6 123.2h2.1v10.3h-2.1z"/>
            <path id="rect5896_45_" class="st17" fill="#dcdcdc" d="M87.3 119.2h2.5v23.7h-2.5z"/>
            <path id="rect5896_44_" class="st17" fill="#dcdcdc" d="M93 119.2h2.5v23.7H93z"/>
            <path id="rect5896_41_" class="st17" fill="#dcdcdc" d="M80.2 140.9h1.6v5.2h-1.6z"/>
            <path id="rect5896_40_" class="st17" fill="#dcdcdc" d="M101.5 140.9h1.6v5.2h-1.6z"/>
            <path class="st27" id="rect920" fill="#ededed" d="M87 129.3h9v16.4h-9z"/>
            <path class="st27" id="rect922" fill="#ededed" d="M81.1 129.4h3.5v16.7h-3.5z"/>
            <path class="st27" id="rect924" fill="#ededed" d="M98.3 129.4h3.5v16.7h-3.5z"/>
            <path class="st28" id="rect926" fill="#f9f9f9" d="M80.5 129.4H84v16.7h-3.5z"/>
            <path class="st28" id="rect928" fill="#f9f9f9" d="M99.2 129.4h3.5v16.7h-3.5z"/>
            <path class="st29" id="rect930" fill="#d1d1d1" d="M84.6 129.4H87v4.1h-2.4z"/>
            <path class="st29" id="rect932" fill="#d1d1d1" d="M96 129.4h2.4v4.1H96z"/>
            <path class="st27" id="rect934" fill="#ededed" d="M84 140.9h15.3v5.2H84z"/>
          </g>
        </g>
      </g>
    </g>
  </g>
  <g transform="matrix(2.69711 0 0 2.6987 55.276 40.323)" id="g956">
    <g id="g954">
      <g id="g952">
        <g id="g950">
          <g id="Power_1_">
            <path class="st30" id="rect945" fill="#77af6a" d="M30.1 121.5H53v24.2H30.1z"/>
            <path class="st31" id="rect947" fill="#628a55" d="M30 140.8h22.9v4.9H30z"/>
          </g>
        </g>
      </g>
    </g>
  </g>
  <g transform="matrix(2.69711 0 0 2.6987 55.276 40.323)" id="g969">
    <g id="g967">
      <g id="g965">
        <g id="g963">
          <g id="g356">
            <path class="st30" id="rect958" fill="#77af6a" d="M53.6 121.5h22.9v24.2H53.6z"/>
            <path class="st31" id="rect960" fill="#628a55" d="M53.5 140.8h22.9v4.9H53.5z"/>
          </g>
        </g>
      </g>
    </g>
  </g>
  <path id="PWR_LED" fill="#4c58a6" stroke-width="2.698" d="M42.095 341.926h11.328v11.335H42.095z"/>
  <path id="USB_LED" fill="#51b848" stroke-width="2.698" d="M82.551 340.037h11.328v11.335H82.551z"/>
  <path id="CHRG_LED" fill="#fbf282" stroke-width="2.698" d="M302.635 329.512h11.328v11.335h-11.328z"/>
  <path id="R_LED" fill="#ed2224" stroke-width="1.463" d="M403.39 231.705h6.144v6.144h-6.144z"/>
  <path id="RESETBTN" d="M418.342 315.479h-22.656c-1.618 0-3.237-1.35-3.237-3.239v-3.778c0-1.62 1.349-3.238 3.237-3.238h22.656c1.618 0 3.236 1.349 3.236 3.238v3.778c0 1.89-1.348 3.239-3.236 3.239z" fill="#481212" stroke-width="2.698"/>
  <g transform="matrix(2.69711 0 0 2.6987 55.965 39.625)" id="g1116">
    <g id="g1114">
      <g id="g1112">
        <g id="g1110">
          <g id="_x37_pin_PH2.5">
            <path class="st36" id="rect1078" fill="#c2bfbf" d="M162.1 8.3h2.5v8.9h-2.5z"/>
            <path class="st36" id="rect1080" fill="#c2bfbf" d="M162.1 17.8h2.5v17h-2.5z"/>
            <path class="st36" id="rect1082" fill="#c2bfbf" d="M162.1 35.3h2.5V44h-2.5z"/>
            <path id="rect5896_39_" class="st17" fill="#dcdcdc" d="M150.8 36.8h12.1v1.1h-12.1z"/>
            <path id="rect5896_38_" class="st17" fill="#dcdcdc" d="M150.8 33.2h12.1v1.1h-12.1z"/>
            <path id="rect5896_37_" class="st17" fill="#dcdcdc" d="M150.8 29.6h12.1v1.1h-12.1z"/>
            <path id="rect5896_36_" class="st17" fill="#dcdcdc" d="M150.8 26h12.1v1.1h-12.1z"/>
            <path id="rect5896_35_" class="st17" fill="#dcdcdc" d="M150.8 22.5h12.1v1.1h-12.1z"/>
            <path id="rect5896_34_" class="st17" fill="#dcdcdc" d="M150.8 18.9h12.1V20h-12.1z"/>
            <path id="rect5896_33_" class="st17" fill="#dcdcdc" d="M150.8 15.3h12.1v1.1h-12.1z"/>
            <path class="st37" d="M159.4 48.1h-2.2c-1.3 0-2.4-1.1-2.4-2.4V6.9c0-1.3 1.1-2.4 2.4-2.4h2.2c1.3 0 2.4 1.1 2.4 2.4v38.8c0 1.4-1.1 2.4-2.4 2.4z" id="path1091" fill="#e5e5e5"/>
            <path class="st33" id="rect1093" fill="#ededee" d="M154.2 7.6h7.9v37h-7.9z"/>
            <path class="st37" id="rect1095" fill="#e5e5e5" d="M158.2 44.6h4.5v3.5h-4.5z"/>
            <path class="st37" id="rect1097" fill="#e5e5e5" d="M158.2 4.6h4.5v3h-4.5z"/>
            <path id="rect5896_32_" class="st17" fill="#dcdcdc" d="M156.5 5.4h6.2v2.2h-6.2z"/>
            <path id="rect5896_31_" class="st17" fill="#dcdcdc" d="M156.5 44.7h6.2v2.2h-6.2z"/>
            <path class="st17" id="rect1101" fill="#dcdcdc" d="M163.7 7.6h.9v.6h-.9z"/>
            <path class="st17" id="rect1103" fill="#dcdcdc" d="M163.7 44h.9v.6h-.9z"/>
            <path class="st33" id="rect1105" fill="#ededee" d="M162.1 43.5h1.6v1.1h-1.6z"/>
            <path class="st33" id="rect1107" fill="#ededee" d="M162.1 7.6h1.6v1.1h-1.6z"/>
          </g>
        </g>
      </g>
    </g>
  </g>
  <g transform="matrix(2.69711 0 0 2.6987 54.437 40.46)" id="g1076">
    <g id="g1074">
      <g id="g1072">
        <g id="g1070">
          <g id="_x36_pin_PH2.5">
            <path class="st36" id="rect1039" fill="#c2bfbf" d="M162.7 54.2h2.5v8.5h-2.5z"/>
            <path class="st36" id="rect1041" fill="#c2bfbf" d="M162.7 63.5h2.5v14.9h-2.5z"/>
            <path class="st36" id="rect1043" fill="#c2bfbf" d="M162.7 79.3h2.5v8.2h-2.5z"/>
            <path id="rect5896_28_" class="st17" fill="#dcdcdc" d="M151.4 79.6h12.1v1.1h-12.1z"/>
            <path id="rect5896_29_" class="st17" fill="#dcdcdc" d="M151.4 76h12.1v1.1h-12.1z"/>
            <path id="rect5896_30_" class="st17" fill="#dcdcdc" d="M151.4 72.4h12.1v1.1h-12.1z"/>
            <path id="rect5896_27_" class="st17" fill="#dcdcdc" d="M151.4 68.8h12.1v1.1h-12.1z"/>
            <path id="rect5896_26_" class="st17" fill="#dcdcdc" d="M151.4 65.2h12.1v1.1h-12.1z"/>
            <path id="rect5896_25_" class="st17" fill="#dcdcdc" d="M151.4 61.5h12.1v1.1h-12.1z"/>
            <path class="st37" d="M159.9 91.3h-2.2c-1.3 0-2.4-1.1-2.4-2.4V53.2c0-1.3 1.1-2.4 2.4-2.4h2.2c1.3 0 2.4 1.1 2.4 2.4v35.7c0 1.4-1 2.4-2.4 2.4z" id="path1051" fill="#e5e5e5"/>
            <path class="st33" id="rect1053" fill="#ededee" d="M154.8 53.7h7.9v34.4h-7.9z"/>
            <path class="st37" id="rect1055" fill="#e5e5e5" d="M158.8 88h4.5v3.3h-4.5z"/>
            <path class="st37" id="rect1057" fill="#e5e5e5" d="M158.8 50.9h4.5v2.8h-4.5z"/>
            <path id="rect5896_24_" class="st17" fill="#dcdcdc" d="M157.1 51.6h6.2v2.1h-6.2z"/>
            <path id="rect5896_23_" class="st17" fill="#dcdcdc" d="M157.1 88.1h6.2v2.1h-6.2z"/>
            <path class="st17" id="rect1061" fill="#dcdcdc" d="M164.3 53.7h.8v.6h-.8z"/>
            <path class="st17" id="rect1063" fill="#dcdcdc" d="M164.3 87.5h.9v.6h-.9z"/>
            <path class="st33" id="rect1065" fill="#ededee" d="M162.7 87h1.6v1.1h-1.6z"/>
            <path class="st33" id="rect1067" fill="#ededee" d="M162.7 53.7h1.6v1.1h-1.6z"/>
          </g>
        </g>
      </g>
    </g>
  </g>
  <g transform="matrix(2.69711 0 0 2.6987 55.31 42.37)" id="g1000">
    <g id="g998">
      <g id="g996">
        <g id="g994">
          <g id="_x34_pin_Grove">
            <path class="st32" id="rect971" fill="#e9e8e8" d="M113.4 120.7h3.2v11h-3.2z"/>
            <path class="st32" id="rect973" fill="#e9e8e8" d="M144.8 120.7h3.2v11h-3.2z"/>
            <path id="rect5896_11_" class="st17" fill="#dcdcdc" d="M121 116.4h2.5v25.3H121z"/>
            <path id="rect5896_12_" class="st17" fill="#dcdcdc" d="M126.7 116.4h2.5v25.3h-2.5z"/>
            <path id="rect5896_13_" class="st17" fill="#dcdcdc" d="M132.3 116.4h2.5v25.3h-2.5z"/>
            <path id="rect5896_14_" class="st17" fill="#dcdcdc" d="M138 116.4h2.5v25.3H138z"/>
            <path id="rect5896_15_" class="st17" fill="#dcdcdc" d="M112.9 139.5h2.5v5.6h-2.5z"/>
            <path id="rect5896_16_" class="st17" fill="#dcdcdc" d="M146 139.5h2.5v5.6H146z"/>
            <path class="st33" id="rect981" fill="#ededee" d="M113.4 125H148v13.6h-34.6z"/>
            <path class="st33" id="rect983" fill="#ededee" d="M114.4 127.3h5.4v17.8h-5.4z"/>
            <path class="st33" id="rect985" fill="#ededee" d="M141.2 127.3h5.4v17.8h-5.4z"/>
            <path class="st34" id="rect987" fill="#f9f9fa" d="M113.4 127.3h5.4v17.8h-5.4z"/>
            <path class="st34" id="rect989" fill="#f9f9fa" d="M142.6 127.3h5.4v17.8h-5.4z"/>
            <path id="rect991" fill="#a3a1a1" d="M126.9 136.2h8.9v2.4h-8.9z"/>
          </g>
        </g>
      </g>
    </g>
  </g>
  <g transform="matrix(2.69711 0 0 2.6987 53.774 40.348)" id="g1037">
    <g id="g1035">
      <g id="g1033">
        <g id="g1031">
          <g id="_x34_pin_PH2.5">
            <path class="st36" id="rect1002" fill="#c2bfbf" d="M162.7 97.4h2.5v8.3h-2.5z"/>
            <path class="st36" id="rect1004" fill="#c2bfbf" d="M162.7 106.3h2.5v8.6h-2.5z"/>
            <path class="st36" id="rect1006" fill="#c2bfbf" d="M162.7 115.6h2.5v8.3h-2.5z"/>
            <path id="rect5896_17_" class="st17" fill="#dcdcdc" d="M151.4 115.8h12.1v1.1h-12.1z"/>
            <path id="rect5896_18_" class="st17" fill="#dcdcdc" d="M151.4 112.1h12.1v1.1h-12.1z"/>
            <path id="rect5896_19_" class="st17" fill="#dcdcdc" d="M151.4 108.4h12.1v1.1h-12.1z"/>
            <path id="rect5896_20_" class="st17" fill="#dcdcdc" d="M151.4 104.7h12.1v1.1h-12.1z"/>
            <path class="st17" id="rect1012" fill="#dcdcdc" d="M164.3 96.8h.8v.6h-.8z"/>
            <path class="st17" id="rect1014" fill="#dcdcdc" d="M164.3 123.9h.8v.6h-.8z"/>
            <path class="st33" id="rect1016" fill="#ededee" d="M162.7 123.4h1.6v1.1h-1.6z"/>
            <path class="st33" id="rect1018" fill="#ededee" d="M162.7 96.8h1.6v1.1h-1.6z"/>
            <path class="st37" d="M159.9 127.1h-2.2c-1.3 0-2.4-1.1-2.4-2.4V96.9c0-1.3 1.1-2.4 2.4-2.4h2.2c1.3 0 2.4 1.1 2.4 2.4v27.8c0 1.4-1 2.4-2.4 2.4z" id="path1020" fill="#e5e5e5"/>
            <path class="st33" id="rect1022" fill="#ededee" d="M154.8 96.8h7.9v27.7h-7.9z"/>
            <path class="st37" id="rect1024" fill="#e5e5e5" d="M158.8 124.5h4.5v2.6h-4.5z"/>
            <path class="st37" id="rect1026" fill="#e5e5e5" d="M158.8 94.5h4.5v2.3h-4.5z"/>
            <path id="rect5896_21_" class="st17" fill="#dcdcdc" d="M157.1 95.1h6.2v1.7h-6.2z"/>
            <path id="rect5896_22_" class="st17" fill="#dcdcdc" d="M157.1 124.5h6.2v1.7h-6.2z"/>
          </g>
        </g>
      </g>
    </g>
  </g>
</svg>
