<svg xmlns="http://www.w3.org/2000/svg" version="1.1" id="Layer_1" x="0" y="0" width="464.25" height="403.25" viewBox="0 0 464.25 403.25" xml:space="preserve">
  <style type="text/css" id="style2">
    .st1{fill:#fff}.st3,.st4{fill:none;stroke:#fff;stroke-width:.8}.st4{stroke-width:.6}.st5{stroke-width:.8}.st5,.st6,.st7{fill:none;stroke:#fff;stroke-linecap:round}.st7{stroke-width:.5}.st8{fill:#d42328}.st9{fill:#dbab27}.st10{stroke:#010101}.st10,.st11,.st12,.st13{fill:none;stroke-miterlimit:10}.st11{stroke:#d42328}.st12{stroke:#febf10}.st13{stroke:#ed2224}.st14,.st15{fill:none;stroke:#dbab27}.st14{stroke-miterlimit:10}.st15{stroke-width:5.1181}.st17{fill:#dcdcdc}.st18{fill:#010101}.st19{fill:#bbb}.st20{fill:#e5e3df}.st21{fill:#b5b5b5}.st23{fill:#303030}.st24{fill:#4e4e4e}.st25{fill:#505050}.st26{fill:#e8e8e8}.st27{fill:#ededed}.st28{fill:#f9f9f9}.st29{fill:#d1d1d1}.st30{fill:#77af6a}.st31{fill:#628a55}.st32{fill:#e9e8e8}.st33{fill:#ededee}.st34{fill:#f9f9fa}.st36{fill:#c2bfbf}.st37{fill:#e5e5e5}
  </style>
  <path id="PCBborder" d="M463.017 15.918l-.25-.5-.25-.5-.25-.501-.25-.5-.25-.5-.25-.501-.25-.5-.25-.5-.25-.501-.25-.5-.25-.5-.25-.5-.25-.501-.25-.5-.25-.5-.25-.501-.25-.5-.25-.5-.5-.5-.5-.501-.5-.5-.5-.25-.5-.25-.5-.251-.5-.25-.5-.25-.5-.25-.5-.25-.5-.25-.5-.25-.5-.251h-1.75l-.5-.25-.5-.25-.5-.25-.5-.25-.5-.25-.5-.25-.5-.251-.5-.25-.5-.25-.5-.25H18.518l-.5.25-.5.25-.5.25h-.5l-.5.25-.5.25-.5.25-.5.25-.5.25-.5.25-.5.251-.5.5-.5.25v.75l-.5.251-.5.25-.5.25-.5.25-.5.25-.5-.25-.5.5-.5.501-.25.5-.25.5-.25.501-.75.25-.25.5-.25.5-.25.501-.25.5-.25.5-.25.5-.25.501-.25.5v1.001l-.25.5-.25.5-.25.501-.25.5-.25.5-.25.5-.25.501-.25.5v367.467l.25.5.25.5.25.501.25.5.25.5.25.501.25.5.25.5.25.5.25.501.25.5.25.5.5.251.25.5.25.5.25.5.25.501.5.25-.25.5.5.5.5.501.5.5.5.25.5.25.25.751.5.25.5.25.5.25.5.25.25.25.5.25.5.251h.75l.5.25.5.25.5.25.5.25.5.25.5.25 1 .501.5.25.5.25.5.25h4.25v-.5h288l.25-.25.25-.25.25-.25.25-.25.25-.25.25-.25.25-.25.25-.25.25-.25.25-.251.25-.25V263.064l.25-.25.25-.25.25-.25.25-.25.25-.25.25-.251.25-.25.25-.25.25-.25.25-.25 1.5.5.25-.25.25-.25.25-.25.25-.25.25-.251h4.75l.25.25.25.25.25.25.25.25.25.25.25.25.25.25.25.251.25.25.25.25.25.25.25.25.25.25.25.25.25.251.25.25v134.329l.25.25.25.25.25.25.25.25.25.25.25.25.25.251.25.25.25.25.25.25.25.25h115.249l.5-.25.5-.25.5-.25.5-.25.5-.25.5-.25.5-.25.5-.25.5-.25.5-.25.5-.25.5-.251.5-.25.5-.25.5-.25.5-.25.5-.25.5-.25.5-.251.5-.5.5-.5.5-.5.25-.501.25-.5.25-.5.25-.501.25-.5.25-.5.25-.5.25-.501.25-.5.25-.5.25-.501.25-.5.25-.5.25-.501.25-.5.25-.5.25-.5.25-.501.75-1.501.25-.5.25-.5V16.417zm-238.75-3.502c3.75 0 6.75 3.001 6.75 6.754 0 3.752-3 6.754-6.75 6.754s-6.75-3.252-6.75-6.754 3-6.754 6.75-6.754zm-36 0c3.75 0 6.75 3.001 6.75 6.754 0 3.752-3 6.754-6.75 6.754a6.724 6.724 0 01-6.75-6.754c0-3.753 3-6.754 6.75-6.754zm-18 0c3.75 0 6.75 3.001 6.75 6.754 0 3.752-3 6.754-6.75 6.754a6.724 6.724 0 01-6.75-6.754c0-3.753 3-6.754 6.75-6.754zm0 18.01c3.75 0 6.75 3.002 6.75 6.754s-3 6.754-6.75 6.754a6.724 6.724 0 01-6.75-6.754c0-3.752 3-6.754 6.75-6.754zm-36-18.01c3.75 0 6.75 3.001 6.75 6.754 0 3.752-3 6.754-6.75 6.754s-6.75-3.252-6.75-6.754 3-6.754 6.75-6.754zm0 18.01c3.75 0 6.75 3.002 6.75 6.754s-3 6.754-6.75 6.754-6.75-3.252-6.75-6.754c0-3.752 3-6.754 6.75-6.754zm-3.75 44.527c3.25 0 6 2.751 6 6.003 0 3.252-2.75 6.004-6 6.004s-6-2.752-6-6.004c0-3.502 2.75-6.003 6-6.003zM27.769 18.169c5.5 0 10 4.503 10 10.006s-4.5 10.006-10 10.006-10-4.503-10-10.006c0-5.753 4.5-10.006 10-10.006zm-14.25 36.772c3.75 0 7 3.252 7 7.004s-3 6.754-7 6.754c-3.75 0-7-3.252-7-7.004 0-3.753 3.25-6.754 7-6.754zm0 18.01c3.75 0 7 3.252 7 7.004 0 3.753-3 7.005-7 7.005-3.75 0-7-3.252-7-7.005 0-3.752 3.25-7.004 7-7.004zm0 18.011c3.75 0 7 3.252 7 7.004s-3 7.004-7 7.004c-3.75 0-7-3.252-7-7.004s3.25-7.004 7-7.004zm0 17.76c3.75 0 7 3.252 7 7.005 0 4.002-3 7.254-7 7.254-3.75 0-7-3.252-7-7.004 0-4.003 3.25-7.255 7-7.255zm0 36.272c3.75 0 7 3.252 7 7.004s-3 6.754-7 6.754c-3.75 0-7-3.252-7-7.004s3.25-6.754 7-6.754zm0 18.01c3.75 0 7 3.252 7 7.005 0 3.752-3 7.004-7 7.004-3.75 0-7-3.252-7-7.004 0-3.753 3.25-7.004 7-7.004zm0 18.011c3.75 0 7 3.252 7 7.004s-3 7.004-7 7.004c-3.75 0-7-3.252-7-7.004s3.25-7.004 7-7.004zm0 17.76c3.75 0 7 3.253 7 7.005s-3 7.254-7 7.254c-3.75 0-7-3.252-7-7.004s3.25-7.254 7-7.254zm0 18.261c3.75 0 7 3.252 7 7.005 0 3.752-3.25 7.004-7 7.004s-7-3.252-7-7.004c0-4.003 3.25-7.005 7-7.005zm0 18.011c3.75 0 7 3.252 7 7.004s-3 6.754-7 6.754c-3.75 0-7-3.252-7-7.004s3.25-6.754 7-6.754zm0 18.01c3.75 0 7 3.253 7 7.005s-3.25 7.004-7 7.004-7-3.252-7-7.004 3.25-7.004 7-7.004zm0 32.02c-3.75 0-7-3.252-7-7.005 0-3.752 3.25-7.004 7-7.004s7 3.252 7 7.004c0 3.753-3 7.005-7 7.005zm14.25 100.559c-5.5 0-10-4.503-10-10.006s4.5-10.006 10-10.006 10 4.503 10 10.006-4.5 10.006-10 10.006zm3.75-100.56c-3.75 0-7-3.251-7-7.004 0-3.752 3.25-7.004 7-7.004s7 3.252 7 7.004c0 3.753-3 7.005-7 7.005zm0-18.01c-3.75 0-7-3.252-7-7.004s3.25-7.004 7-7.004 7 3.252 7 7.004-3 7.004-7 7.004zm0-18.26c-3.75 0-7-3.253-7-7.005s3.25-7.004 7-7.004 7 3.252 7 7.004-3 7.004-7 7.004zm0-17.761c-3.75 0-7-3.252-7-7.004 0-3.753 3.25-7.005 7-7.005s7 3.252 7 7.005c0 3.752-3 7.004-7 7.004zm0-18.011c-3.75 0-7-3.252-7-7.004s3.25-7.004 7-7.004 7 3.252 7 7.004-3 7.004-7 7.004zm0-18.01c-3.75 0-7-3.253-7-7.005s3.25-7.004 7-7.004 7 3.252 7 7.004-3 7.004-7 7.004zm0-18.011c-3.75 0-7-3.252-7-7.004 0-3.753 3.25-7.005 7-7.005s7 3.252 7 7.005c0 3.752-3 7.004-7 7.004zm0-18.261c-3.75 0-7-3.252-7-7.004s3.25-7.004 7-7.004 7 3.252 7 7.004-3 7.004-7 7.004zm0-35.771c-3.75 0-7-3.252-7-7.004s3.25-7.004 7-7.004 7 3.252 7 7.004-3 7.004-7 7.004zm0-18.01c-3.75 0-7-3.253-7-7.005s3.25-7.004 7-7.004 7 3.252 7 7.004-3 7.004-7 7.004zm0-18.011c-3.75 0-7-3.252-7-7.005 0-3.752 3.25-7.004 7-7.004s7 3.252 7 7.004c0 3.753-3 7.005-7 7.005zm0-18.261c-3.75 0-7-3.252-7-7.004 0-3.753 3.25-7.004 7-7.004s7 3.251 7 7.004c0 3.752-3 7.004-7 7.004zm18 216.378c-3.75 0-7-3.252-7-7.005 0-3.752 3.25-7.004 7-7.004s7 3.252 7 7.004c0 3.753-3 7.005-7 7.005zm0-18.011c-3.75 0-7-3.252-7-7.004s3.25-7.004 7-7.004 7 3.252 7 7.004-3 7.004-7 7.004zm0-18.26c-3.75 0-7-3.253-7-7.005s3.25-7.004 7-7.004 7 3.252 7 7.004-3 7.004-7 7.004zm0-17.761c-3.75 0-7-3.252-7-7.004 0-3.753 3.25-7.005 7-7.005s7 3.252 7 7.005c0 3.752-3 7.004-7 7.004zm0-18.011c-3.75 0-7-3.252-7-7.004s3.25-7.004 7-7.004 7 3.252 7 7.004-3 7.004-7 7.004zm0-18.01c-3.75 0-7-3.253-7-7.005s3.25-7.004 7-7.004 7 3.252 7 7.004-3 7.004-7 7.004zm0-18.011c-3.75 0-7-3.252-7-7.004 0-3.753 3.25-7.005 7-7.005s7 3.252 7 7.005c0 3.752-3 7.004-7 7.004zm0-18.261c-3.75 0-7-3.252-7-7.004s3.25-7.004 7-7.004 7 3.252 7 7.004-3 7.004-7 7.004zm0-35.771c-3.75 0-7-3.252-7-7.004s3.25-7.004 7-7.004 7 3.252 7 7.004-3 7.004-7 7.004zm0-18.01c-3.75 0-7-3.253-7-7.005s3.25-7.004 7-7.004 7 3.252 7 7.004-3 7.004-7 7.004zm0-18.011c-3.75 0-7-3.252-7-7.005 0-3.752 3.25-7.004 7-7.004s7 3.252 7 7.004c0 3.753-3 7.005-7 7.005zm0-18.261c-3.75 0-7-3.252-7-7.004 0-3.753 3.25-7.004 7-7.004s7 3.251 7 7.004c0 3.752-3 7.004-7 7.004zm12.75-25.015a6.724 6.724 0 01-6.75-6.754c0-3.752 3-6.754 6.75-6.754s6.75 3.002 6.75 6.754-3 6.754-6.75 6.754zm0-17.76a6.724 6.724 0 01-6.75-6.754c0-3.753 3-6.754 6.75-6.754s6.75 3.001 6.75 6.754c0 3.752-3 6.754-6.75 6.754zm18 17.76a6.724 6.724 0 01-6.75-6.754c0-3.752 3-6.754 6.75-6.754s6.75 3.002 6.75 6.754-3 6.754-6.75 6.754zm0-17.76a6.724 6.724 0 01-6.75-6.754c0-3.753 3-6.754 6.75-6.754s6.75 3.001 6.75 6.754c0 3.752-3 6.754-6.75 6.754zm18 17.76a6.724 6.724 0 01-6.75-6.754c0-3.752 3-6.754 6.75-6.754s6.75 3.002 6.75 6.754-3 6.754-6.75 6.754zm0-17.76a6.724 6.724 0 01-6.75-6.754c0-3.753 3-6.754 6.75-6.754s6.75 3.001 6.75 6.754c0 3.752-3 6.754-6.75 6.754zm14.25 97.057c-3.25 0-6-2.752-6-6.004s2.75-6.003 6-6.003 6 2.751 6 6.003c0 3.252-2.75 6.004-6 6.004zm0-36.021c-3.25 0-6-2.752-6-6.004s2.75-6.003 6-6.003 6 2.751 6 6.003c0 3.252-2.75 6.004-6 6.004zm3.75-43.276a6.724 6.724 0 01-6.75-6.754c0-3.752 3-6.754 6.75-6.754s6.75 3.002 6.75 6.754-3 6.754-6.75 6.754zm0-17.76a6.724 6.724 0 01-6.75-6.754c0-3.753 3-6.754 6.75-6.754s6.75 3.001 6.75 6.754c0 3.752-3 6.754-6.75 6.754zm8.25 91.053c0-3.252 2.75-6.003 6-6.003s6 2.751 6 6.003c0 3.252-2.75 6.004-6 6.004s-6-2.752-6-6.004zm16.5 235.14c-4.75 0-8.5-3.753-8.5-8.506s3.75-8.505 8.5-8.505 8.5 3.752 8.5 8.505c0 4.753-3.75 8.505-8.5 8.505zm7.5-229.136c-3.25 0-6-2.752-6-6.004s2.75-6.003 6-6.003 6 2.751 6 6.003c0 3.252-2.75 6.004-6 6.004zm0-36.021c-3.25 0-6-2.752-6-6.004s2.75-6.003 6-6.003 6 2.751 6 6.003c0 3.252-2.75 6.004-6 6.004zm3.75-43.276a6.724 6.724 0 01-6.75-6.754c0-3.752 3-6.754 6.75-6.754s6.75 3.002 6.75 6.754-3 6.754-6.75 6.754zm0-17.76a6.724 6.724 0 01-6.75-6.754c0-3.753 3-6.754 6.75-6.754s6.75 3.001 6.75 6.754c0 3.752-3 6.754-6.75 6.754zm15.75 326.192c-4.75 0-8.5-3.752-8.5-8.505 0-4.753 3.75-8.505 8.5-8.505s8.5 3.752 8.5 8.505c0 4.753-3.75 8.505-8.5 8.505zm5.75-84.55c-4.25 0-7.75-3.502-7.75-7.754 0-4.253 3.5-7.755 7.75-7.755s7.75 3.502 7.75 7.755c0 4.252-3.5 7.754-7.75 7.754zm7.75-230.386c0-3.752 3-6.754 6.75-6.754s6.75 3.002 6.75 6.754-3 6.754-6.75 6.754c-3.75-.25-6.75-3.252-6.75-6.754zm2.5 222.882c0-4.253 3.5-7.755 7.75-7.755s7.75 3.502 7.75 7.755c0 4.252-3.5 7.754-7.75 7.754s-7.75-3.502-7.75-7.754zm17.25 92.054c-4.75 0-8.5-3.752-8.5-8.505 0-4.753 3.75-8.505 8.5-8.505s8.5 3.752 8.5 8.505c0 4.753-3.75 8.505-8.5 8.505zm5-308.432a6.724 6.724 0 01-6.75-6.754c0-3.752 3-6.754 6.75-6.754s6.75 3.002 6.75 6.754-3 6.754-6.75 6.754zm0-17.76a6.724 6.724 0 01-6.75-6.754c0-3.753 3-6.754 6.75-6.754s6.75 3.001 6.75 6.754c0 3.752-3 6.754-6.75 6.754zm11.25 11.256c0-3.752 3-6.754 6.75-6.754s6.75 3.002 6.75 6.754-3 6.754-6.75 6.754-6.75-3.252-6.75-6.754zm10.75 314.936c-4.75 0-8.5-3.752-8.5-8.505 0-4.753 3.75-8.505 8.5-8.505s8.5 3.752 8.5 8.505c0 4.753-3.75 8.505-8.5 8.505zm14-308.432a6.724 6.724 0 01-6.75-6.754c0-3.752 3-6.754 6.75-6.754s6.75 3.002 6.75 6.754-3 6.754-6.75 6.754zm0-17.76a6.724 6.724 0 01-6.75-6.754c0-3.753 3-6.754 6.75-6.754s6.75 3.001 6.75 6.754c0 3.752-3 6.754-6.75 6.754zm18 17.76a6.724 6.724 0 01-6.75-6.754c0-3.752 3-6.754 6.75-6.754s6.75 3.002 6.75 6.754-3 6.754-6.75 6.754zm0-17.76a6.724 6.724 0 01-6.75-6.754c0-3.753 3-6.754 6.75-6.754s6.75 3.001 6.75 6.754c0 3.752-3 6.754-6.75 6.754zm18 17.76a6.724 6.724 0 01-6.75-6.754c0-3.752 3-6.754 6.75-6.754s6.75 3.002 6.75 6.754-3 6.754-6.75 6.754zm0-17.76a6.724 6.724 0 01-6.75-6.754c0-3.753 3-6.754 6.75-6.754s6.75 3.001 6.75 6.754c0 3.752-3 6.754-6.75 6.754zm18 17.76a6.724 6.724 0 01-6.75-6.754c0-3.752 3-6.754 6.75-6.754s6.75 3.002 6.75 6.754-3 6.754-6.75 6.754zm0-17.76a6.724 6.724 0 01-6.75-6.754c0-3.753 3-6.754 6.75-6.754s6.75 3.001 6.75 6.754c0 3.752-3 6.754-6.75 6.754zm18 17.76a6.724 6.724 0 01-6.75-6.754c0-3.752 3-6.754 6.75-6.754s6.75 3.002 6.75 6.754-3 6.754-6.75 6.754zm0-17.76a6.724 6.724 0 01-6.75-6.754c0-3.753 3-6.754 6.75-6.754s6.75 3.001 6.75 6.754c0 3.752-3 6.754-6.75 6.754zm18 17.76a6.724 6.724 0 01-6.75-6.754c0-3.752 3-6.754 6.75-6.754s6.75 3.002 6.75 6.754-3 6.754-6.75 6.754zm0-17.76a6.724 6.724 0 01-6.75-6.754c0-3.753 3-6.754 6.75-6.754s6.75 3.001 6.75 6.754c0 3.752-3 6.754-6.75 6.754zm18 17.76a6.724 6.724 0 01-6.75-6.754c0-3.752 3-6.754 6.75-6.754s6.75 3.002 6.75 6.754-3 6.754-6.75 6.754zm0-17.76a6.724 6.724 0 01-6.75-6.754c0-3.753 3-6.754 6.75-6.754s6.75 3.001 6.75 6.754c0 3.752-3 6.754-6.75 6.754zm18 17.76a6.724 6.724 0 01-6.75-6.754c0-3.752 3-6.754 6.75-6.754s6.75 3.002 6.75 6.754-3 6.754-6.75 6.754zm0-17.76a6.724 6.724 0 01-6.75-6.754c0-3.753 3-6.754 6.75-6.754s6.75 3.001 6.75 6.754c0 3.752-3 6.754-6.75 6.754zm18 17.76a6.724 6.724 0 01-6.75-6.754c0-3.752 3-6.754 6.75-6.754s6.75 3.002 6.75 6.754-3 6.754-6.75 6.754zm0-17.76a6.724 6.724 0 01-6.75-6.754c0-3.753 3-6.754 6.75-6.754s6.75 3.001 6.75 6.754c0 3.752-3 6.754-6.75 6.754zm18 17.76a6.724 6.724 0 01-6.75-6.754c0-3.752 3-6.754 6.75-6.754s6.75 3.002 6.75 6.754-3 6.754-6.75 6.754zm0-17.76a6.724 6.724 0 01-6.75-6.754c0-3.753 3-6.754 6.75-6.754s6.75 3.001 6.75 6.754c0 3.752-3 6.754-6.75 6.754zm34.5 359.712c-5.5 0-10-4.503-10-10.006s4.5-10.006 10-10.006c5.499 0 9.999 4.503 9.999 10.006s-4.5 10.006-10 10.006zm0-347.455c-5.5 0-10-4.503-10-10.006s4.5-10.006 10-10.006c5.499 0 9.999 4.503 9.999 10.006s-4.5 10.006-10 10.006z" fill="#203063" stroke-width="2.501"/>
  <g id="gge272_3" transform="matrix(2.5 0 0 2.50148 .018 .409)">
    <path class="st1" d="M103.7 81.7h.7c.7 0 1.1.2 1.1.8 0 .6-.4.8-1.1.8h-.7zm2.3 3.8l-1.1-1.9c.6-.1 1-.5 1-1.2 0-.9-.6-1.2-1.5-1.2h-1.3v4.2h.5v-1.8h.8l1.1 1.8zm1.9.1c.8 0 1.4-.6 1.4-1.6s-.7-1.6-1.4-1.6c-.8 0-1.4.6-1.4 1.6s.6 1.6 1.4 1.6zm0-.4c-.6 0-1-.5-1-1.2s.4-1.2 1-1.2 1 .5 1 1.2c-.1.7-.5 1.2-1 1.2zm3.6.4c.7 0 1.4-.6 1.4-1.7 0-1-.4-1.6-1.2-1.6-.4 0-.7.2-1 .4v-1.9h-.5v4.6h.4l.1-.3c.2.3.5.5.8.5zm-.1-.4c-.2 0-.5-.1-.8-.3v-1.7c.3-.3.6-.4.9-.4.6 0 .9.5.9 1.2s-.4 1.2-1 1.2zm3.5.4c.8 0 1.4-.6 1.4-1.6s-.7-1.6-1.4-1.6c-.8 0-1.4.6-1.4 1.6s.6 1.6 1.4 1.6zm0-.4c-.6 0-.9-.5-.9-1.2s.4-1.2.9-1.2c.6 0 1 .5 1 1.2-.1.7-.5 1.2-1 1.2zm3.6.3h.5v-2h2v2h.5v-4.2h-.5v1.8h-2v-1.8h-.5zm4.6-1.7l.2-.7c.2-.5.3-.9.4-1.4.1.5.3 1 .4 1.4l.2.7zm1.9 1.7h.5l-1.4-4.2h-.5l-1.4 4.2h.5l.4-1.3h1.6zm1.7 0h.5v-3.8h1.3v-.4h-3.1v.4h1.3v3.8zm3.8 0h.4v-2.4c0-.4 0-.9-.1-1.2l.3 1 .8 2.3h.3l.8-2.3.3-1c0 .4-.1.9-.1 1.2v2.4h.4v-4.2h-.6l-.8 2.3-.3.9-.3-.9-.8-2.3h-.6v4.2zm4.6 0h.4v-2.4c0-.4 0-.9-.1-1.2l.3 1 .8 2.3h.3l.8-2.3.3-1c0 .4-.1.9-.1 1.2v2.4h.4v-4.2h-.6l-.8 2.3-.3.9-.3-.9-.8-2.3h-.6v4.2zm4.6 0h2.3v-.4h-.9v-3.8h-.4c-.2.1-.5.2-.8.3v.3h.7v3.2h-.9z" id="path5" fill="#fff"/>
  </g>
  <g id="gge276_3" transform="matrix(2.5 0 0 2.50148 .018 .409)">
    <path class="st3" d="M22.7 19.2l.2.3.5.5H20" id="path11" fill="none" stroke="#fff" stroke-width=".8"/>
  </g>
  <g id="gge277_3" transform="matrix(2.5 0 0 2.50148 .018 .409)">
    <path class="st3" d="M22.6 55.2l.2.3.5.5h-3.4" id="path14" fill="none" stroke="#fff" stroke-width=".8"/>
  </g>
  <g id="gge278_3" transform="matrix(2.5 0 0 2.50148 .018 .409)">
    <path class="st3" d="M23.2 52l-2.3-1.6v2.5m2.3-.9h-3.4" id="path17" fill="none" stroke="#fff" stroke-width=".8"/>
  </g>
  <g id="gge279_3" transform="matrix(2.5 0 0 2.50148 .018 .409)">
    <path class="st3" d="M23.2 116l-.2-.5-.3-.2h-.3l-.3.2-.2.3-.2.7-.2.5-.3.3-.3.2h-.5l-.3-.2-.2-.2-.2-.5v-.7l.2-.5.2-.2.3-.2h.5l.3.2.3.3.2.5.2.7.2.3.3.2h.3l.3-.2.2-.5v-.5" id="path20" fill="none" stroke="#fff" stroke-width=".8"/>
  </g>
  <g id="gge595_3" transform="matrix(2.5 0 0 2.50148 .018 .409)">
    <path class="st4" d="M107.2 129.3v2.6m-1.4-1.2h2.6m1.1-1.8v3.1m0-3.1h1.3l.4.1.1.2.2.3v.3l-.2.3-.1.2-.4.1m-1.3 0h1.3l.4.2.1.1.2.3v.4l-.2.3-.1.2-.4.1h-1.3m4.2-3.1l-1.2 3.1m1.2-3.1l1.2 3.1m-2-1h1.5m2.5-2.1v3.1m-1.1-3.1h2.1" id="path35" fill="none" stroke="#fff" stroke-width=".6"/>
  </g>
  <g id="gge691_3" transform="matrix(2.5 0 0 2.50148 .018 .409)">
    <path class="st4" d="M54.5 128.9v3.1m0-3.1h1.3l.4.1.2.1.1.3v.4l-.1.3-.2.1-.4.2h-1.3m3.1-1.5l.7 3.1m.7-3.1l-.7 3.1m.7-3.1l.7 3.1m.8-3.1l-.7 3.1m1.7-3.1v3.1m0-3.1h1.3l.4.1.1.1.2.3v.3l-.2.3-.1.2-.4.1h-1.3m1 .1l1 1.6m4.6-2.7v2.6m-1.3-1.2h2.6" id="path71" fill="none" stroke="#fff" stroke-width=".6"/>
  </g>
  <g id="gge700_3" transform="matrix(2.5 0 0 2.50148 .018 .409)">
    <path class="st4" d="M79 128.9v3.1m0-3.1h1.9m-1.9 1.5h1.2M79 132h1.9m3.1-2.7l-.3-.3-.4-.1h-.6l-.4.1-.3.3v.3l.1.3.2.1.3.2.9.3.3.1.2.1.1.3v.4l-.3.3-.4.1h-.6l-.4-.1-.3-.3m5-1.8l-.1-.3-.3-.3-.3-.1h-.6l-.3.1-.3.3-.1.3-.2.4v.7l.2.4.1.3.3.3.3.1h.6l.3-.1.3-.3.1-.3m4.6-1.8v2.6m-1.3-1.2H93" id="path74" fill="none" stroke="#fff" stroke-width=".6"/>
  </g>
  <g id="gge711_3" transform="matrix(2.5 0 0 2.50148 .018 .409)">
    <path class="st4" d="M110.6 117.7l-.2-.3-.3-.3-.3-.1h-.6l-.3.1-.3.3-.2.3-.1.4v.7l.1.4.2.3.3.3.3.1h.6l.3-.1.3-.3.2-.3m.9-2.2v3.1m2.1-3.1v3.1m-2.1-1.6h2.1m1-1.5v3.1m0-3.1h1.3l.4.1.1.1.2.3v.3l-.2.3-.1.2-.4.1h-1.3m1 .1l1 1.6m3.2-2.4l-.1-.3-.3-.3-.3-.1h-.6l-.3.1-.3.3-.1.3-.1.4v.7l.1.4.1.3.3.3.3.1h.6l.3-.1.3-.3.1-.3v-.4m-.7.1h.7" id="path77" fill="none" stroke="#fff" stroke-width=".6"/>
  </g>
  <g id="gge730_3" transform="matrix(2.5 0 0 2.50148 .018 .409)">
    <path class="st4" d="M7.8 121.7H4.7m3.1 0v1.3l-.1.4-.1.2-.3.1h-.6l-.3-.1-.1-.2-.2-.4v-1.3m1.7 3.9l-.1-.3-.3-.3-.3-.1-.4-.2H6l-.4.2-.3.1-.3.3-.3.3v.6l.1.3.3.3.3.1.4.2h.7l.4-.2.3-.1.3-.3.1-.3v-.6m.2 2.4l-3.1.7m3.1.8l-3.1-.7m3.1.7l-3.1.7m3.1.8l-3.1-.7m3.1 1.6H4.7m3.1 0v1.9m-1.5-1.9v1.2m-1.6-1.2v1.9m3.1 1H4.7m3.1 0v1.3l-.1.4-.1.2-.3.1H7l-.3-.1-.2-.2-.1-.4v-1.3m-.1 1.1l-1.6 1" id="path86" fill="none" stroke="#fff" stroke-width=".6"/>
  </g>
  <g id="gge744_3" transform="matrix(2.5 0 0 2.50148 .018 .409)">
    <path class="st4" d="M144.4 105.1v3.1m0-3.1h1.3l.4.2.2.1.1.3v.3l-.1.3-.2.1-.4.2h-1.3m1 0l1 1.6m1-3.1v3.1m0-3.1h1.9m-1.9 1.5h1.2m-1.2 1.6h1.9m3-2.6l-.3-.3-.4-.2h-.6l-.4.2-.3.3v.3l.2.3.1.2.3.1.9.3.3.2.1.1.2.3v.4l-.3.3-.4.2h-.6l-.4-.2-.3-.3m2.9-2.7v3.1m0-3.1h1.9m-1.9 1.5h1.2m-1.2 1.6h1.9m2-3.1v3.1m-1-3.1h2.1" id="path89" fill="none" stroke="#fff" stroke-width=".6"/>
  </g>
  <g id="gge763_3" transform="matrix(2.5 0 0 2.50148 .018 .409)">
    <path class="st4" d="M28.8 148.3v2.2l.2.4.3.3.4.1h.3l.4-.1.3-.3.2-.4v-2.2m3 .4l-.3-.3-.4-.1h-.6l-.4.1-.3.3v.3l.1.3.2.1.3.2.9.3.3.1.2.1.1.3v.4l-.3.3-.4.1h-.6l-.4-.1-.3-.3m2.9-2.5v3.1m0-3.1h1.3l.4.1.2.1.1.3v.3l-.1.3-.2.2-.4.1m-1.3.1h1.3l.4.2.2.1.1.3v.4l-.1.3-.2.2-.4.1h-1.3" id="path92" fill="none" stroke="#fff" stroke-width=".6"/>
  </g>
  <g id="gge781_3" transform="matrix(2.5 0 0 2.50148 .018 .409)">
    <path class="st4" d="M28.4 121.1v2.2l.1.4.3.3.4.1h.3l.4-.1.3-.3.1-.4v-2.2m3.2.4l-.3-.3-.4-.1h-.6l-.4.1-.3.3v.3l.2.3.1.1.3.2.9.3.3.1.1.1.2.3v.4l-.3.3-.4.1h-.6l-.4-.1-.3-.3m2.9-2.5v3.1m0-3.1h1.3l.4.1.2.1.1.3v.3l-.1.3-.2.2-.4.1m-1.3.1h1.3l.4.2.2.1.1.3v.4l-.1.3-.2.2-.4.1h-1.3" id="path95" fill="none" stroke="#fff" stroke-width=".6"/>
  </g>
  <g id="gge787_3" transform="matrix(2.5 0 0 2.50148 .018 .409)">
    <path class="st4" d="M29.3 81.6l.3-.3.1-.4v-.6l-.1-.4-.3-.3H29l-.3.1-.1.2-.2.3-.3.9-.1.3-.1.2h-.8l-.3-.3-.1-.4v-.6l.1-.4.3-.3m2.6 3h-3.1m3.1 0v1.9m-1.4-1.9v1.2m-1.7-1.2v1.9m3.1 1h-3.1m3.1 0v1.3l-.1.4-.1.1-.3.2h-.3l-.3-.2-.2-.1-.1-.4v-1.3m0 1l-1.6 1m3 1l-3.1 1.2m3.1 1.2l-3.1-1.2m3.1 3l-.1-.3-.3-.3-.3-.2-.4-.1h-.7l-.4.1-.3.2-.3.3-.1.3v.6l.1.3.3.3.3.2.4.1h.7l.4-.1.3-.2.3-.3.1-.3v-.6" id="path98" fill="none" stroke="#fff" stroke-width=".6"/>
  </g>
  <g id="gge846_3" transform="matrix(2.5 0 0 2.50148 .018 .409)">
    <path class="st4" d="M43.6 52.2v2.1m0-1.5l.4-.4.3-.1h.4l.3.1.1.4v1.5m1.1-1.3H48v-.3l-.1-.3-.1-.2-.3-.1h-.4l-.3.1-.5.4-.1.4v.3l.1.4.3.3.3.1h.4l.3-.1.3-.3m1.7-1.5l-.3.1-.3.3-.2.4v.3l.2.4.3.3.3.1h.4l.3-.1.3-.3.1-.4v-.7l-.3-.3-.3-.1h-.5m2.2 0v3.1m0-2.7l.3-.3.3-.1h.4l.3.1.3.3.2.4v.3l-.2.4-.3.3-.3.1h-.4l-.3-.1-.3-.3m2.7-2.6v0h.3l-.1-.1-.2.1m.2 1.1v2.1m1.1-2.1l1.6 2.1m0-2.1l-1.6 2.1m2.6-1.3h1.8v-.3l-.1-.3-.2-.2-.3-.1h-.4l-.3.1-.4.4-.1.4v.3l.1.4.3.3.3.1h.4l.3-.1.3-.3m1-2.6v3.1" id="path101" fill="none" stroke="#fff" stroke-width=".6"/>
  </g>
  <g id="gge878_3" transform="matrix(2.5 0 0 2.50148 .018 .409)">
    <path class="st4" d="M146.5 78.5v3.1m0 0h1.8m1-3.1v3.1m0-3.1h1.9m-1.9 1.4h1.2m-1.2 1.7h1.9m.9-3.1v3.1m0-3.1h1l.4.2.3.3.2.3.1.4v.7l-.1.4-.2.3-.3.3-.4.2h-1" id="path110" fill="none" stroke="#fff" stroke-width=".6"/>
  </g>
  <g id="gge885_3" transform="matrix(2.5 0 0 2.50148 .018 .409)">
    <path class="st4" d="M65.2 109.9H67v-.3l-.1-.3-.1-.2-.3-.1h-.4l-.3.1-.3.3-.3.5v.3l.1.4.3.3.3.1h.4l.3-.1.3-.3m1-.9h2.7m2.5-.2l-.2-.3-.4-.1h-.4l-.4.1-.1.3.1.3.3.1.7.2.3.1.2.3v.2l-.2.3-.4.1h-.4l-.4-.1-.1-.3m2.9-2.7v2.5l.1.4.3.1h.3m-1.2-2h1m1.9 0l-.3.1-.3.3-.2.4v.3l.2.4.3.3.3.1h.4l.3-.1.3-.3.1-.4v-.3l-.1-.4-.3-.3-.3-.1H77m2.1 0v3.1m0-2.6l.3-.3.3-.1h.4l.3.1.3.3.2.4v.3l-.2.4-.3.3-.3.1h-.4l-.3-.1-.3-.3" id="path113" fill="none" stroke="#fff" stroke-width=".6"/>
  </g>
  <g id="gge944_3" transform="matrix(2.5 0 0 2.50148 .018 .409)">
    <path class="st4" d="M169.3 25.6l-.3.3-.2.4v.6l.2.4.3.3h.3l.3-.1.2-.2.1-.3.3-.9.2-.3.1-.2.3-.1h.4l.3.3.2.4v.6l-.2.4-.3.3m-2.6-2.8h3.1m-3.1 0v-1.3l.2-.4.1-.1.3-.2h.4l.3.2.2.1.1.4v1.3m-1.6-3.1h3.1" id="path116" fill="none" stroke="#fff" stroke-width=".6"/>
  </g>
  <g id="gge953_3" transform="matrix(2.5 0 0 2.50148 .018 .409)">
    <path class="st4" d="M25.2 121.7h-3.1m3.1 0v1.3l-.1.4-.1.2-.3.1h-.4l-.3-.1-.1-.2-.2-.4v-1.3m1.5 3l-.1.2.1.1.2-.1-.2-.2m-1.1.1H22m1.4 1.2v2.6m1.8 1.9l-.1-.3-.3-.3-.3-.1-.4-.2h-.7l-.4.2-.3.1-.3.3-.1.3v.6l.1.3.3.3.3.1.4.2h.7l.4-.2.3-.1.3-.3.1-.3v-.6m0 2.4h-3.1m3.1 0l-3.1 2.1m3.1 0h-3.1" id="path119" fill="none" stroke="#fff" stroke-width=".6"/>
  </g>
  <g id="gge977_3" transform="matrix(2.5 0 0 2.50148 .018 .409)">
    <path class="st4" d="M168.8 117.1h3.1m-2.3-1.1h-.2l-.3-.2-.1-.1-.1-.3v-.6l.1-.3.1-.1.3-.2h.3l.3.2.4.3 1.5 1.5v-2.1m-2.3-3.2l-.3.1-.3.3-.1.3v.6l.1.3.3.3.3.1.4.2h.7l.4-.2.3-.1.3-.3.1-.3v-.6l-.1-.3-.3-.3-.3-.1" id="path125" fill="none" stroke="#fff" stroke-width=".6"/>
  </g>
  <g id="gge992_3" transform="matrix(2.5 0 0 2.50148 .018 .409)">
    <path class="st4" d="M170 72.3l-.3.2-.3.3-.1.3v.5l.1.3.3.3.3.2.4.1h.7l.4-.1.3-.2.3-.3.1-.3V73l-.1-.3-.3-.3-.3-.2h-.4m0 .8v-.7m-1.9-1h3.1m-3.1 0V70l.1-.4.1-.2.3-.1h.4l.3.1.3.2.2.4v1.3m-1.2-5.1l-.3.3-.1.4v.7l.1.4.3.3h.3l.3-.2.1-.1.2-.3.3-.9.1-.3.1-.1.3-.2h.4l.3.3.1.4v.7l-.1.4-.3.3" id="path128" fill="none" stroke="#fff" stroke-width=".6"/>
  </g>
  <g id="gge1004_3" transform="matrix(2.5 0 0 2.50148 .018 .409)">
    <path class="st4" d="M146.6 125.7l-.2-.3-.3-.3-.3-.1h-.6l-.3.1-.3.3-.2.3-.1.4v.7l.1.4.2.3.3.3.3.1h.6l.3-.1.3-.3.2-.3v-.4m-.8 0h.7m1-1.9v3.1m0-3.1h1.3l.4.1.2.1.1.3v.3l-.1.3-.2.2-.4.1h-1.3m1.1.1l1 1.6m1.9-3.1l-.3.1-.3.3-.1.3-.2.4v.7l.2.4.1.3.3.3.3.1h.6l.3-.1.3-.3.1-.3.1-.4v-.7l-.1-.4-.1-.3-.3-.3-.3-.1h-.6m2.4 0l1.2 3.1m1.2-3.1l-1.2 3.1m2.1-3.1v3.1m0-3.1h1.9m-1.9 1.5h1.2m-1.2 1.6h1.9" id="path131" fill="none" stroke="#fff" stroke-width=".6"/>
  </g>
  <g id="gge1012_3" transform="matrix(2.5 0 0 2.50148 .018 .409)">
    <path class="st4" d="M42.5 36.4v3.1m0-3.1h1.3l.4.1.2.1.1.3v.4l-.1.3-.2.1-.4.2h-1.3m3-1.5l.2.1.1-.1-.1-.2-.2.2m.2 1v2.1m1.1-1.4h2.6m2.6-.2l-.1-.3-.4-.1h-.4l-.6.1-.2.3.2.3.3.1.7.2.3.1.1.3v.2l-.1.3-.4.1H51l-.4-.1-.2-.3m2.6-.8h1.8V38l-.2-.3-.1-.1-.3-.1h-.5l-.3.1-.3.3-.1.4v.3l.2.4.3.3.3.1h.4l.3-.1.3-.3m.9-1.6v2.1m0-1.2l.1-.4.3-.3.3-.1h.4m1.1-1.1v0h.2l-.1-.2-.1.2m.1 1v2.1m2.9-2.1v2.1m0-1.6l-.3-.3-.3-.1h-.4l-.3.1-.3.3-.2.4v.3l.2.4.3.3.3.1h.4l.3-.1.3-.3m1-2.6v3.1" id="path134" fill="none" stroke="#fff" stroke-width=".6"/>
  </g>
  <g id="gge1056_3" transform="matrix(2.5 0 0 2.50148 .018 .409)">
    <path class="st4" d="M52.6 60.4v3.1m0-.1h1.8m2.7-3h-1.5l-.1 1.3.1-.1.4-.2h.4l.4.2.3.3.2.4v.3l-.2.4-.3.3-.4.2H56l-.4-.2-.1-.1-.2-.3" id="path146" fill="none" stroke="#fff" stroke-width=".6"/>
  </g>
  <g id="gge1076_3" transform="matrix(2.5 0 0 2.50148 .018 .409)">
    <path class="st4" d="M48.9 114.3h-3.1m3.1 0v1.3l-.1.4-.1.2-.3.1h-.3l-.3-.1-.2-.2-.1-.4v-1.3m0 1l-1.6 1m2.3 1.2h.2l.3.1.1.2.1.3v.6l-.1.3-.1.2-.3.1h-.3l-.3-.1-.4-.3-1.5-1.5v2.1m3 1.7l-.1-.4-.4-.3-.7-.1h-.4l-.7.1-.4.3-.1.4v.3l.1.4.4.3.7.2h.4l.7-.2.4-.3.1-.4v-.3" id="path149" fill="none" stroke="#fff" stroke-width=".6"/>
  </g>
  <path id="gge596_3" class="st5" fill="none" stroke="#fff" stroke-width="2.001" stroke-linecap="round" d="M295.767 398.894h-31.75"/>
  <path id="gge597_3" class="st5" transform="matrix(2.5 0 0 2.50148 .018 .409)" fill="none" stroke="#fff" stroke-width=".8" stroke-linecap="round" d="M100.6 149.4v-11.3h2.4v7.1h4"/>
  <path id="gge598_3" class="st5" transform="matrix(2.5 0 0 2.50148 .018 .409)" fill="none" stroke="#fff" stroke-width=".8" stroke-linecap="round" d="M116.9 145.2h4v-7.1h2.4v11.3"/>
  <path id="gge694_3" class="st6" fill="none" stroke="#fff" stroke-width="2.501" stroke-linecap="round" d="M124.768 399.394h59.25"/>
  <path id="gge703_3" class="st6" fill="none" stroke="#fff" stroke-width="2.501" stroke-linecap="round" d="M185.018 399.394h59.25"/>
  <path id="gge714_3" class="st6" transform="matrix(2.5 0 0 2.50148 .018 .409)" fill="none" stroke="#fff" stroke-linecap="round" d="M113.6 122.8v2.8h0l1.4-1.4h0l-1.4-1.4"/>
  <path id="gge731_3" class="st6" fill="none" stroke="#fff" stroke-width="2.501" stroke-linecap="round" d="M1.268 334.356h7"/>
  <path id="gge732_3" class="st6" fill="none" stroke="#fff" stroke-width="2.501" stroke-linecap="round" d="M1.268 313.093v21.263"/>
  <path id="gge733_3" class="st6" fill="none" stroke="#fff" stroke-width="2.501" stroke-linecap="round" d="M8.268 313.093h-7"/>
  <path id="gge734_3" class="st6" fill="none" stroke="#fff" stroke-width="2.501" stroke-linecap="round" d="M8.268 350.615v-53.781"/>
  <path id="gge745_3" class="st6" transform="matrix(2.5 0 0 2.50148 .018 .409)" fill="none" stroke="#fff" stroke-linecap="round" d="M154.4 113v4.3h-7.2V113h7.2"/>
  <path id="gge746_3" class="st6" fill="none" stroke="#fff" stroke-width="2.501" stroke-linecap="round" d="M355.767 301.586v-26.265"/>
  <path id="gge747_3" class="st6" fill="none" stroke="#fff" stroke-width="2.501" stroke-linecap="round" d="M355.767 275.321h42.5"/>
  <path id="gge748_3" class="st6" fill="none" stroke="#fff" stroke-width="2.501" stroke-linecap="round" d="M398.267 301.586h-42.5"/>
  <path id="gge749_3" class="st6" fill="none" stroke="#fff" stroke-width="2.501" stroke-linecap="round" d="M398.267 275.321v26.265"/>
  <path id="gge767_3" class="st6" fill="none" stroke="#fff" stroke-width="2.501" stroke-linecap="round" d="M110.268 398.894h-56.75"/>
  <path id="gge768_3" class="st6" fill="none" stroke="#fff" stroke-width="2.501" stroke-linecap="round" d="M106.018 393.891h-48"/>
  <path id="gge769_3" class="st6" transform="matrix(2.5 0 0 2.50148 .018 .409)" fill="none" stroke="#fff" stroke-linecap="round" d="M44 159.3v-.3l-1.6-1.7"/>
  <path id="gge770_3" class="st6" transform="matrix(2.5 0 0 2.50148 .018 .409)" fill="none" stroke="#fff" stroke-linecap="round" d="M21.5 159.3v-.3l1.7-1.7"/>
  <path id="gge784_3" class="st6" transform="matrix(2.5 0 0 2.50148 .018 .409)" fill="none" stroke="#fff" stroke-linecap="round" d="M33.4 129.6v-2.9h0l-1.4 1.4h0l1.4 1.5"/>
  <path id="gge881_3" class="st6" transform="matrix(2.5 0 0 2.50148 .018 .409)" fill="none" stroke="#fff" stroke-linecap="round" d="M151.1 87.4v-2.8h0l-1.4 1.4h0l1.4 1.4"/>
  <path id="gge899_3" class="st6" fill="none" stroke="#fff" stroke-width="2.501" stroke-linecap="round" d="M172.018 300.336l2.75 7.004"/>
  <path id="gge900_3" class="st6" fill="none" stroke="#fff" stroke-width="2.501" stroke-linecap="round" d="M174.768 307.34h-5.75"/>
  <path id="gge901_3" class="st6" fill="none" stroke="#fff" stroke-width="2.501" stroke-linecap="round" d="M169.018 307.34l3-7.004"/>
  <path id="gge902_3" class="st6" fill="none" stroke="#fff" stroke-width="2.501" stroke-linecap="round" d="M166.268 313.343v-19.011"/>
  <path id="gge903_3" class="st6" fill="none" stroke="#fff" stroke-width="2.501" stroke-linecap="round" d="M166.268 294.332h11.5"/>
  <path id="gge904_3" class="st6" fill="none" stroke="#fff" stroke-width="2.501" stroke-linecap="round" d="M177.768 294.332v19.011"/>
  <path id="gge905_3" class="st6" fill="none" stroke="#fff" stroke-width="2.501" stroke-linecap="round" d="M177.768 313.343h-11.5"/>
  <path id="gge906_3" class="st6" fill="none" stroke="#fff" stroke-width="2.501" stroke-linecap="round" d="M168.268 299.335h7.25"/>
  <path id="gge912_3" class="st6" fill="none" stroke="#fff" stroke-width="2.501" stroke-linecap="round" d="M152.018 300.336l3 7.004"/>
  <path id="gge913_3" class="st6" fill="none" stroke="#fff" stroke-width="2.501" stroke-linecap="round" d="M155.018 307.34h-5.75"/>
  <path id="gge914_3" class="st6" fill="none" stroke="#fff" stroke-width="2.501" stroke-linecap="round" d="M149.268 307.34l2.75-7.004"/>
  <path id="gge915_3" class="st6" fill="none" stroke="#fff" stroke-width="2.501" stroke-linecap="round" d="M146.268 313.343v-19.011"/>
  <path id="gge916_3" class="st6" fill="none" stroke="#fff" stroke-width="2.501" stroke-linecap="round" d="M146.268 294.332h11.5"/>
  <path id="gge917_3" class="st6" fill="none" stroke="#fff" stroke-width="2.501" stroke-linecap="round" d="M157.768 294.332v19.011"/>
  <path id="gge918_3" class="st6" fill="none" stroke="#fff" stroke-width="2.501" stroke-linecap="round" d="M157.768 313.343h-11.5"/>
  <path id="gge919_3" class="st6" fill="none" stroke="#fff" stroke-width="2.501" stroke-linecap="round" d="M148.518 299.335h7.25"/>
  <path id="gge925_3" class="st6" fill="none" stroke="#fff" stroke-width="2.501" stroke-linecap="round" d="M191.768 300.336l2.75 7.004"/>
  <path id="gge926_3" class="st6" fill="none" stroke="#fff" stroke-width="2.501" stroke-linecap="round" d="M194.518 307.34h-5.75"/>
  <path id="gge927_3" class="st6" fill="none" stroke="#fff" stroke-width="2.501" stroke-linecap="round" d="M188.768 307.34l3-7.004"/>
  <path id="gge928_3" class="st6" fill="none" stroke="#fff" stroke-width="2.501" stroke-linecap="round" d="M186.018 313.343v-19.011"/>
  <path id="gge929_3" class="st6" fill="none" stroke="#fff" stroke-width="2.501" stroke-linecap="round" d="M186.018 294.332h11.5"/>
  <path id="gge930_3" class="st6" fill="none" stroke="#fff" stroke-width="2.501" stroke-linecap="round" d="M197.518 294.332v19.011"/>
  <path id="gge931_3" class="st6" fill="none" stroke="#fff" stroke-width="2.501" stroke-linecap="round" d="M197.518 313.343h-11.5"/>
  <path id="gge932_3" class="st6" fill="none" stroke="#fff" stroke-width="2.501" stroke-linecap="round" d="M188.018 299.335h7.25"/>
  <path id="gge948_3" class="st6" fill="none" stroke="#fff" stroke-width="2.501" stroke-linecap="round" d="M436.267 66.698v74.544"/>
  <path id="gge956_3" class="st6" transform="matrix(2.5 0 0 2.50148 .018 .409)" fill="none" stroke="#fff" stroke-linecap="round" d="M19.1 128.2h-2.9 0l1.4 1.5h0l1.5-1.5"/>
  <path id="gge980_3" class="st6" fill="none" stroke="#fff" stroke-width="2.501" stroke-linecap="round" d="M435.767 291.08v47.278"/>
  <path id="gge996_3" class="st6" fill="none" stroke="#fff" stroke-width="2.501" stroke-linecap="round" d="M436.267 182.766v65.539"/>
  <path id="gge1078_3" class="st7" fill="none" stroke="#fff" stroke-width="1.25" stroke-linecap="round" d="M107.018 283.075h21.75"/>
  <path id="gge1079_3" class="st7" fill="none" stroke="#fff" stroke-width="1.25" stroke-linecap="round" d="M107.018 313.844h21.75"/>
  <path id="gge1080_3" class="st7" fill="none" stroke="#fff" stroke-width="1.25" stroke-linecap="round" d="M107.018 320.848v-45.027"/>
  <path id="gge1081_3" class="st7" fill="none" stroke="#fff" stroke-width="1.25" stroke-linecap="round" d="M107.018 275.821h21.75"/>
  <path id="gge1082_3" class="st7" fill="none" stroke="#fff" stroke-width="1.25" stroke-linecap="round" d="M128.768 275.821v45.027"/>
  <path id="gge1083_3" class="st7" fill="none" stroke="#fff" stroke-width="1.25" stroke-linecap="round" d="M128.768 320.848h-21.75"/>
  <path id="gge271" class="st1" d="M314.517 79.955c-3.5 1.001-5.75 4.753-4.75 8.005 1 3.252 3.75 5.003 7 4.753s5.5-2.501 5.75-5.753c.5-4.503-3.5-8.255-8-7.005m-20.25 9.756c-4.25 1.501-6.25 4.753-6.25 9.756 0 4.002 2 9.005 5 12.257.75 1 1.5 1.751 1.5 1.751l-1.5 1.501c-2.25 2.001-5.25 6.254-6.5 8.755-3.5 7.255-2.25 14.509 3 16.76 1.5.5 5.25.5 7.5 0 2.5-.75 7.75-3.502 11.5-6.003 7.5-5.003 8.75-5.003 16-.25 9.5 6.253 15.75 8.004 20 5.753 3.25-1.751 5-5.753 4.25-10.256-1-5.003-3.25-9.256-7.5-13.758l-2.75-2.752.75-.75c1.25-1 3-3.502 4-5.754 3.5-7.254 2.25-14.258-3.25-17.01-1.25-.5-2-.75-5-.75-4.25 0-5.75.5-9.5 3.252-4 3.001-5.5 3.752-8.75 3.752-3.5 0-5.25-.75-8.75-3.502-2.25-1.501-3.75-2.502-5.25-3.002-2.75-.5-6.5-.5-8.5.25m9.5 11.007c2 1.25 2.25 1.5 1 3.752-.5 1-1.5 2.501-2.5 3.502l-1.5 1.5-1-1c-1.5-1.25-2.25-3.252-2.5-5.253 0-3.252 2.75-4.502 6.5-2.501m30-.5c1.5.5 1.75 1.5 1.75 3.251 0 1.501-1.25 4.253-2.5 5.504l-.75.75-1-1c-1.25-1.001-3-3.753-3.75-5.504-.25-1-.25-1 1-2.001 1-.75 2.75-1.5 3.75-1.5.25 0 .75.25 1.5.5m-12.25 13.007c2 .5 5.25 1.751 5.25 2.001s-1 .75-2.25 1.501c-6.25 3.502-10.5 3.252-16-.25-2-1.25-2-1.5-1.5-1.751.75-.5 3.5-1.25 6-1.751 2-.5 6.25-.25 8.5.25m-18 8.505c2.25 2.752 2.25 4.503-.75 7.004-2.75 2.252-5.25 3.252-7 2.502-1.25-.5-2-1.751-2-3.252 0-1.25 2.75-5.253 4.75-7.505l1.5-1.5 1 .75c.75.25 1.75 1.25 2.5 2.001m31-1c1.75 2 4.25 5.753 4.75 6.754 0 .5 0 1.25-.25 2-.75 1.752-2.5 2.502-4.75 2.002-3-.75-7.25-4.253-7.25-5.753 0-1.251 1-2.502 3.25-4.753 1.25-1.251 2.25-2.001 2.5-2.001s.75.75 1.75 1.75m-60.25 33.02v6.504h1c1 0 1 0 1-2.251 0-2.002.25-2.252.75-2.502.5 0 1 .5 2.25 2.251 1.5 2.252 1.5 2.502 3 2.502h1.5l-1.5-2.251c-1.25-1.751-1.5-2.252-1-2.502 1-.25 2.25-2.001 2.5-3.252.25-1.75-.75-3.502-2.25-4.252-.75-.5-2-.5-4.25-.5h-3v6.253m15.5-6.004c-2.75.75-4.5 3.002-4.5 6.254 0 3.752 2.5 6.254 6.25 6.254 2.25 0 3.5-.75 5-2.502.75-1.25 1-1.5 1-3.752 0-2.251 0-2.501-1-3.752-1.75-2.502-4.25-3.252-6.75-2.502m9.25 6.004v6.504h3.5c3.5 0 3.5 0 4.5-1 .75-.751 1-1.251 1-2.502 0-.75-.25-1.751-.5-2.252-.5-.5-.5-1-.25-1.5 1-2.002 0-4.253-1.75-5.003-.75-.25-2.25-.5-3.75-.5h-2.75v6.253m14.5-6.004c-3.25 1.251-5 4.253-4.25 7.505.75 3.002 3 4.753 6.25 4.753 1.75 0 2.25-.25 3.5-1 2.5-1.752 3.5-5.004 2-8.006-1.25-2.751-4.75-4.252-7.5-3.252m9-.25c-.25.25-.25.75-.25 1.251 0 1 0 1 1.75 1h1.75v10.507h2.5v-10.506h4v-2.002h-4.75c-2.5-.5-4.75-.5-5-.25m11.25 6.254v6.504h2v-13.008h-2v6.504m8-6.004c-4.5 1.752-5.75 7.005-2.5 10.507.5.5 1.25 1 1.75 1.25 1.75 1.001 6.25.5 6.25-.75 0-.25-.25-.75-.5-1-.5-.5-.5-.5-1.75-.25-1.75.5-3 .25-4.25-1.251-2.75-3.252.5-8.005 4.5-6.504 1 .25 1 .25 1.5-.25.75-1.001.5-1.501-.25-1.752-1.5-.5-3.25-.5-4.75 0m9.75-.25c-1.75.75-3 3.002-2.25 5.003.5 1.751 2 2.502 4.5 2.502 1.5 0 2.25.25 2.5.5 1.25 1.25.25 2.502-2.25 2.502-1.5 0-2 0-2.5-.75-.5-.501-.75-.751-1.75-.751-1.25 0-1.25 0-.75 1.5.75 1.752 1.75 2.252 4.75 2.252 3.25 0 4-.25 4.5-1.751.75-1.25.75-2.502 0-3.752-.75-1.251-1.5-1.751-4-1.751-1.75 0-2.25-.25-3-.75-.75-.751-.75-1.502 0-2.252 1.25-1 4.75-.5 4.75.75 0 .25.5.25 1.25.25 1.25 0 1.5-.25.5-2-.25-.751-1-1.252-1.75-1.752-.5 0-3.5 0-4.5.25m-70.5 2.752c1.5 1.5.25 3.002-2.75 3.002h-2v-3.502h2c1.5 0 2 0 2.75.5m12.25 0c2.75 1.751 2.75 6.004-.25 7.504-3 1.501-6.25-1.5-5.5-4.502s3.5-4.503 5.75-3.002m12 .5c.5 1.251-.75 2.252-2.75 2.252h-1.5v-3.002h2c1.75-.25 2-.25 2.25.75m13 .25c1 1.001 1 1.501 1 2.752 0 1.25-.25 1.751-1 2.752-2.25 2.251-5.5 1.75-6.75-1.251-.5-1.25-.5-1.5 0-2.752 1.25-3.001 4.5-3.752 6.75-1.5m-12.75 4.502c.25.25.5.75.5 1 0 1.251-.75 1.502-2.75 1.502h-2V155h2c1 0 2 .25 2.25.5m-21 11.007s-.25 2.501-.25 5.003v4.752h2v-3.001c0-1.751.25-3.002.25-3.002s.75.5 1.5 1.25c.75.751 1.25 1.251 1.5 1.251s1-.75 1.75-1.5l1.5-1.502v3.252c0 3.252 0 3.252.75 3.252h.75v-5.003c0-3.752 0-5.003-.5-5.003-.25 0-1.25 1.001-2.5 2.002l-2 2-2-2c-1.75-2.002-2.25-2.252-2.75-1.751m15.5 0c-.25.25-1 2.501-2.25 5.003l-2 4.752h1c1 0 1.25-.25 1.5-1 .25-1 .5-1 2.25-1s2 0 2.25 1c.25.75.5 1 1.25 1 .5 0 1 0 1-.25s-1-2.501-2-5.003c-1.75-4.252-2.5-5.503-3-4.502m7.25 0c-1.75 1-2 3.502-.75 4.752.75.75 1.25.75 3 .75 1.5 0 2 0 2.25.501.5 1-.5 1.751-2 1.751-1.25 0-1.75 0-2-.5s-.75-.75-1.25-.75c-1 0-1 1.25 0 2.25.75.751 1.25.751 3 .751 2 0 2.25 0 3.25-1 1-1.001 1.25-2.002.5-3.502-.5-1.251-1-1.251-3.25-1.251-2 0-3-.5-2.5-1.751.25-.5.5-.75 2-.75 1.25 0 1.75.25 1.75.5s.5.5 1.25.5 1 0 .75-.5c0-.25-.25-.75-.25-.75 0-.251-.5-.501-1-1.001-1-.5-3.5-.5-4.75 0m7.5.75c0 1 0 1 1.5 1h1.5v8.006h1.5v-8.004h1.5c1.5 0 1.5 0 1.5-1.001v-1h-7.5v1m9.5-.75c-.25.25-.25 2.501-.25 5.003v4.752h6.5v-.75c0-.75 0-.75-2.25-.75h-2.25v-2.752h2c1.75 0 2-.25 2-1 0-1.001 0-1.001-2-1.001s-2 0-2-.75c0-.751 0-.751 2.25-1.001 2.25 0 2.25-.25 2.25-1.001 0-.75 0-.75-3-1-1.5 0-3 0-3.25.25m8 4.752v5.003h.75c.75 0 .75 0 .75-1.75 0-1.502 0-1.752.75-1.752.5 0 1 .75 1.75 1.751 1 1.501 1.5 1.751 2.25 1.751.5 0 1 0 1-.25s-.5-1-1-1.75l-1-1.502 1-1c.75-.75 1-1.251 1-2.502 0-1.25-.25-1.75-.75-2.251-.75-.75-1.25-.75-3.75-1h-2.75v5.252m10-4.502c-1.75 1-2.25 3.252-.75 4.502.75.75 1.25 1.001 2.75 1.001 1.25 0 2 .25 2.25.5.75 1 0 1.751-1.75 1.751-1.25 0-1.75 0-2-.5-.5-.75-2.25-1-2.25-.25 0 .25.5 1 1 1.5 1 1.001 1.25 1.001 3.25 1.001 2.75 0 4-.75 4-3.001 0-2.002-1-2.752-3.5-2.752-2 0-2.75-.5-2.5-1.501.25-.75 3.5-1 3.75-.25s1.75.75 1.75 0c0-1-.5-1.501-1.25-2.001-1.25-.75-3.5-.75-4.75 0m-4.75 1.75c1 1.001 0 2.252-2.25 2.252h-1.5v-2.501h1.5c1 0 2 0 2.25.25m-36.25 3.252c.25.75.25 1-.75 1s-1.25-.5-.5-1.75c.5-1.001 1-.751 1.25.75" fill="#fff" stroke-width="2.501"/>
  <path id="GND_LIPO" transform="matrix(2.5 0 0 2.50148 .018 .409)" d="M116.3 133.7v13.1h-2.8v-13.1z"/>
  <path id="LIPO+" class="st8" transform="matrix(2.5 0 0 2.50148 .018 .409)" fill="#d42328" d="M110.6 133.7v13.1h-2.8v-13.1z"/>
  <path class="st9" id="polygon322" transform="matrix(2.5 0 0 2.50148 .018 .409)" fill="#dbab27" d="M35.9 140.7h1.2v5.6h-1.2z"/>
  <path class="st9" id="polygon324" transform="matrix(2.5 0 0 2.50148 .018 .409)" fill="#dbab27" d="M34 140.7h1.3v5.6H34z"/>
  <path class="st9" id="polygon326" transform="matrix(2.5 0 0 2.50148 .018 .409)" fill="#dbab27" d="M32.2 140.7h1.3v5.6h-1.3z"/>
  <path class="st9" id="polygon328" transform="matrix(2.5 0 0 2.50148 .018 .409)" fill="#dbab27" d="M30.3 140.7h1.3v5.6h-1.3z"/>
  <path class="st9" id="polygon330" transform="matrix(2.5 0 0 2.50148 .018 .409)" fill="#dbab27" d="M28.5 140.7h1.3v5.6h-1.3z"/>
  <path id="A5" class="st9" transform="matrix(2.5 0 0 2.50148 .018 .409)" fill="#dbab27" d="M158.4 130.5h2.8v7.7h-2.8z"/>
  <path id="A4" class="st9" transform="matrix(2.5 0 0 2.50148 .018 .409)" fill="#dbab27" d="M152.7 130.5h2.8v7.7h-2.8z"/>
  <path id="5V_GROVE" class="st8" transform="matrix(2.5 0 0 2.50148 .018 .409)" fill="#d42328" d="M147.1 130.5h2.8v7.7h-2.8z"/>
  <path id="GND_GROVE" transform="matrix(2.5 0 0 2.50148 .018 .409)" d="M141.4 130.5h2.8v7.7h-2.8z"/>
  <path id="MOSI" class="st9" transform="matrix(2.5 0 0 2.50148 .018 .409)" fill="#dbab27" d="M168.9 40.4h5.7v2h-5.7z"/>
  <path id="MISO" class="st9" transform="matrix(2.5 0 0 2.50148 .018 .409)" fill="#dbab27" d="M168.9 44h5.7v2h-5.7z"/>
  <path id="GND_SPI" transform="matrix(2.5 0 0 2.50148 .018 .409)" d="M168.9 29.7h5.7v2h-5.7z"/>
  <path id="NC" class="st9" transform="matrix(2.5 0 0 2.50148 .018 .409)" fill="#dbab27" d="M168.9 33.2h5.7v2h-5.7z"/>
  <path id="D12" class="st9" transform="matrix(2.5 0 0 2.50148 .018 .409)" fill="#dbab27" d="M168.9 36.9h5.7v2h-5.7z"/>
  <path id="SCK" class="st9" transform="matrix(2.5 0 0 2.50148 .018 .409)" fill="#dbab27" d="M168.9 47.5h5.7v2h-5.7z"/>
  <path id="5V_SPI" class="st8" transform="matrix(2.5 0 0 2.50148 .018 .409)" fill="#d42328" d="M168.9 51.1h5.7v2h-5.7z"/>
  <path id="5V_I2C" class="st8" transform="matrix(2.5 0 0 2.50148 .018 .409)" fill="#d42328" d="M168.9 130h5.7v2h-5.7z"/>
  <path id="GND_I2C" transform="matrix(2.5 0 0 2.50148 .018 .409)" d="M168.9 119.3h5.7v1.9h-5.7z"/>
  <path id="SDA" class="st9" transform="matrix(2.5 0 0 2.50148 .018 .409)" fill="#dbab27" d="M168.9 122.8h5.7v2h-5.7z"/>
  <path id="SCL" class="st9" transform="matrix(2.5 0 0 2.50148 .018 .409)" fill="#dbab27" d="M168.9 126.4h5.7v2h-5.7z"/>
  <path id="RX" class="st9" transform="matrix(2.5 0 0 2.50148 .018 .409)" fill="#dbab27" d="M168.9 86.9h5.7v1.9h-5.7z"/>
  <path id="TX" class="st9" transform="matrix(2.5 0 0 2.50148 .018 .409)" fill="#dbab27" d="M168.9 90.4h5.7v2h-5.7z"/>
  <path id="GND_GPS" transform="matrix(2.5 0 0 2.50148 .018 .409)" d="M168.9 76.1h5.7v2h-5.7z"/>
  <path id="D10" class="st9" transform="matrix(2.5 0 0 2.50148 .018 .409)" fill="#dbab27" d="M168.9 79.7h5.7v1.9h-5.7z"/>
  <path id="D11" class="st9" transform="matrix(2.5 0 0 2.50148 .018 .409)" fill="#dbab27" d="M168.9 83.3h5.7v2h-5.7z"/>
  <path id="5V_GPS" class="st8" transform="matrix(2.5 0 0 2.50148 .018 .409)" fill="#d42328" d="M168.9 93.9h5.7v2h-5.7z"/>
  <ellipse id="GND_RCC4" class="st10" cx="13.768" cy="115.727" rx="6.25" ry="6.254" fill="none" stroke="#010101" stroke-width="2.501" stroke-miterlimit="10"/>
  <ellipse id="5V_RCC4" class="st11" cx="31.768" cy="115.727" rx="6.25" ry="6.254" fill="none" stroke="#d42328" stroke-width="2.501" stroke-miterlimit="10"/>
  <ellipse id="A3" class="st12" cx="49.768" cy="115.727" rx="6.25" ry="6.254" fill="none" stroke="#febf10" stroke-width="2.501" stroke-miterlimit="10"/>
  <ellipse id="GND_RCC3" class="st10" cx="13.768" cy="97.716" rx="6.25" ry="6.254" fill="none" stroke="#010101" stroke-width="2.501" stroke-miterlimit="10"/>
  <ellipse id="5V_RCC3" class="st11" cx="31.768" cy="97.716" rx="6.25" ry="6.254" fill="none" stroke="#d42328" stroke-width="2.501" stroke-miterlimit="10"/>
  <ellipse id="A2" class="st12" cx="49.768" cy="97.716" rx="6.25" ry="6.254" fill="none" stroke="#febf10" stroke-width="2.501" stroke-miterlimit="10"/>
  <ellipse id="GND_RCC2" class="st10" cx="13.768" cy="79.705" rx="6.25" ry="6.254" fill="none" stroke="#010101" stroke-width="2.501" stroke-miterlimit="10"/>
  <ellipse id="5V_RCC2" class="st11" cx="31.768" cy="79.705" rx="6.25" ry="6.254" fill="none" stroke="#d42328" stroke-width="2.501" stroke-miterlimit="10"/>
  <ellipse id="A1" class="st12" cx="49.768" cy="79.705" rx="6.25" ry="6.254" fill="none" stroke="#febf10" stroke-width="2.501" stroke-miterlimit="10"/>
  <ellipse id="GND_RCC1" class="st10" cx="13.768" cy="61.695" rx="6.25" ry="6.254" fill="none" stroke="#010101" stroke-width="2.501" stroke-miterlimit="10"/>
  <ellipse id="5V_RCC1" class="st11" cx="31.768" cy="61.695" rx="6.25" ry="6.254" fill="none" stroke="#d42328" stroke-width="2.501" stroke-miterlimit="10"/>
  <ellipse id="A0" class="st12" cx="49.768" cy="61.695" rx="6.25" ry="6.254" fill="none" stroke="#febf10" stroke-width="2.501" stroke-miterlimit="10"/>
  <ellipse id="GND_S1" class="st10" cx="13.768" cy="151.748" rx="6.25" ry="6.254" fill="none" stroke="#010101" stroke-width="2.501" stroke-miterlimit="10"/>
  <ellipse id="5V_S1" class="st11" cx="31.768" cy="151.748" rx="6.25" ry="6.254" fill="none" stroke="#d42328" stroke-width="2.501" stroke-miterlimit="10"/>
  <ellipse id="D0" class="st12" cx="49.768" cy="151.748" rx="6.25" ry="6.254" fill="none" stroke="#febf10" stroke-width="2.501" stroke-miterlimit="10"/>
  <ellipse id="GND_S2" class="st10" cx="13.768" cy="169.758" rx="6.25" ry="6.254" fill="none" stroke="#010101" stroke-width="2.501" stroke-miterlimit="10"/>
  <ellipse id="5V_S2" class="st11" cx="31.768" cy="169.758" rx="6.25" ry="6.254" fill="none" stroke="#d42328" stroke-width="2.501" stroke-miterlimit="10"/>
  <ellipse id="D1" class="st12" cx="49.768" cy="169.758" rx="6.25" ry="6.254" fill="none" stroke="#febf10" stroke-width="2.501" stroke-miterlimit="10"/>
  <ellipse id="GND_S3" class="st10" cx="13.768" cy="187.769" rx="6.25" ry="6.254" fill="none" stroke="#010101" stroke-width="2.501" stroke-miterlimit="10"/>
  <ellipse id="5V_S3" class="st11" cx="31.768" cy="187.769" rx="6.25" ry="6.254" fill="none" stroke="#d42328" stroke-width="2.501" stroke-miterlimit="10"/>
  <ellipse id="D2" class="st12" cx="49.768" cy="187.769" rx="6.25" ry="6.254" fill="none" stroke="#febf10" stroke-width="2.501" stroke-miterlimit="10"/>
  <ellipse id="GND_S4" class="st10" cx="13.768" cy="205.78" rx="6.25" ry="6.254" fill="none" stroke="#010101" stroke-width="2.501" stroke-miterlimit="10"/>
  <ellipse id="5V_S4" class="st11" cx="31.768" cy="205.78" rx="6.25" ry="6.254" fill="none" stroke="#d42328" stroke-width="2.501" stroke-miterlimit="10"/>
  <ellipse id="D3" class="st12" cx="49.768" cy="205.78" rx="6.25" ry="6.254" fill="none" stroke="#febf10" stroke-width="2.501" stroke-miterlimit="10"/>
  <ellipse id="GND_S5" class="st10" cx="13.768" cy="223.79" rx="6.25" ry="6.254" fill="none" stroke="#010101" stroke-width="2.501" stroke-miterlimit="10"/>
  <ellipse id="5V_S5" class="st11" cx="31.768" cy="223.79" rx="6.25" ry="6.254" fill="none" stroke="#d42328" stroke-width="2.501" stroke-miterlimit="10"/>
  <ellipse id="D4" class="st12" cx="49.768" cy="223.79" rx="6.25" ry="6.254" fill="none" stroke="#febf10" stroke-width="2.501" stroke-miterlimit="10"/>
  <ellipse id="GND_S6" class="st10" cx="13.768" cy="241.801" rx="6.25" ry="6.254" fill="none" stroke="#010101" stroke-width="2.501" stroke-miterlimit="10"/>
  <ellipse id="5V_S6" class="st11" cx="31.768" cy="241.801" rx="6.25" ry="6.254" fill="none" stroke="#d42328" stroke-width="2.501" stroke-miterlimit="10"/>
  <ellipse id="D5" class="st12" cx="49.768" cy="241.801" rx="6.25" ry="6.254" fill="none" stroke="#febf10" stroke-width="2.501" stroke-miterlimit="10"/>
  <ellipse id="GND_S7" class="st10" cx="13.768" cy="259.812" rx="6.25" ry="6.254" fill="none" stroke="#010101" stroke-width="2.501" stroke-miterlimit="10"/>
  <ellipse id="5V_S7" class="st11" cx="31.768" cy="259.812" rx="6.25" ry="6.254" fill="none" stroke="#d42328" stroke-width="2.501" stroke-miterlimit="10"/>
  <ellipse id="D6" class="st12" cx="49.768" cy="259.812" rx="6.25" ry="6.254" fill="none" stroke="#febf10" stroke-width="2.501" stroke-miterlimit="10"/>
  <ellipse id="GND_S8" class="st10" cx="13.768" cy="277.822" rx="6.25" ry="6.254" fill="none" stroke="#010101" stroke-width="2.501" stroke-miterlimit="10"/>
  <ellipse id="5V_S8" class="st11" cx="31.768" cy="277.822" rx="6.25" ry="6.254" fill="none" stroke="#d42328" stroke-width="2.501" stroke-miterlimit="10"/>
  <ellipse id="D7" class="st12" cx="49.768" cy="277.822" rx="6.25" ry="6.254" fill="none" stroke="#febf10" stroke-width="2.501" stroke-miterlimit="10"/>
  <ellipse id="ESTOPPIN1" class="st13" cx="192.018" cy="259.812" rx="7" ry="7.004" fill="none" stroke="#ed2224" stroke-width="2.501" stroke-miterlimit="10"/>
  <ellipse id="ESTOPPIN0" class="st13" cx="174.018" cy="259.812" rx="7" ry="7.004" fill="none" stroke="#ed2224" stroke-width="2.501" stroke-miterlimit="10"/>
  <circle id="NEOPIXEL" class="st12" cx="130.551" cy="116.576" r="6.111" fill="none" stroke="#febf10" stroke-width="2.778" stroke-miterlimit="10"/>
  <circle id="GND_NEO" class="st10" cx="148.551" cy="116.697" r="6.111" fill="none" stroke="#010101" stroke-width="2.778" stroke-miterlimit="10"/>
  <circle id="D9" class="st12" cx="112.551" cy="80.434" r="6.111" fill="none" stroke="#febf10" stroke-width="2.778" stroke-miterlimit="10"/>
  <circle id="D8" class="st12" cx="130.551" cy="80.676" r="6.111" fill="none" stroke="#febf10" stroke-width="2.778" stroke-miterlimit="10"/>
  <circle id="GND_PISERIAL" class="st10" cx="148.551" cy="80.555" r="6.111" fill="none" stroke="#010101" stroke-width="2.778" stroke-miterlimit="10"/>
  <circle id="5V_NEO" class="st11" cx="112.551" cy="116.697" r="6.111" fill="none" stroke="#d42328" stroke-width="2.778" stroke-miterlimit="10"/>
  <ellipse class="st14" cx="62.268" cy="36.93" rx="6" ry="6.004" id="ellipse397" fill="none" stroke="#dbab27" stroke-width="2.501" stroke-miterlimit="10"/>
  <ellipse class="st14" cx="62.268" cy="18.919" rx="6" ry="6.004" id="ellipse399" fill="none" stroke="#dbab27" stroke-width="2.501" stroke-miterlimit="10"/>
  <ellipse class="st14" cx="80.268" cy="36.93" rx="6" ry="6.004" id="ellipse401" fill="none" stroke="#dbab27" stroke-width="2.501" stroke-miterlimit="10"/>
  <ellipse class="st14" cx="80.268" cy="18.919" rx="6" ry="6.004" id="ellipse403" fill="none" stroke="#dbab27" stroke-width="2.501" stroke-miterlimit="10"/>
  <ellipse class="st14" cx="98.268" cy="36.93" rx="6" ry="6.004" id="ellipse405" fill="none" stroke="#dbab27" stroke-width="2.501" stroke-miterlimit="10"/>
  <ellipse class="st14" cx="98.268" cy="18.919" rx="6" ry="6.004" id="ellipse407" fill="none" stroke="#dbab27" stroke-width="2.501" stroke-miterlimit="10"/>
  <ellipse class="st14" cx="116.268" cy="36.93" rx="6" ry="6.004" id="ellipse409" fill="none" stroke="#dbab27" stroke-width="2.501" stroke-miterlimit="10"/>
  <ellipse class="st14" cx="116.268" cy="18.919" rx="6" ry="6.004" id="ellipse411" fill="none" stroke="#dbab27" stroke-width="2.501" stroke-miterlimit="10"/>
  <ellipse class="st14" cx="134.268" cy="36.93" rx="6" ry="6.004" id="ellipse413" fill="none" stroke="#dbab27" stroke-width="2.501" stroke-miterlimit="10"/>
  <ellipse class="st14" cx="134.268" cy="18.919" rx="6" ry="6.004" id="ellipse415" fill="none" stroke="#dbab27" stroke-width="2.501" stroke-miterlimit="10"/>
  <ellipse class="st14" cx="152.268" cy="36.93" rx="6" ry="6.004" id="ellipse417" fill="none" stroke="#dbab27" stroke-width="2.501" stroke-miterlimit="10"/>
  <ellipse class="st14" cx="152.268" cy="18.919" rx="6" ry="6.004" id="ellipse419" fill="none" stroke="#dbab27" stroke-width="2.501" stroke-miterlimit="10"/>
  <ellipse class="st14" cx="170.268" cy="36.93" rx="6" ry="6.004" id="ellipse421" fill="none" stroke="#dbab27" stroke-width="2.501" stroke-miterlimit="10"/>
  <ellipse class="st14" cx="170.268" cy="18.919" rx="6" ry="6.004" id="ellipse423" fill="none" stroke="#dbab27" stroke-width="2.501" stroke-miterlimit="10"/>
  <ellipse class="st14" cx="188.268" cy="36.93" rx="6" ry="6.004" id="ellipse425" fill="none" stroke="#dbab27" stroke-width="2.501" stroke-miterlimit="10"/>
  <ellipse class="st14" cx="188.268" cy="18.919" rx="6" ry="6.004" id="ellipse427" fill="none" stroke="#dbab27" stroke-width="2.501" stroke-miterlimit="10"/>
  <ellipse class="st14" cx="206.268" cy="36.93" rx="6" ry="6.004" id="ellipse429" fill="none" stroke="#dbab27" stroke-width="2.501" stroke-miterlimit="10"/>
  <ellipse class="st14" cx="206.268" cy="18.919" rx="6" ry="6.004" id="ellipse431" fill="none" stroke="#dbab27" stroke-width="2.501" stroke-miterlimit="10"/>
  <ellipse class="st14" cx="224.268" cy="36.93" rx="6" ry="6.004" id="ellipse433" fill="none" stroke="#dbab27" stroke-width="2.501" stroke-miterlimit="10"/>
  <ellipse class="st14" cx="224.268" cy="18.919" rx="6" ry="6.004" id="ellipse435" fill="none" stroke="#dbab27" stroke-width="2.501" stroke-miterlimit="10"/>
  <ellipse class="st14" cx="242.268" cy="36.93" rx="6" ry="6.004" id="ellipse437" fill="none" stroke="#dbab27" stroke-width="2.501" stroke-miterlimit="10"/>
  <ellipse class="st14" cx="242.268" cy="18.919" rx="6" ry="6.004" id="ellipse439" fill="none" stroke="#dbab27" stroke-width="2.501" stroke-miterlimit="10"/>
  <ellipse class="st14" cx="260.267" cy="36.93" rx="6" ry="6.004" id="ellipse441" fill="none" stroke="#dbab27" stroke-width="2.501" stroke-miterlimit="10"/>
  <ellipse class="st14" cx="260.267" cy="18.919" rx="6" ry="6.004" id="ellipse443" fill="none" stroke="#dbab27" stroke-width="2.501" stroke-miterlimit="10"/>
  <ellipse class="st14" cx="278.267" cy="36.93" rx="6" ry="6.004" id="ellipse445" fill="none" stroke="#dbab27" stroke-width="2.501" stroke-miterlimit="10"/>
  <ellipse class="st14" cx="278.267" cy="18.919" rx="6" ry="6.004" id="ellipse447" fill="none" stroke="#dbab27" stroke-width="2.501" stroke-miterlimit="10"/>
  <ellipse class="st14" cx="296.267" cy="36.93" rx="6" ry="6.004" id="ellipse449" fill="none" stroke="#dbab27" stroke-width="2.501" stroke-miterlimit="10"/>
  <ellipse class="st14" cx="296.267" cy="18.919" rx="6" ry="6.004" id="ellipse451" fill="none" stroke="#dbab27" stroke-width="2.501" stroke-miterlimit="10"/>
  <ellipse class="st14" cx="314.267" cy="36.93" rx="6" ry="6.004" id="ellipse453" fill="none" stroke="#dbab27" stroke-width="2.501" stroke-miterlimit="10"/>
  <ellipse class="st14" cx="314.267" cy="18.919" rx="6" ry="6.004" id="ellipse455" fill="none" stroke="#dbab27" stroke-width="2.501" stroke-miterlimit="10"/>
  <ellipse class="st14" cx="332.267" cy="36.93" rx="6" ry="6.004" id="ellipse457" fill="none" stroke="#dbab27" stroke-width="2.501" stroke-miterlimit="10"/>
  <ellipse class="st14" cx="332.267" cy="18.919" rx="6" ry="6.004" id="ellipse459" fill="none" stroke="#dbab27" stroke-width="2.501" stroke-miterlimit="10"/>
  <ellipse class="st14" cx="350.267" cy="36.93" rx="6" ry="6.004" id="ellipse461" fill="none" stroke="#dbab27" stroke-width="2.501" stroke-miterlimit="10"/>
  <ellipse class="st14" cx="350.267" cy="18.919" rx="6" ry="6.004" id="ellipse463" fill="none" stroke="#dbab27" stroke-width="2.501" stroke-miterlimit="10"/>
  <ellipse class="st14" cx="368.267" cy="36.93" rx="6" ry="6.004" id="ellipse465" fill="none" stroke="#dbab27" stroke-width="2.501" stroke-miterlimit="10"/>
  <ellipse class="st14" cx="368.267" cy="18.919" rx="6" ry="6.004" id="ellipse467" fill="none" stroke="#dbab27" stroke-width="2.501" stroke-miterlimit="10"/>
  <ellipse class="st14" cx="386.267" cy="36.93" rx="6" ry="6.004" id="ellipse469" fill="none" stroke="#dbab27" stroke-width="2.501" stroke-miterlimit="10"/>
  <ellipse class="st14" cx="386.267" cy="18.919" rx="6" ry="6.004" id="ellipse471" fill="none" stroke="#dbab27" stroke-width="2.501" stroke-miterlimit="10"/>
  <ellipse class="st14" cx="404.267" cy="36.93" rx="6" ry="6.004" id="ellipse473" fill="none" stroke="#dbab27" stroke-width="2.501" stroke-miterlimit="10"/>
  <ellipse class="st14" cx="404.267" cy="18.919" rx="6" ry="6.004" id="ellipse475" fill="none" stroke="#dbab27" stroke-width="2.501" stroke-miterlimit="10"/>
  <path class="st9" id="polygon477" transform="matrix(2.5 0 0 2.50148 .018 .409)" fill="#dbab27" d="M119.4 150.3h4.6v9.6h-4.6z"/>
  <path class="st9" id="polygon479" transform="matrix(2.5 0 0 2.50148 .018 .409)" fill="#dbab27" d="M100.2 150.3h4.5v9.6h-4.5z"/>
  <path class="st9" id="polygon513" transform="matrix(2.5 0 0 2.50148 .018 .409)" fill="#dbab27" d="M109.5 126.2v-4h3.7v4z"/>
  <path class="st9" id="polygon515" transform="matrix(2.5 0 0 2.50148 .018 .409)" fill="#dbab27" d="M115.4 126.2v-4h3.7v4z"/>
  <path class="st9" id="polygon521" transform="matrix(2.5 0 0 2.50148 .018 .409)" fill="#dbab27" d="M12.2 122v2.5h-4V122z"/>
  <path class="st9" id="polygon523" transform="matrix(2.5 0 0 2.50148 .018 .409)" fill="#dbab27" d="M8.2 136.5v-2.6h4v2.6z"/>
  <path class="st9" id="polygon525" transform="matrix(2.5 0 0 2.50148 .018 .409)" fill="#dbab27" d="M2.3 140.9v-4.1h2.8v4.1z"/>
  <path class="st9" id="polygon527" transform="matrix(2.5 0 0 2.50148 .018 .409)" fill="#dbab27" d="M2.3 121.6v-4.1h2.8v4.1z"/>
  <path class="st9" id="polygon529" transform="matrix(2.5 0 0 2.50148 .018 .409)" fill="#dbab27" d="M160.4 112.3h4.9v5.7h-4.9z"/>
  <path class="st9" id="polygon531" transform="matrix(2.5 0 0 2.50148 .018 .409)" fill="#dbab27" d="M136.6 112.3h4.8v5.7h-4.8z"/>
  <path class="st9" id="polygon535" transform="matrix(2.5 0 0 2.50148 .018 .409)" fill="#dbab27" d="M40.2 156h-3.4v-4.5h3.4z"/>
  <path class="st9" id="polygon537" transform="matrix(2.5 0 0 2.50148 .018 .409)" fill="#dbab27" d="M28.9 156h-3.4v-4.5h3.4z"/>
  <path class="st9" id="polygon539" transform="matrix(2.5 0 0 2.50148 .018 .409)" fill="#dbab27" d="M37.7 126.2v3.9H34v-3.9z"/>
  <path class="st9" id="polygon541" transform="matrix(2.5 0 0 2.50148 .018 .409)" fill="#dbab27" d="M31.7 126.2v3.9H28v-3.9z"/>
  <path class="st9" id="polygon555" transform="matrix(2.5 0 0 2.50148 .018 .409)" fill="#dbab27" d="M155.4 84v4h-3.7v-4z"/>
  <path class="st9" id="polygon557" transform="matrix(2.5 0 0 2.50148 .018 .409)" fill="#dbab27" d="M149.4 84v4h-3.6v-4z"/>
  <path class="st9" id="polygon559" transform="matrix(2.5 0 0 2.50148 .018 .409)" fill="#dbab27" d="M70.6 127.2h-3.5v-2.6h3.5z"/>
  <path class="st9" id="polygon561" transform="matrix(2.5 0 0 2.50148 .018 .409)" fill="#dbab27" d="M70.6 118h-3.5v-2.6h3.5z"/>
  <path class="st9" id="polygon563" transform="matrix(2.5 0 0 2.50148 .018 .409)" fill="#dbab27" d="M62.7 127.2h-3.5v-2.6h3.5z"/>
  <path class="st9" id="polygon565" transform="matrix(2.5 0 0 2.50148 .018 .409)" fill="#dbab27" d="M62.7 118h-3.5v-2.6h3.5z"/>
  <path class="st9" id="polygon567" transform="matrix(2.5 0 0 2.50148 .018 .409)" fill="#dbab27" d="M78.5 127.2h-3.4v-2.6h3.4z"/>
  <path class="st9" id="polygon569" transform="matrix(2.5 0 0 2.50148 .018 .409)" fill="#dbab27" d="M78.5 118h-3.4v-2.6h3.4z"/>
  <path class="st9" id="polygon577" transform="matrix(2.5 0 0 2.50148 .018 .409)" fill="#dbab27" d="M15.8 130h3.9v3.7h-3.9z"/>
  <path class="st9" id="polygon593" transform="matrix(2.5 0 0 2.50148 .018 .409)" fill="#dbab27" d="M164.5 151.4h4.3v8.5h-4.3z"/>
  <path class="st9" id="polygon595" transform="matrix(2.5 0 0 2.50148 .018 .409)" fill="#dbab27" d="M133.8 151.4h4.3v8.5h-4.3z"/>
  <path class="st9" id="polygon609" transform="matrix(2.5 0 0 2.50148 .018 .409)" fill="#dbab27" d="M91.3 106.1v-6.7h9.9v6.7z"/>
  <path class="st9" id="polygon611" transform="matrix(2.5 0 0 2.50148 .018 .409)" fill="#dbab27" d="M91.3 123.1v-6.7h9.9v6.7z"/>
  <path class="st9" id="polygon613" transform="matrix(2.5 0 0 2.50148 .018 .409)" fill="#dbab27" d="M46.8 80.5h-9.9V66.3h9.9z"/>
  <path class="st9" id="polygon615" transform="matrix(2.5 0 0 2.50148 .018 .409)" fill="#dbab27" d="M75.6 80.5h-9.9V66.3h9.9z"/>
  <path class="st9" id="polygon625" transform="matrix(2.5 0 0 2.50148 .018 .409)" fill="#dbab27" d="M53 110.2v17.9h-2.8v-17.9z"/>
  <path class="st9" id="polygon627" transform="matrix(2.5 0 0 2.50148 .018 .409)" fill="#dbab27" d="M44.4 110.2v17.9h-2.9v-17.9z"/>
  <path id="gge4558_1" class="st9" d="M341.267 296.083h9l-2.25-6.004h-4.25z" fill="#dbab27" stroke-width="2.501"/>
  <ellipse class="st9" cx="184.768" cy="367.875" rx="3" ry="3.002" id="ellipse668" fill="#dbab27" stroke-width="2.501"/>
  <ellipse class="st9" cx="177.518" cy="367.875" rx="3" ry="3.002" id="ellipse670" fill="#dbab27" stroke-width="2.501"/>
  <ellipse class="st9" cx="181.268" cy="361.372" rx="3" ry="3.002" id="ellipse672" fill="#dbab27" stroke-width="2.501"/>
  <ellipse class="st9" cx="124.018" cy="361.372" rx="3" ry="3.002" id="ellipse678" fill="#dbab27" stroke-width="2.501"/>
  <ellipse class="st9" cx="124.018" cy="368.626" rx="3" ry="3.002" id="ellipse682" fill="#dbab27" stroke-width="2.501"/>
  <ellipse class="st9" cx="130.268" cy="365.124" rx="3" ry="3.002" id="ellipse684" fill="#dbab27" stroke-width="2.501"/>
  <path class="st15" id="line686" fill="none" stroke="#dbab27" stroke-width="12.799" d="M107.768 381.884v6.253"/>
  <path class="st15" id="line688" fill="none" stroke="#dbab27" stroke-width="12.799" d="M56.768 381.884v6.253"/>
  <ellipse class="st9" cx="58.768" cy="365.124" rx="5.25" ry="5.253" id="ellipse690" fill="#dbab27" stroke-width="2.501"/>
  <ellipse class="st9" cx="105.518" cy="365.124" rx="5.25" ry="5.253" id="ellipse692" fill="#dbab27" stroke-width="2.501"/>
  <ellipse id="GND_PWR" cx="141.018" cy="343.611" rx="7.75" ry="7.755" stroke-width="2.501"/>
  <ellipse id="PWR+" class="st8" cx="168.018" cy="343.611" rx="7.75" ry="7.755" fill="#d42328" stroke-width="2.501"/>
  <ellipse id="GND_ESC" cx="201.518" cy="343.611" rx="7.75" ry="7.755" stroke-width="2.501"/>
  <ellipse id="ESC+" class="st8" cx="228.518" cy="343.611" rx="7.75" ry="7.755" fill="#d42328" stroke-width="2.501"/>
  <path id="path5922" class="st17" d="M385.517 220.789h-18.25c-.75 0-1.25-.5-1.25-1.251v-7.755c0-.75.5-1.25 1.25-1.25h18.25c.75 0 1.25.5 1.25 1.25v7.755c0 .5-.5 1.25-1.25 1.25z" fill="#dcdcdc" stroke-width="2.501"/>
  <path id="path5922_1_" class="st17" d="M295.017 316.095h-18.25c-.75 0-1.25-.5-1.25-1.25v-7.755c0-.75.5-1.251 1.25-1.251h18.25c.75 0 1.25.5 1.25 1.25v7.755c0 .75-.5 1.25-1.25 1.25z" fill="#dcdcdc" stroke-width="2.501"/>
  <path id="path5922_2_" class="st17" d="M91.018 326.1h-18.25c-.75 0-1.25-.5-1.25-1.25v-7.755c0-.75.5-1.25 1.25-1.25h18.25c.75 0 1.25.5 1.25 1.25v7.755c0 .75-.5 1.25-1.25 1.25z" fill="#dcdcdc" stroke-width="2.501"/>
  <path id="path5922_3_" class="st17" d="M49.268 313.343v18.261c0 .75-.5 1.25-1.25 1.25h-7.75c-.75 0-1.25-.5-1.25-1.25v-18.26c0-.751.5-1.252 1.25-1.252h7.75c.75-.25 1.25.5 1.25 1.251z" fill="#dcdcdc" stroke-width="2.501"/>
  <path id="POWERBTN" class="st18" d="M1.268 335.606v-24.514c0-.5.5-1.25 1.25-1.25h4c.5 0 1.25.5 1.25 1.25v24.514c0 .5-.5 1.251-1.25 1.251h-4c-.75-.25-1.25-.75-1.25-1.25z" fill="#010101" stroke-width="2.501"/>
  <g transform="matrix(2.5 0 0 2.50148 51.236 37.784)" id="g730">
    <g id="g728">
      <g id="g726">
        <g id="g724">
          <g id="Power">
            <path id="rect5896_6_" class="st17" fill="#dcdcdc" d="M-11.5 108.2h2.7v.8h-2.7z"/>
            <path id="rect5896_5_" class="st17" fill="#dcdcdc" d="M-11.5 119.4h2.7v.8h-2.7z"/>
            <path id="rect5896_4_" class="st17" fill="#dcdcdc" d="M-18 104.3h2.7V124H-18z"/>
            <path id="rect5898_4_" class="st19" fill="#bbb" d="M-17.7 105.2h7.4v18h-7.4z"/>
            <path id="rect5981_5_" class="st20" fill="#e5e3df" d="M-10.7 105.2h.4v18h-.4z"/>
            <path id="rect5981_4_" class="st20" fill="#e5e3df" d="M-17.7 105.2h.4v18h-.4z"/>
          </g>
        </g>
      </g>
    </g>
  </g>
  <g transform="matrix(2.5 0 0 2.50148 51.236 37.784)" id="g745">
    <g id="g743">
      <g id="g741">
        <g id="g739">
          <g id="reset">
            <path id="rect5981_2_" class="st20" fill="#e5e3df" d="M121.5 95.1h18v.7h-18z"/>
            <path id="rect5896_3_" class="st17" fill="#dcdcdc" d="M117.9 98.7h24.8v2.7h-24.8z"/>
            <path id="rect5898_3_" class="st19" fill="#bbb" d="M121.4 95.1h18v10.1h-18z"/>
            <path id="rect5979" class="st20" fill="#e5e3df" d="M121.4 95.1h.7v10.1h-.7z"/>
            <path id="rect5981" class="st20" fill="#e5e3df" d="M138.7 95.1h.7v10.1h-.7z"/>
            <path id="rect5981_1_" class="st20" fill="#e5e3df" d="M121.4 104.5h18v.7h-18z"/>
          </g>
        </g>
      </g>
    </g>
  </g>
  <g transform="matrix(2.5 0 0 2.50148 -4.357 42.616)" id="g768">
    <g id="g766">
      <g id="g764">
        <g id="g762">
          <g id="g355">
            <path id="rect6007" class="st21" fill="#b5b5b5" d="M23.2 134.1h22.7v4H23.2z"/>
            <path id="rect6009" class="st17" fill="#dcdcdc" d="M34.1 127h.6v3.4h-.6z"/>
            <path id="rect6011" class="st17" fill="#dcdcdc" d="M36 127.1h.6v3.4H36z"/>
            <path id="rect6013" class="st17" fill="#dcdcdc" d="M38.1 127h.6v3.4h-.6z"/>
            <path id="rect6015" class="st17" fill="#dcdcdc" d="M32.5 127.1h.6v3.4h-.6z"/>
            <path id="rect6017" class="st17" fill="#dcdcdc" d="M30.5 127.1h.6v3.4h-.6z"/>
            <path id="rect6019" class="st21" fill="#b5b5b5" d="M27.4 128.4h14.2v.7H27.4z"/>
            <path id="rect6021" class="st18" fill="#010101" d="M27.4 128.7h14.2v3H27.4z"/>
            <path id="polygon6023" class="st17" fill="#dcdcdc" d="M23.8 142h21.5v-13.6h-5.1v2.2H38v.7h-1.5v-2.6h-3.9v2.6h-1.4v-.7h-2.3v-2.2h-5.1z"/>
            <path id="polygon6025" class="st18" fill="#010101" d="M27 139.2l.3-4.3h1.4l.3 4.3z"/>
            <path id="polygon6027" class="st18" fill="#010101" d="M40.1 139.2l.3-4.3h1.4l.3 4.3z"/>
            <path id="polygon6029" fill="#f1f0f0" d="M24.9 143.7l-.5-1.7h20.4l-.6 1.7z"/>
            <path id="polygon6031" class="st21" fill="#b5b5b5" d="M23.2 143.7l.6-1.7h.6l-.6 1.7z"/>
            <path id="polygon6033" class="st21" fill="#b5b5b5" d="M45.3 143.7l-.5-1.7h.5l.6 1.7z"/>
          </g>
        </g>
      </g>
    </g>
  </g>
  <g transform="matrix(2.5 0 0 2.50148 51.236 37.784)" id="g804">
    <g id="g802">
      <g id="g800">
        <g id="g798">
          <g id="Diode_x5F_1">
            <g id="g795">
              <g id="g793">
                <g id="g791">
                  <g id="g5904">
                    <g transform="rotate(180 5.103 2.338)" id="g788">
                      <g id="g786">
                        <g id="g784">
                          <g id="g782">
                            <g id="g780">
                              <g id="g778">
                                <g id="g776">
                                  <g id="g774">
                                    <g id="g5902">
                                      <path id="rect5896" class="st17" fill="#dcdcdc" d="M-47.2-106.9h2.4v10.2h-2.4z"/>
                                      <path id="rect5898" class="st23" fill="#303030" d="M-48.3-105.7h4.7v7.7h-4.7z"/>
                                      <path id="rect5900" class="st24" fill="#4e4e4e" d="M-48.3-100.1h4.7v1.4h-4.7z"/>
                                    </g>
                                  </g>
                                </g>
                              </g>
                            </g>
                          </g>
                        </g>
                      </g>
                    </g>
                  </g>
                </g>
              </g>
            </g>
          </g>
        </g>
      </g>
    </g>
  </g>
  <g transform="matrix(2.5 0 0 2.50148 51.236 37.784)" id="g840">
    <g id="g838">
      <g id="g836">
        <g id="g834">
          <g id="Diode_x5F_2">
            <g id="g831">
              <g id="g829">
                <g id="g827">
                  <g id="g5904_1_">
                    <g transform="rotate(180 5.103 2.338)" id="g824">
                      <g id="g822">
                        <g id="g820">
                          <g id="g818">
                            <g id="g816">
                              <g id="g814">
                                <g id="g812">
                                  <g id="g810">
                                    <g id="g5902_1_">
                                      <path id="rect5896_1_" class="st17" fill="#dcdcdc" d="M-39.2-106.9h2.4v10.2h-2.4z"/>
                                      <path id="rect5898_1_" class="st23" fill="#303030" d="M-40.3-105.7h4.7v7.7h-4.7z"/>
                                      <path id="rect5900_1_" class="st24" fill="#4e4e4e" d="M-40.3-100.1h4.7v1.4h-4.7z"/>
                                    </g>
                                  </g>
                                </g>
                              </g>
                            </g>
                          </g>
                        </g>
                      </g>
                    </g>
                  </g>
                </g>
              </g>
            </g>
          </g>
        </g>
      </g>
    </g>
  </g>
  <g transform="matrix(2.5 0 0 2.50148 51.236 37.784)" id="g876">
    <g id="g874">
      <g id="g872">
        <g id="g870">
          <g id="Diode_x5F_3">
            <g id="g867">
              <g id="g865">
                <g id="g863">
                  <g id="g5904_2_">
                    <g transform="rotate(180 5.103 2.338)" id="g860">
                      <g id="g858">
                        <g id="g856">
                          <g id="g854">
                            <g id="g852">
                              <g id="g850">
                                <g id="g848">
                                  <g id="g846">
                                    <g id="g5902_2_">
                                      <path id="rect5896_2_" class="st17" fill="#dcdcdc" d="M-31.2-106.9h2.4v10.2h-2.4z"/>
                                      <path id="rect5898_2_" class="st23" fill="#303030" d="M-32.3-105.7h4.7v7.7h-4.7z"/>
                                      <path id="rect5900_2_" class="st24" fill="#4e4e4e" d="M-32.3-100.1h4.7v1.4h-4.7z"/>
                                    </g>
                                  </g>
                                </g>
                              </g>
                            </g>
                          </g>
                        </g>
                      </g>
                    </g>
                  </g>
                </g>
              </g>
            </g>
          </g>
        </g>
      </g>
    </g>
  </g>
  <g transform="matrix(2.5 0 0 2.50148 51.236 37.784)" id="g887">
    <g id="g885">
      <g id="g883">
        <g id="g881">
          <g id="g342">
            <path id="rect5896_7_" class="st17" fill="#dcdcdc" d="M19 53.8h33.7v8.5H19z"/>
            <path id="rect5898_5_" class="st25" d="M52.1 47.3v22.3c0 1.3-1 2.3-2.3 2.3H22c-1.3 0-2.3-1-2.3-2.3V47.3c0-1.3 1-2.3 2.3-2.3h27.8c1.2 0 2.3 1 2.3 2.3z" fill="#505050"/>
          </g>
        </g>
      </g>
    </g>
  </g>
  <g transform="matrix(2.5 0 0 2.50148 51.236 37.784)" id="g898">
    <g id="g896">
      <g id="g894">
        <g id="g892">
          <g id="g343">
            <path id="rect5896_8_" class="st17" fill="#dcdcdc" d="M73 85h5.7v22.6H73z"/>
            <path id="rect5898_6_" class="st25" d="M83.1 107.2h-15c-.9 0-1.5-.7-1.5-1.5V87c0-.9.7-1.5 1.5-1.5h15c.9 0 1.5.7 1.5 1.5v18.6c0 .9-.6 1.6-1.5 1.6z" fill="#505050"/>
          </g>
        </g>
      </g>
    </g>
  </g>
  <g transform="matrix(2.5 0 0 2.50148 51.236 37.784)" id="g910">
    <g id="g908">
      <g id="g906">
        <g id="g904">
          <g id="g352">
            <path id="rect5898_7_" class="st23" fill="#303030" d="M20.5 94.1h12v19.7h-12z"/>
            <path id="rect5896_9_" class="st17" fill="#dcdcdc" d="M20.4 94.1h2.2v19.7h-2.2z"/>
            <path id="rect5896_10_" class="st17" fill="#dcdcdc" d="M30.3 94.1h2.2v19.7h-2.2z"/>
          </g>
        </g>
      </g>
    </g>
  </g>
  <g transform="matrix(2.5 0 0 2.50148 51.236 37.784)" id="g943">
    <g id="g941">
      <g id="g939">
        <g id="g937">
          <g id="_x32_P_Batt">
            <path class="st26" id="rect912" fill="#e8e8e8" d="M80.5 123.2h2.1v10.3h-2.1z"/>
            <path class="st26" id="rect914" fill="#e8e8e8" d="M100.6 123.2h2.1v10.3h-2.1z"/>
            <path id="rect5896_45_" class="st17" fill="#dcdcdc" d="M87.3 119.2h2.5v23.7h-2.5z"/>
            <path id="rect5896_44_" class="st17" fill="#dcdcdc" d="M93 119.2h2.5v23.7H93z"/>
            <path id="rect5896_41_" class="st17" fill="#dcdcdc" d="M80.2 140.9h1.6v5.2h-1.6z"/>
            <path id="rect5896_40_" class="st17" fill="#dcdcdc" d="M101.5 140.9h1.6v5.2h-1.6z"/>
            <path class="st27" id="rect920" fill="#ededed" d="M87 129.3h9v16.4h-9z"/>
            <path class="st27" id="rect922" fill="#ededed" d="M81.1 129.4h3.5v16.7h-3.5z"/>
            <path class="st27" id="rect924" fill="#ededed" d="M98.3 129.4h3.5v16.7h-3.5z"/>
            <path class="st28" id="rect926" fill="#f9f9f9" d="M80.5 129.4H84v16.7h-3.5z"/>
            <path class="st28" id="rect928" fill="#f9f9f9" d="M99.2 129.4h3.5v16.7h-3.5z"/>
            <path class="st29" id="rect930" fill="#d1d1d1" d="M84.6 129.4H87v4.1h-2.4z"/>
            <path class="st29" id="rect932" fill="#d1d1d1" d="M96 129.4h2.4v4.1H96z"/>
            <path class="st27" id="rect934" fill="#ededed" d="M84 140.9h15.3v5.2H84z"/>
          </g>
        </g>
      </g>
    </g>
  </g>
  <g transform="matrix(2.5 0 0 2.50148 51.236 37.784)" id="g956">
    <g id="g954">
      <g id="g952">
        <g id="g950">
          <g id="Power_1_">
            <path class="st30" id="rect945" fill="#77af6a" d="M30.1 121.5H53v24.2H30.1z"/>
            <path class="st31" id="rect947" fill="#628a55" d="M30 140.8h22.9v4.9H30z"/>
          </g>
        </g>
      </g>
    </g>
  </g>
  <g transform="matrix(2.5 0 0 2.50148 51.236 37.784)" id="g969">
    <g id="g967">
      <g id="g965">
        <g id="g963">
          <g id="g356">
            <path class="st30" id="rect958" fill="#77af6a" d="M53.6 121.5h22.9v24.2H53.6z"/>
            <path class="st31" id="rect960" fill="#628a55" d="M53.5 140.8h22.9v4.9H53.5z"/>
          </g>
        </g>
      </g>
    </g>
  </g>
  <path id="PWR_LED" fill="#4c58a6" stroke-width="2.501" d="M39.018 317.346h10.5v10.506h-10.5z"/>
  <path id="USB_LED" fill="#51b848" stroke-width="2.501" d="M76.518 315.595h10.5v10.506h-10.5z"/>
  <path id="CHRG_LED" fill="#fbf282" stroke-width="2.501" d="M280.517 305.839h10.5v10.506h-10.5z"/>
  <path id="R_LED" fill="#ed2224" stroke-width="2.501" d="M370.767 210.282h10.5v10.506h-10.5z"/>
  <path id="RESETBTN" d="M387.767 292.831h-21c-1.5 0-3-1.25-3-3.002v-3.502c0-1.5 1.25-3.002 3-3.002h21c1.5 0 3 1.251 3 3.002v3.502c0 1.751-1.25 3.002-3 3.002z" fill="#481212" stroke-width="2.501"/>
  <g transform="matrix(2.5 0 0 2.50148 51.875 37.137)" id="g1116">
    <g id="g1114">
      <g id="g1112">
        <g id="g1110">
          <g id="_x37_pin_PH2.5">
            <path class="st36" id="rect1078" fill="#c2bfbf" d="M162.1 8.3h2.5v8.9h-2.5z"/>
            <path class="st36" id="rect1080" fill="#c2bfbf" d="M162.1 17.8h2.5v17h-2.5z"/>
            <path class="st36" id="rect1082" fill="#c2bfbf" d="M162.1 35.3h2.5V44h-2.5z"/>
            <path id="rect5896_39_" class="st17" fill="#dcdcdc" d="M150.8 36.8h12.1v1.1h-12.1z"/>
            <path id="rect5896_38_" class="st17" fill="#dcdcdc" d="M150.8 33.2h12.1v1.1h-12.1z"/>
            <path id="rect5896_37_" class="st17" fill="#dcdcdc" d="M150.8 29.6h12.1v1.1h-12.1z"/>
            <path id="rect5896_36_" class="st17" fill="#dcdcdc" d="M150.8 26h12.1v1.1h-12.1z"/>
            <path id="rect5896_35_" class="st17" fill="#dcdcdc" d="M150.8 22.5h12.1v1.1h-12.1z"/>
            <path id="rect5896_34_" class="st17" fill="#dcdcdc" d="M150.8 18.9h12.1V20h-12.1z"/>
            <path id="rect5896_33_" class="st17" fill="#dcdcdc" d="M150.8 15.3h12.1v1.1h-12.1z"/>
            <path class="st37" d="M159.4 48.1h-2.2c-1.3 0-2.4-1.1-2.4-2.4V6.9c0-1.3 1.1-2.4 2.4-2.4h2.2c1.3 0 2.4 1.1 2.4 2.4v38.8c0 1.4-1.1 2.4-2.4 2.4z" id="path1091" fill="#e5e5e5"/>
            <path class="st33" id="rect1093" fill="#ededee" d="M154.2 7.6h7.9v37h-7.9z"/>
            <path class="st37" id="rect1095" fill="#e5e5e5" d="M158.2 44.6h4.5v3.5h-4.5z"/>
            <path class="st37" id="rect1097" fill="#e5e5e5" d="M158.2 4.6h4.5v3h-4.5z"/>
            <path id="rect5896_32_" class="st17" fill="#dcdcdc" d="M156.5 5.4h6.2v2.2h-6.2z"/>
            <path id="rect5896_31_" class="st17" fill="#dcdcdc" d="M156.5 44.7h6.2v2.2h-6.2z"/>
            <path class="st17" id="rect1101" fill="#dcdcdc" d="M163.7 7.6h.9v.6h-.9z"/>
            <path class="st17" id="rect1103" fill="#dcdcdc" d="M163.7 44h.9v.6h-.9z"/>
            <path class="st33" id="rect1105" fill="#ededee" d="M162.1 43.5h1.6v1.1h-1.6z"/>
            <path class="st33" id="rect1107" fill="#ededee" d="M162.1 7.6h1.6v1.1h-1.6z"/>
          </g>
        </g>
      </g>
    </g>
  </g>
  <g transform="matrix(2.5 0 0 2.50148 50.459 37.911)" id="g1076">
    <g id="g1074">
      <g id="g1072">
        <g id="g1070">
          <g id="_x36_pin_PH2.5">
            <path class="st36" id="rect1039" fill="#c2bfbf" d="M162.7 54.2h2.5v8.5h-2.5z"/>
            <path class="st36" id="rect1041" fill="#c2bfbf" d="M162.7 63.5h2.5v14.9h-2.5z"/>
            <path class="st36" id="rect1043" fill="#c2bfbf" d="M162.7 79.3h2.5v8.2h-2.5z"/>
            <path id="rect5896_28_" class="st17" fill="#dcdcdc" d="M151.4 79.6h12.1v1.1h-12.1z"/>
            <path id="rect5896_29_" class="st17" fill="#dcdcdc" d="M151.4 76h12.1v1.1h-12.1z"/>
            <path id="rect5896_30_" class="st17" fill="#dcdcdc" d="M151.4 72.4h12.1v1.1h-12.1z"/>
            <path id="rect5896_27_" class="st17" fill="#dcdcdc" d="M151.4 68.8h12.1v1.1h-12.1z"/>
            <path id="rect5896_26_" class="st17" fill="#dcdcdc" d="M151.4 65.2h12.1v1.1h-12.1z"/>
            <path id="rect5896_25_" class="st17" fill="#dcdcdc" d="M151.4 61.5h12.1v1.1h-12.1z"/>
            <path class="st37" d="M159.9 91.3h-2.2c-1.3 0-2.4-1.1-2.4-2.4V53.2c0-1.3 1.1-2.4 2.4-2.4h2.2c1.3 0 2.4 1.1 2.4 2.4v35.7c0 1.4-1 2.4-2.4 2.4z" id="path1051" fill="#e5e5e5"/>
            <path class="st33" id="rect1053" fill="#ededee" d="M154.8 53.7h7.9v34.4h-7.9z"/>
            <path class="st37" id="rect1055" fill="#e5e5e5" d="M158.8 88h4.5v3.3h-4.5z"/>
            <path class="st37" id="rect1057" fill="#e5e5e5" d="M158.8 50.9h4.5v2.8h-4.5z"/>
            <path id="rect5896_24_" class="st17" fill="#dcdcdc" d="M157.1 51.6h6.2v2.1h-6.2z"/>
            <path id="rect5896_23_" class="st17" fill="#dcdcdc" d="M157.1 88.1h6.2v2.1h-6.2z"/>
            <path class="st17" id="rect1061" fill="#dcdcdc" d="M164.3 53.7h.8v.6h-.8z"/>
            <path class="st17" id="rect1063" fill="#dcdcdc" d="M164.3 87.5h.9v.6h-.9z"/>
            <path class="st33" id="rect1065" fill="#ededee" d="M162.7 87h1.6v1.1h-1.6z"/>
            <path class="st33" id="rect1067" fill="#ededee" d="M162.7 53.7h1.6v1.1h-1.6z"/>
          </g>
        </g>
      </g>
    </g>
  </g>
  <g transform="matrix(2.5 0 0 2.50148 51.268 39.682)" id="g1000">
    <g id="g998">
      <g id="g996">
        <g id="g994">
          <g id="_x34_pin_Grove">
            <path class="st32" id="rect971" fill="#e9e8e8" d="M113.4 120.7h3.2v11h-3.2z"/>
            <path class="st32" id="rect973" fill="#e9e8e8" d="M144.8 120.7h3.2v11h-3.2z"/>
            <path id="rect5896_11_" class="st17" fill="#dcdcdc" d="M121 116.4h2.5v25.3H121z"/>
            <path id="rect5896_12_" class="st17" fill="#dcdcdc" d="M126.7 116.4h2.5v25.3h-2.5z"/>
            <path id="rect5896_13_" class="st17" fill="#dcdcdc" d="M132.3 116.4h2.5v25.3h-2.5z"/>
            <path id="rect5896_14_" class="st17" fill="#dcdcdc" d="M138 116.4h2.5v25.3H138z"/>
            <path id="rect5896_15_" class="st17" fill="#dcdcdc" d="M112.9 139.5h2.5v5.6h-2.5z"/>
            <path id="rect5896_16_" class="st17" fill="#dcdcdc" d="M146 139.5h2.5v5.6H146z"/>
            <path class="st33" id="rect981" fill="#ededee" d="M113.4 125H148v13.6h-34.6z"/>
            <path class="st33" id="rect983" fill="#ededee" d="M114.4 127.3h5.4v17.8h-5.4z"/>
            <path class="st33" id="rect985" fill="#ededee" d="M141.2 127.3h5.4v17.8h-5.4z"/>
            <path class="st34" id="rect987" fill="#f9f9fa" d="M113.4 127.3h5.4v17.8h-5.4z"/>
            <path class="st34" id="rect989" fill="#f9f9fa" d="M142.6 127.3h5.4v17.8h-5.4z"/>
            <path id="rect991" fill="#a3a1a1" d="M126.9 136.2h8.9v2.4h-8.9z"/>
          </g>
        </g>
      </g>
    </g>
  </g>
  <g transform="matrix(2.5 0 0 2.50148 49.844 37.808)" id="g1037">
    <g id="g1035">
      <g id="g1033">
        <g id="g1031">
          <g id="_x34_pin_PH2.5">
            <path class="st36" id="rect1002" fill="#c2bfbf" d="M162.7 97.4h2.5v8.3h-2.5z"/>
            <path class="st36" id="rect1004" fill="#c2bfbf" d="M162.7 106.3h2.5v8.6h-2.5z"/>
            <path class="st36" id="rect1006" fill="#c2bfbf" d="M162.7 115.6h2.5v8.3h-2.5z"/>
            <path id="rect5896_17_" class="st17" fill="#dcdcdc" d="M151.4 115.8h12.1v1.1h-12.1z"/>
            <path id="rect5896_18_" class="st17" fill="#dcdcdc" d="M151.4 112.1h12.1v1.1h-12.1z"/>
            <path id="rect5896_19_" class="st17" fill="#dcdcdc" d="M151.4 108.4h12.1v1.1h-12.1z"/>
            <path id="rect5896_20_" class="st17" fill="#dcdcdc" d="M151.4 104.7h12.1v1.1h-12.1z"/>
            <path class="st17" id="rect1012" fill="#dcdcdc" d="M164.3 96.8h.8v.6h-.8z"/>
            <path class="st17" id="rect1014" fill="#dcdcdc" d="M164.3 123.9h.8v.6h-.8z"/>
            <path class="st33" id="rect1016" fill="#ededee" d="M162.7 123.4h1.6v1.1h-1.6z"/>
            <path class="st33" id="rect1018" fill="#ededee" d="M162.7 96.8h1.6v1.1h-1.6z"/>
            <path class="st37" d="M159.9 127.1h-2.2c-1.3 0-2.4-1.1-2.4-2.4V96.9c0-1.3 1.1-2.4 2.4-2.4h2.2c1.3 0 2.4 1.1 2.4 2.4v27.8c0 1.4-1 2.4-2.4 2.4z" id="path1020" fill="#e5e5e5"/>
            <path class="st33" id="rect1022" fill="#ededee" d="M154.8 96.8h7.9v27.7h-7.9z"/>
            <path class="st37" id="rect1024" fill="#e5e5e5" d="M158.8 124.5h4.5v2.6h-4.5z"/>
            <path class="st37" id="rect1026" fill="#e5e5e5" d="M158.8 94.5h4.5v2.3h-4.5z"/>
            <path id="rect5896_21_" class="st17" fill="#dcdcdc" d="M157.1 95.1h6.2v1.7h-6.2z"/>
            <path id="rect5896_22_" class="st17" fill="#dcdcdc" d="M157.1 124.5h6.2v1.7h-6.2z"/>
          </g>
        </g>
      </g>
    </g>
  </g>
</svg>
